<svg width="61" height="102" viewBox="0 0 61 102" fill="none" xmlns="http://www.w3.org/2000/svg">
<path d="M4.99219 82.0215L3.54688 82.2461L5.37305 90.0781L5.63672 91.8555L5.69531 91.8652L6.07617 90.0781L8.69336 80.7812H10.3926L13.0195 90.0781L13.4102 91.9043H13.4688L13.752 90.0781L15.5391 82.2461L14.084 82.0215V80.7812H18.6055V82.0215L17.4629 82.168L14.3672 95H12.6484L9.83594 85.1367L9.58203 83.8574H9.52344L9.2793 85.1367L6.42773 95H4.71875L1.62305 82.168L0.480469 82.0215V80.7812H4.99219V82.0215ZM19.4746 93.7695L21.0664 93.4961V81.2793L19.4746 81.0059V79.7656H22.9902V85.8398C23.3548 85.332 23.8008 84.9382 24.3281 84.6582C24.8555 84.3783 25.4414 84.2383 26.0859 84.2383C27.2188 84.2383 28.0977 84.5768 28.7227 85.2539C29.3477 85.931 29.6602 86.9727 29.6602 88.3789V93.4961L31.252 93.7695V95H26.1445V93.7695L27.7363 93.4961V88.3594C27.7363 87.487 27.5475 86.8424 27.1699 86.4258C26.7988 86.0091 26.2422 85.8008 25.5 85.8008C24.9727 85.8008 24.4909 85.9277 24.0547 86.1816C23.625 86.429 23.2702 86.7676 22.9902 87.1973V93.4961L24.582 93.7695V95H19.4746V93.7695ZM37.375 95.2051C35.9036 95.2051 34.7318 94.7168 33.8594 93.7402C32.9935 92.7572 32.5605 91.4844 32.5605 89.9219V89.4922C32.5605 87.9883 33.0065 86.7383 33.8984 85.7422C34.7969 84.7396 35.8581 84.2383 37.082 84.2383C38.5013 84.2383 39.5755 84.668 40.3047 85.5273C41.0404 86.3867 41.4082 87.5326 41.4082 88.9648V90.166H34.5527L34.5234 90.2148C34.543 91.2305 34.8001 92.0671 35.2949 92.7246C35.7897 93.3757 36.4831 93.7012 37.375 93.7012C38.026 93.7012 38.5957 93.61 39.084 93.4277C39.5788 93.2389 40.0052 92.9818 40.3633 92.6562L41.1152 93.9062C40.7376 94.2708 40.2363 94.5801 39.6113 94.834C38.9928 95.0814 38.2474 95.2051 37.375 95.2051ZM37.082 85.752C36.4375 85.752 35.8874 86.0254 35.4316 86.5723C34.9759 87.1126 34.696 87.793 34.5918 88.6133L34.6113 88.6621H39.4844V88.4082C39.4844 87.653 39.2826 87.0215 38.8789 86.5137C38.4753 86.0059 37.8763 85.752 37.082 85.752ZM50.207 95C50.1484 94.7135 50.1029 94.4564 50.0703 94.2285C50.0378 94.0007 50.015 93.7728 50.002 93.5449C49.6309 94.0202 49.1654 94.4173 48.6055 94.7363C48.0521 95.0488 47.4596 95.2051 46.8281 95.2051C45.7279 95.2051 44.8913 94.9382 44.3184 94.4043C43.7454 93.8639 43.459 93.1055 43.459 92.1289C43.459 91.1263 43.8626 90.3548 44.6699 89.8145C45.4837 89.2676 46.597 88.9941 48.0098 88.9941H49.9922V87.7637C49.9922 87.1452 49.7969 86.6569 49.4062 86.2988C49.0156 85.9342 48.472 85.752 47.7754 85.752C47.2936 85.752 46.8672 85.8138 46.4961 85.9375C46.1315 86.0612 45.8353 86.2305 45.6074 86.4453L45.4023 87.5586H43.918V85.5078C44.3997 85.1237 44.9824 84.8177 45.666 84.5898C46.3496 84.3555 47.0918 84.2383 47.8926 84.2383C49.0905 84.2383 50.0605 84.5443 50.8027 85.1562C51.5449 85.7682 51.916 86.6439 51.916 87.7832V92.8711C51.916 93.0078 51.916 93.1413 51.916 93.2715C51.9225 93.4017 51.9323 93.5319 51.9453 93.6621L52.7266 93.7695V95H50.207ZM47.1113 93.5938C47.7493 93.5938 48.332 93.4408 48.8594 93.1348C49.3867 92.8288 49.7643 92.4609 49.9922 92.0312V90.293H47.9414C47.1536 90.293 46.5286 90.4753 46.0664 90.8398C45.6107 91.2044 45.3828 91.6471 45.3828 92.168C45.3828 92.6302 45.526 92.985 45.8125 93.2324C46.099 93.4733 46.5319 93.5938 47.1113 93.5938ZM57.6875 81.8848V84.4336H59.6895V85.8594H57.6875V92.2754C57.6875 92.7702 57.7884 93.1185 57.9902 93.3203C58.1986 93.5221 58.472 93.623 58.8105 93.623C58.9798 93.623 59.1686 93.61 59.377 93.584C59.5918 93.5514 59.7708 93.5189 59.9141 93.4863L60.1777 94.8047C59.9954 94.9219 59.7285 95.0163 59.377 95.0879C59.0254 95.166 58.6738 95.2051 58.3223 95.2051C57.541 95.2051 56.9193 94.9707 56.457 94.502C55.9948 94.0267 55.7637 93.2845 55.7637 92.2754V85.8594H54.0938V84.4336H55.7637V81.8848H57.6875Z" fill="#324950"/>
<path d="M41 0.545453C41 0.244363 40.7479 0 40.436 0C40.1242 0 39.8721 0.244363 39.8721 0.545453V14.8281C35.7851 15.0556 32.2812 17.7414 30.5645 21.5601V0.545453C30.5645 0.244363 30.3119 0 30.0006 0C29.6893 0 29.4366 0.244363 29.4366 0.545453V21.5601C27.7199 17.7414 24.2155 15.055 20.1279 14.8276V0.545453C20.1279 0.244363 19.8753 0 19.564 0C19.2527 0 19 0.244363 19 0.545453V15.3572C19 18.5656 20.1505 21.4827 22.02 23.6454C21.2299 23.4468 20.4082 23.3383 19.564 23.3383C19.2527 23.3383 19 23.5826 19 23.8837C19 27.0932 20.1516 30.0119 22.0228 32.1752C21.2316 31.9766 20.4093 31.8681 19.564 31.8681C19.2527 31.8681 19 32.1119 19 32.4135C19 35.6219 20.151 38.539 22.0211 40.7022C21.2305 40.5037 20.4088 40.3951 19.564 40.3951C19.2527 40.3951 19 40.639 19 40.9406C19 47.5902 23.9346 53 30.0006 53C36.0659 53 41 47.5902 41 40.9406C41 40.639 40.7479 40.3951 40.436 40.3951C39.5912 40.3951 38.7695 40.5037 37.9794 40.7022C39.849 38.5395 41 35.6224 41 32.4141C41 32.1124 40.7479 31.8686 40.436 31.8686C39.5907 31.8686 38.7684 31.9772 37.9778 32.1757C39.8484 30.0124 41 27.0943 41 23.8843C41 23.5832 40.7479 23.3388 40.436 23.3388C39.5918 23.3388 38.7707 23.4474 37.9806 23.6459C39.8495 21.4832 41 18.5661 41 15.3578V0.545453ZM39.8456 15.9359C39.5828 21.4963 35.5854 25.963 30.591 26.2941C30.8538 20.7337 34.8512 16.2665 39.8456 15.9359ZM29.4366 30.0866C28.9437 28.9903 28.3031 27.9888 27.544 27.1112C28.1576 27.265 28.7892 27.3664 29.4366 27.4025V30.0866ZM29.4101 34.8212C24.4151 34.4906 20.4172 30.0233 20.1544 24.463C25.1494 24.7936 29.1473 29.2603 29.4101 34.8212ZM29.4366 38.6153C28.9431 37.5179 28.3019 36.5159 27.5423 35.6377C28.1564 35.7921 28.7886 35.8935 29.4366 35.9295V38.6153ZM29.4101 43.3493C24.4151 43.0188 20.4172 38.552 20.1544 32.9922C25.1494 33.3228 29.1473 37.789 29.4101 43.3493ZM29.4366 47.1424C28.9437 46.0455 28.3025 45.044 27.5434 44.1658C28.157 44.3202 28.7892 44.4217 29.4366 44.4577V47.1424ZM30.5645 44.4577C31.2119 44.4217 31.8441 44.3202 32.4572 44.1664C31.6981 45.044 31.0574 46.0455 30.5645 47.1418V44.4577ZM30.5645 38.6148V35.9295C31.2125 35.8935 31.8453 35.7921 32.4583 35.6377C31.6992 36.5159 31.0574 37.5179 30.5645 38.6148ZM39.8456 32.9917C39.5828 38.5515 35.5854 43.0182 30.591 43.3488C30.8538 37.789 34.8512 33.3228 39.8456 32.9917ZM30.5645 30.0861V27.4025C31.2114 27.3664 31.8436 27.265 32.456 27.1112C31.6981 27.9888 31.0569 28.9903 30.5645 30.0861ZM39.8456 24.463C39.5828 30.0233 35.5854 34.4906 30.591 34.8212C30.8538 29.2603 34.8512 24.7936 39.8456 24.463ZM29.4101 26.2941C24.4151 25.9635 20.4172 21.4963 20.1544 15.9359C25.1494 16.2665 29.1473 20.7337 29.4101 26.2941ZM20.1544 41.5188C25.1494 41.8493 29.1473 46.316 29.4101 51.8758C24.4151 51.5453 20.4172 47.0791 20.1544 41.5188ZM30.591 51.8758C30.8538 46.316 34.8512 41.8493 39.8456 41.5188C39.5828 47.0791 35.5854 51.5453 30.591 51.8758Z" fill="#324950"/>
</svg>
