<svg width="225" height="100" viewBox="0 0 225 100" fill="none" xmlns="http://www.w3.org/2000/svg">
<path d="M11.7188 83.1465H10.3613L10 81.1348C9.6875 80.8288 9.30339 80.5781 8.84766 80.3828C8.39193 80.1875 7.84831 80.0899 7.2168 80.0899C5.73893 80.0899 4.60286 80.627 3.80859 81.7012C3.01432 82.7689 2.61719 84.1263 2.61719 85.7735V85.9981C2.61719 87.6452 3.00456 89.0091 3.7793 90.0899C4.56055 91.1641 5.64128 91.7012 7.02148 91.7012C7.66602 91.7012 8.25195 91.6003 8.7793 91.3985C9.30664 91.1966 9.71354 90.9492 10 90.6563L10.3613 88.6445H11.7188V91.1738C11.3086 91.7012 10.6934 92.1732 9.87305 92.5899C9.05273 93 8.10221 93.2051 7.02148 93.2051C5.17253 93.2051 3.6556 92.5215 2.4707 91.1543C1.28581 89.7871 0.693359 88.0684 0.693359 85.9981V85.793C0.693359 83.7097 1.27604 81.9876 2.44141 80.627C3.60677 79.2598 5.13346 78.5762 7.02148 78.5762C8.10221 78.5762 9.05273 78.7878 9.87305 79.211C10.6934 79.6276 11.3086 80.0964 11.7188 80.6172V83.1465ZM13.7891 87.6192C13.7891 86.0567 14.2122 84.7708 15.0586 83.7617C15.9049 82.7461 17.054 82.2383 18.5059 82.2383C19.9642 82.2383 21.1165 82.7429 21.9629 83.752C22.8158 84.7611 23.2422 86.0501 23.2422 87.6192V87.834C23.2422 89.4095 22.819 90.6986 21.9727 91.7012C21.1263 92.7038 19.9772 93.2051 18.5254 93.2051C17.0605 93.2051 15.9049 92.7038 15.0586 91.7012C14.2122 90.6921 13.7891 89.403 13.7891 87.834V87.6192ZM15.7129 87.834C15.7129 88.9538 15.9473 89.8783 16.416 90.6074C16.8913 91.3366 17.5944 91.7012 18.5254 91.7012C19.4368 91.7012 20.1302 91.3366 20.6055 90.6074C21.0807 89.8783 21.3184 88.9538 21.3184 87.834V87.6192C21.3184 86.5124 21.0807 85.5912 20.6055 84.8555C20.1302 84.1198 19.4303 83.752 18.5059 83.752C17.5814 83.752 16.8848 84.1198 16.416 84.8555C15.9473 85.5912 15.7129 86.5124 15.7129 87.6192V87.834ZM24.7266 91.7695L26.3184 91.4961V83.9473L24.7266 83.6738V82.4336H28.0371L28.1738 84.0059C28.5254 83.446 28.9648 83.013 29.4922 82.707C30.026 82.3945 30.6315 82.2383 31.3086 82.2383C32.4479 82.2383 33.3301 82.5736 33.9551 83.2442C34.5801 83.9082 34.8926 84.9369 34.8926 86.3301V91.4961L36.4844 91.7695V93H31.377V91.7695L32.9688 91.4961V86.3692C32.9688 85.4382 32.7832 84.7774 32.4121 84.3867C32.0475 83.9961 31.4876 83.8008 30.7324 83.8008C30.179 83.8008 29.6875 83.9343 29.2578 84.2012C28.8346 84.4681 28.4961 84.8327 28.2422 85.2949V91.4961L29.834 91.7695V93H24.7266V91.7695ZM37.6953 83.8594V82.4336H39.3457V81.0957C39.3457 79.9694 39.6387 79.1003 40.2246 78.4883C40.8171 77.8698 41.6406 77.5606 42.6953 77.5606C42.9167 77.5606 43.138 77.5801 43.3594 77.6192C43.5872 77.6517 43.8379 77.7005 44.1113 77.7656L43.877 79.2305C43.7598 79.2044 43.6165 79.1817 43.4473 79.1621C43.2845 79.1426 43.1152 79.1328 42.9395 79.1328C42.373 79.1328 41.9531 79.3021 41.6797 79.6406C41.4062 79.9727 41.2695 80.4577 41.2695 81.0957V82.4336H43.4766V83.8594H41.2695V91.4961L42.8613 91.7695V93H37.7539V91.7695L39.3457 91.4961V83.8594H37.6953ZM49.5801 93.2051C48.1087 93.2051 46.9368 92.7168 46.0645 91.7402C45.1986 90.7572 44.7656 89.4844 44.7656 87.9219V87.4922C44.7656 85.9883 45.2116 84.7383 46.1035 83.7422C47.002 82.7396 48.0632 82.2383 49.2871 82.2383C50.7064 82.2383 51.7806 82.668 52.5098 83.5274C53.2454 84.3867 53.6133 85.5326 53.6133 86.9649V88.166H46.7578L46.7285 88.2149C46.748 89.2305 47.0052 90.0671 47.5 90.7246C47.9948 91.3757 48.6882 91.7012 49.5801 91.7012C50.2311 91.7012 50.8008 91.61 51.2891 91.4277C51.7839 91.2389 52.2103 90.9818 52.5684 90.6563L53.3203 91.9063C52.9427 92.2708 52.4414 92.5801 51.8164 92.834C51.1979 93.0814 50.4525 93.2051 49.5801 93.2051ZM49.2871 83.752C48.6426 83.752 48.0924 84.0254 47.6367 84.5723C47.181 85.1126 46.901 85.793 46.7969 86.6133L46.8164 86.6621H51.6895V86.4082C51.6895 85.653 51.4876 85.0215 51.084 84.5137C50.6803 84.0059 50.0814 83.752 49.2871 83.752ZM60.2637 91.7012C60.9017 91.7012 61.4616 91.5059 61.9434 91.1152C62.4316 90.7181 62.6758 90.2331 62.6758 89.6602H64.4043L64.4238 89.7188C64.4564 90.6302 64.0495 91.4408 63.2031 92.1504C62.3633 92.8535 61.3835 93.2051 60.2637 93.2051C58.7272 93.2051 57.5521 92.7038 56.7383 91.7012C55.931 90.6986 55.5273 89.4388 55.5273 87.9219V87.5117C55.5273 86.0078 55.9342 84.7546 56.748 83.752C57.5618 82.7429 58.7337 82.2383 60.2637 82.2383C61.11 82.2383 61.8685 82.3783 62.5391 82.6582C63.2161 82.9382 63.776 83.3223 64.2188 83.8106L64.3066 86.1543H62.7734L62.3535 84.4942C62.1257 84.2728 61.8327 84.0938 61.4746 83.957C61.1165 83.8203 60.7129 83.752 60.2637 83.752C59.2546 83.752 58.5319 84.1166 58.0957 84.8457C57.666 85.5684 57.4512 86.457 57.4512 87.5117V87.9219C57.4512 89.0026 57.666 89.9043 58.0957 90.627C58.5254 91.3431 59.248 91.7012 60.2637 91.7012ZM69.6582 79.8848V82.4336H71.6602V83.8594H69.6582V90.2754C69.6582 90.7702 69.7591 91.1185 69.9609 91.3203C70.1693 91.5222 70.4427 91.6231 70.7812 91.6231C70.9505 91.6231 71.1393 91.61 71.3477 91.584C71.5625 91.5514 71.7415 91.5189 71.8848 91.4863L72.1484 92.8047C71.9661 92.9219 71.6992 93.0163 71.3477 93.0879C70.9961 93.166 70.6445 93.2051 70.293 93.2051C69.5117 93.2051 68.89 92.9707 68.4277 92.502C67.9655 92.0267 67.7344 91.2845 67.7344 90.2754V83.8594H66.0645V82.4336H67.7344V79.8848H69.6582ZM73.623 91.7695L75.2148 91.4961V83.9473L73.623 83.6738V82.4336H77.1387V91.4961L78.7305 91.7695V93H73.623V91.7695ZM77.1387 79.7285H75.2148V77.7656H77.1387V79.7285ZM80.2148 87.6192C80.2148 86.0567 80.638 84.7708 81.4844 83.7617C82.3307 82.7461 83.4798 82.2383 84.9316 82.2383C86.39 82.2383 87.5423 82.7429 88.3887 83.752C89.2415 84.7611 89.668 86.0501 89.668 87.6192V87.834C89.668 89.4095 89.2448 90.6986 88.3984 91.7012C87.5521 92.7038 86.403 93.2051 84.9512 93.2051C83.4863 93.2051 82.3307 92.7038 81.4844 91.7012C80.638 90.6921 80.2148 89.403 80.2148 87.834V87.6192ZM82.1387 87.834C82.1387 88.9538 82.373 89.8783 82.8418 90.6074C83.3171 91.3366 84.0202 91.7012 84.9512 91.7012C85.8626 91.7012 86.556 91.3366 87.0312 90.6074C87.5065 89.8783 87.7441 88.9538 87.7441 87.834V87.6192C87.7441 86.5124 87.5065 85.5912 87.0312 84.8555C86.556 84.1198 85.8561 83.752 84.9316 83.752C84.0072 83.752 83.3105 84.1198 82.8418 84.8555C82.373 85.5912 82.1387 86.5124 82.1387 87.6192V87.834ZM91.1523 91.7695L92.7441 91.4961V83.9473L91.1523 83.6738V82.4336H94.4629L94.5996 84.0059C94.9512 83.446 95.3906 83.013 95.918 82.707C96.4518 82.3945 97.0573 82.2383 97.7344 82.2383C98.8737 82.2383 99.7559 82.5736 100.381 83.2442C101.006 83.9082 101.318 84.9369 101.318 86.3301V91.4961L102.91 91.7695V93H97.8027V91.7695L99.3945 91.4961V86.3692C99.3945 85.4382 99.209 84.7774 98.8379 84.3867C98.4733 83.9961 97.9134 83.8008 97.1582 83.8008C96.6048 83.8008 96.1133 83.9343 95.6836 84.2012C95.2604 84.4681 94.9219 84.8327 94.668 85.2949V91.4961L96.2598 91.7695V93H91.1523V91.7695ZM113.193 80.0215L111.748 80.2461L113.574 88.0781L113.838 89.8555L113.896 89.8652L114.277 88.0781L116.895 78.7813H118.594L121.221 88.0781L121.611 89.9043H121.67L121.953 88.0781L123.74 80.2461L122.285 80.0215V78.7813H126.807V80.0215L125.664 80.168L122.568 93H120.85L118.037 83.1367L117.783 81.8574H117.725L117.48 83.1367L114.629 93H112.92L109.824 80.168L108.682 80.0215V78.7813H113.193V80.0215ZM134.834 93C134.775 92.7136 134.73 92.4564 134.697 92.2285C134.665 92.0007 134.642 91.7728 134.629 91.5449C134.258 92.0202 133.792 92.4173 133.232 92.7363C132.679 93.0488 132.087 93.2051 131.455 93.2051C130.355 93.2051 129.518 92.9382 128.945 92.4043C128.372 91.8639 128.086 91.1055 128.086 90.1289C128.086 89.1263 128.49 88.3548 129.297 87.8145C130.111 87.2676 131.224 86.9942 132.637 86.9942H134.619V85.7637C134.619 85.1452 134.424 84.6569 134.033 84.2988C133.643 83.9343 133.099 83.752 132.402 83.752C131.921 83.752 131.494 83.8138 131.123 83.9375C130.758 84.0612 130.462 84.2305 130.234 84.4453L130.029 85.5586H128.545V83.5078C129.027 83.1237 129.609 82.8177 130.293 82.5899C130.977 82.3555 131.719 82.2383 132.52 82.2383C133.717 82.2383 134.688 82.5443 135.43 83.1563C136.172 83.7682 136.543 84.6439 136.543 85.7832V90.8711C136.543 91.0078 136.543 91.1413 136.543 91.2715C136.549 91.4017 136.559 91.5319 136.572 91.6621L137.354 91.7695V93H134.834ZM131.738 91.5938C132.376 91.5938 132.959 91.4408 133.486 91.1348C134.014 90.8288 134.391 90.461 134.619 90.0313V88.293H132.568C131.781 88.293 131.156 88.4753 130.693 88.8399C130.238 89.2044 130.01 89.6472 130.01 90.168C130.01 90.6302 130.153 90.985 130.439 91.2324C130.726 91.4733 131.159 91.5938 131.738 91.5938ZM142.314 79.8848V82.4336H144.316V83.8594H142.314V90.2754C142.314 90.7702 142.415 91.1185 142.617 91.3203C142.826 91.5222 143.099 91.6231 143.438 91.6231C143.607 91.6231 143.796 91.61 144.004 91.584C144.219 91.5514 144.398 91.5189 144.541 91.4863L144.805 92.8047C144.622 92.9219 144.355 93.0163 144.004 93.0879C143.652 93.166 143.301 93.2051 142.949 93.2051C142.168 93.2051 141.546 92.9707 141.084 92.502C140.622 92.0267 140.391 91.2845 140.391 90.2754V83.8594H138.721V82.4336H140.391V79.8848H142.314ZM151.104 93.2051C149.632 93.2051 148.46 92.7168 147.588 91.7402C146.722 90.7572 146.289 89.4844 146.289 87.9219V87.4922C146.289 85.9883 146.735 84.7383 147.627 83.7422C148.525 82.7396 149.587 82.2383 150.811 82.2383C152.23 82.2383 153.304 82.668 154.033 83.5274C154.769 84.3867 155.137 85.5326 155.137 86.9649V88.166H148.281L148.252 88.2149C148.271 89.2305 148.529 90.0671 149.023 90.7246C149.518 91.3757 150.212 91.7012 151.104 91.7012C151.755 91.7012 152.324 91.61 152.812 91.4277C153.307 91.2389 153.734 90.9818 154.092 90.6563L154.844 91.9063C154.466 92.2708 153.965 92.5801 153.34 92.834C152.721 93.0814 151.976 93.2051 151.104 93.2051ZM150.811 83.752C150.166 83.752 149.616 84.0254 149.16 84.5723C148.704 85.1126 148.424 85.793 148.32 86.6133L148.34 86.6621H153.213V86.4082C153.213 85.653 153.011 85.0215 152.607 84.5137C152.204 84.0059 151.605 83.752 150.811 83.752ZM157.041 83.6738V82.4336H160.352L160.537 83.9668C160.837 83.4264 161.204 83.0033 161.641 82.6973C162.083 82.3913 162.588 82.2383 163.154 82.2383C163.304 82.2383 163.457 82.2513 163.613 82.2774C163.776 82.2969 163.9 82.3197 163.984 82.3457L163.73 84.1328L162.637 84.0742C162.129 84.0742 161.702 84.1947 161.357 84.4356C161.012 84.6699 160.745 85.002 160.557 85.4317V91.4961L162.148 91.7695V93H157.041V91.7695L158.633 91.4961V83.9473L157.041 83.6738ZM164.941 91.7695L166.533 91.4961V83.9473L164.941 83.6738V82.4336H168.262L168.389 83.8106C168.727 83.3093 169.163 82.9219 169.697 82.6485C170.231 82.375 170.85 82.2383 171.553 82.2383C172.256 82.2383 172.858 82.4011 173.359 82.7266C173.867 83.0521 174.248 83.5404 174.502 84.1914C174.834 83.5925 175.273 83.1172 175.82 82.7656C176.367 82.4141 177.005 82.2383 177.734 82.2383C178.815 82.2383 179.668 82.6094 180.293 83.3516C180.918 84.0873 181.23 85.1973 181.23 86.6817V91.4961L182.822 91.7695V93H177.705V91.7695L179.297 91.4961V86.6621C179.297 85.6205 179.118 84.8848 178.76 84.4551C178.402 84.0189 177.871 83.8008 177.168 83.8008C176.497 83.8008 175.957 84.0384 175.547 84.5137C175.143 84.9824 174.909 85.5749 174.844 86.291V91.4961L176.436 91.7695V93H171.328V91.7695L172.92 91.4961V86.6621C172.92 85.6725 172.734 84.9499 172.363 84.4942C171.999 84.0319 171.468 83.8008 170.771 83.8008C170.186 83.8008 169.704 83.9212 169.326 84.1621C168.949 84.403 168.659 84.7416 168.457 85.1777V91.4961L170.049 91.7695V93H164.941V91.7695ZM188.955 93.2051C187.484 93.2051 186.312 92.7168 185.439 91.7402C184.574 90.7572 184.141 89.4844 184.141 87.9219V87.4922C184.141 85.9883 184.587 84.7383 185.479 83.7422C186.377 82.7396 187.438 82.2383 188.662 82.2383C190.081 82.2383 191.156 82.668 191.885 83.5274C192.62 84.3867 192.988 85.5326 192.988 86.9649V88.166H186.133L186.104 88.2149C186.123 89.2305 186.38 90.0671 186.875 90.7246C187.37 91.3757 188.063 91.7012 188.955 91.7012C189.606 91.7012 190.176 91.61 190.664 91.4277C191.159 91.2389 191.585 90.9818 191.943 90.6563L192.695 91.9063C192.318 92.2708 191.816 92.5801 191.191 92.834C190.573 93.0814 189.827 93.2051 188.955 93.2051ZM188.662 83.752C188.018 83.752 187.467 84.0254 187.012 84.5723C186.556 85.1126 186.276 85.793 186.172 86.6133L186.191 86.6621H191.064V86.4082C191.064 85.653 190.863 85.0215 190.459 84.5137C190.055 84.0059 189.456 83.752 188.662 83.752ZM194.629 79.0059V77.7656H198.145V91.4961L199.736 91.7695V93H194.629V91.7695L196.221 91.4961V79.2793L194.629 79.0059ZM201.016 87.6192C201.016 86.0567 201.439 84.7708 202.285 83.7617C203.132 82.7461 204.281 82.2383 205.732 82.2383C207.191 82.2383 208.343 82.7429 209.189 83.752C210.042 84.7611 210.469 86.0501 210.469 87.6192V87.834C210.469 89.4095 210.046 90.6986 209.199 91.7012C208.353 92.7038 207.204 93.2051 205.752 93.2051C204.287 93.2051 203.132 92.7038 202.285 91.7012C201.439 90.6921 201.016 89.403 201.016 87.834V87.6192ZM202.939 87.834C202.939 88.9538 203.174 89.8783 203.643 90.6074C204.118 91.3366 204.821 91.7012 205.752 91.7012C206.663 91.7012 207.357 91.3366 207.832 90.6074C208.307 89.8783 208.545 88.9538 208.545 87.834V87.6192C208.545 86.5124 208.307 85.5912 207.832 84.8555C207.357 84.1198 206.657 83.752 205.732 83.752C204.808 83.752 204.111 84.1198 203.643 84.8555C203.174 85.5912 202.939 86.5124 202.939 87.6192V87.834ZM211.953 91.7695L213.545 91.4961V83.9473L211.953 83.6738V82.4336H215.264L215.4 84.0059C215.752 83.446 216.191 83.013 216.719 82.707C217.253 82.3945 217.858 82.2383 218.535 82.2383C219.674 82.2383 220.557 82.5736 221.182 83.2442C221.807 83.9082 222.119 84.9369 222.119 86.3301V91.4961L223.711 91.7695V93H218.604V91.7695L220.195 91.4961V86.3692C220.195 85.4382 220.01 84.7774 219.639 84.3867C219.274 83.9961 218.714 83.8008 217.959 83.8008C217.406 83.8008 216.914 83.9343 216.484 84.2012C216.061 84.4681 215.723 84.8327 215.469 85.2949V91.4961L217.061 91.7695V93H211.953V91.7695Z" fill="#324950"/>
<path d="M108.253 49.4664C104.531 49.4771 100.844 48.7495 97.4046 47.3256C93.9655 45.9016 90.843 43.8097 88.2177 41.1709C88.1487 41.1025 88.094 41.0211 88.0566 40.9314C88.0192 40.8417 88 40.7455 88 40.6483C88 40.5511 88.0192 40.4549 88.0566 40.3652C88.094 40.2755 88.1487 40.1941 88.2177 40.1257L127.229 1.11421C127.298 1.04522 127.379 0.990462 127.469 0.953093C127.558 0.915724 127.655 0.896484 127.752 0.896484C127.849 0.896484 127.945 0.915724 128.035 0.953093C128.125 0.990462 128.206 1.04522 128.274 1.11421C133.586 6.42946 136.569 13.636 136.569 21.1499C136.569 28.6639 133.586 35.8704 128.274 41.1856C125.649 43.8194 122.528 45.9071 119.092 47.3284C115.656 48.7497 111.972 49.4763 108.253 49.4664ZM89.7855 40.6336C94.8665 45.4433 101.624 48.0806 108.619 47.9844C115.615 47.8881 122.297 45.066 127.244 40.1183C132.188 35.171 135.008 28.4899 135.103 21.496C135.198 14.502 132.56 7.74695 127.752 2.66731L89.7855 40.6336Z" fill="#324950"/>
<path d="M108.253 45.3959C105.065 45.407 101.907 44.7856 98.9601 43.5676C96.0137 42.3497 93.3382 40.5593 91.0884 38.3002C90.9498 38.1616 90.8719 37.9736 90.8719 37.7776C90.8719 37.5816 90.9498 37.3936 91.0884 37.255C91.227 37.1164 91.415 37.0386 91.611 37.0386C91.807 37.0386 91.995 37.1164 92.1336 37.255C96.4116 41.5251 102.209 43.9233 108.253 43.9233C114.298 43.9233 120.095 41.5251 124.373 37.255C128.643 32.977 131.042 27.1796 131.042 21.1352C131.042 15.0908 128.643 9.29334 124.373 5.01535C124.235 4.87674 124.157 4.68876 124.157 4.49274C124.157 4.29672 124.235 4.10874 124.373 3.97013C124.512 3.83153 124.7 3.75366 124.896 3.75366C125.092 3.75366 125.28 3.83153 125.419 3.97013C129.967 8.52455 132.522 14.6983 132.522 21.1352C132.522 27.5721 129.967 33.7458 125.419 38.3002C123.169 40.5593 120.493 42.3497 117.547 43.5676C114.6 44.7856 111.442 45.407 108.253 45.3959Z" fill="#324950"/>
<path d="M122.025 35.6431C121.928 35.6436 121.832 35.625 121.743 35.5884C121.653 35.5518 121.571 35.4978 121.503 35.4296L119.213 33.1331C119.093 32.9923 119.03 32.8111 119.037 32.6259C119.044 32.4406 119.121 32.2649 119.252 32.1338C119.383 32.0027 119.559 31.9259 119.744 31.9188C119.929 31.9116 120.111 31.9746 120.251 32.0952L122.548 34.3844C122.617 34.4528 122.672 34.5342 122.709 34.6239C122.746 34.7136 122.766 34.8098 122.766 34.907C122.766 35.0042 122.746 35.1004 122.709 35.1901C122.672 35.2798 122.617 35.3612 122.548 35.4296C122.479 35.4978 122.398 35.5518 122.308 35.5884C122.218 35.625 122.122 35.6436 122.025 35.6431Z" fill="#324950"/>
<path d="M125.345 31.2046C125.224 31.204 125.105 31.1736 124.999 31.1162L122.15 29.5926C121.979 29.495 121.853 29.3331 121.8 29.1426C121.748 28.9521 121.773 28.7486 121.871 28.5768C121.968 28.405 122.13 28.279 122.321 28.2266C122.511 28.1741 122.715 28.1995 122.886 28.2971L125.735 29.8502C125.88 29.9282 125.994 30.0522 126.06 30.2026C126.126 30.3529 126.139 30.521 126.099 30.6801C126.058 30.8391 125.965 30.98 125.836 31.0804C125.706 31.1808 125.546 31.2348 125.382 31.234L125.345 31.2046Z" fill="#324950"/>
<path d="M127.288 26.0079C127.237 26.0152 127.185 26.0152 127.134 26.0079L123.961 25.316C123.766 25.275 123.595 25.1582 123.486 24.9912C123.377 24.8241 123.339 24.6206 123.38 24.4254C123.421 24.2302 123.537 24.0592 123.704 23.9502C123.871 23.8411 124.075 23.8029 124.27 23.8439L127.443 24.5358C127.638 24.5563 127.817 24.6535 127.941 24.806C128.064 24.9586 128.122 25.1539 128.101 25.3492C128.081 25.5444 127.984 25.7235 127.831 25.847C127.679 25.9705 127.483 26.0284 127.288 26.0079Z" fill="#324950"/>
<path d="M124.44 20.7156C124.244 20.7225 124.054 20.6515 123.912 20.5183C123.769 20.3851 123.685 20.2006 123.678 20.0053C123.671 19.8101 123.742 19.6202 123.875 19.4773C124.008 19.3344 124.193 19.2503 124.388 19.2435L127.627 19.008C127.723 19.001 127.821 19.0131 127.913 19.0438C128.005 19.0744 128.09 19.1229 128.163 19.1866C128.236 19.2502 128.296 19.3276 128.339 19.4144C128.382 19.5013 128.408 19.5958 128.414 19.6925C128.429 19.8843 128.367 20.0741 128.244 20.2213C128.12 20.3685 127.943 20.4614 127.752 20.4801L124.513 20.7083L124.44 20.7156Z" fill="#324950"/>
<path d="M123.461 16.1962C123.31 16.1967 123.163 16.1511 123.04 16.0656C122.916 15.98 122.821 15.8586 122.769 15.7178C122.702 15.5352 122.71 15.3337 122.792 15.1572C122.873 14.9807 123.021 14.8435 123.203 14.7756L126.28 13.6347C126.463 13.5664 126.666 13.5737 126.844 13.6552C127.022 13.7366 127.161 13.8855 127.229 14.069C127.298 14.2525 127.29 14.4556 127.209 14.6337C127.127 14.8117 126.978 14.9502 126.795 15.0185L123.755 16.152C123.661 16.1867 123.561 16.2017 123.461 16.1962Z" fill="#324950"/>
<path d="M121.245 12.1405C121.131 12.1405 121.018 12.1139 120.916 12.0628C120.814 12.0117 120.725 11.9375 120.656 11.8461C120.539 11.6899 120.489 11.4936 120.516 11.3003C120.544 11.1071 120.647 10.9327 120.803 10.8156L123.402 8.87234C123.558 8.75521 123.754 8.70492 123.947 8.73253C124.141 8.76014 124.315 8.86338 124.432 9.01956C124.549 9.17573 124.6 9.37204 124.572 9.56529C124.544 9.75855 124.441 9.93292 124.285 10.05L121.687 11.9933C121.559 12.0888 121.404 12.1405 121.245 12.1405Z" fill="#324950"/>
<path d="M117.587 38.9701C117.454 38.9697 117.323 38.9332 117.209 38.8645C117.095 38.7958 117.002 38.6975 116.939 38.5799L115.386 35.7314C115.288 35.5596 115.263 35.3561 115.315 35.1656C115.368 34.9751 115.494 34.8132 115.666 34.7156C115.837 34.618 116.041 34.5926 116.231 34.6451C116.422 34.6975 116.584 34.8235 116.681 34.9953L118.234 37.8439C118.326 38.0149 118.347 38.2152 118.292 38.4013C118.237 38.5874 118.11 38.7442 117.94 38.8376C117.837 38.9136 117.714 38.9595 117.587 38.9701Z" fill="#324950"/>
<path d="M112.39 40.9059C112.219 40.9097 112.052 40.8537 111.918 40.7476C111.783 40.6415 111.69 40.4918 111.654 40.3244L110.962 37.152C110.921 36.9568 110.959 36.7533 111.069 36.5862C111.178 36.4192 111.349 36.3023 111.544 36.2613C111.739 36.2203 111.942 36.2586 112.109 36.3676C112.276 36.4767 112.393 36.6476 112.434 36.8428L113.126 40.0153C113.166 40.2045 113.129 40.4017 113.025 40.5642C112.92 40.7267 112.755 40.8415 112.567 40.8838C112.509 40.8998 112.45 40.9072 112.39 40.9059Z" fill="#324950"/>
<path d="M106.862 41.296H106.811C106.714 41.2895 106.619 41.2639 106.533 41.2208C106.446 41.1776 106.368 41.1177 106.305 41.0445C106.241 40.9713 106.193 40.8863 106.162 40.7943C106.131 40.7023 106.119 40.6052 106.126 40.5085L106.362 37.2698C106.369 37.1731 106.395 37.0788 106.439 36.9923C106.483 36.9058 106.543 36.8287 106.616 36.7655C106.69 36.7022 106.775 36.6541 106.867 36.6238C106.959 36.5935 107.056 36.5817 107.153 36.5889C107.25 36.5962 107.344 36.6224 107.43 36.6661C107.517 36.7097 107.594 36.7701 107.657 36.8435C107.721 36.917 107.769 37.0022 107.799 37.0943C107.829 37.1864 107.841 37.2835 107.834 37.3802L107.598 40.6336C107.58 40.8158 107.494 40.9846 107.358 41.1071C107.222 41.2296 107.045 41.297 106.862 41.296Z" fill="#324950"/>
<path d="M101.445 40.1183C101.357 40.1174 101.27 40.1025 101.187 40.0742C101.012 40.0062 100.869 39.8738 100.789 39.7041C100.708 39.5344 100.695 39.3403 100.753 39.1614L101.894 36.1215C101.962 35.9394 102.099 35.7915 102.275 35.7102C102.452 35.6288 102.653 35.6206 102.836 35.6872C102.927 35.7208 103.011 35.7721 103.082 35.838C103.153 35.904 103.21 35.9834 103.251 36.0716C103.291 36.1599 103.314 36.2553 103.317 36.3522C103.32 36.4492 103.304 36.5459 103.27 36.6367L102.137 39.6399C102.084 39.7808 101.99 39.9022 101.866 39.9877C101.742 40.0732 101.595 40.1188 101.445 40.1183Z" fill="#324950"/>
<path d="M96.5795 37.4611C96.4202 37.4611 96.2652 37.4095 96.1378 37.3139C95.9816 37.1968 95.8784 37.0224 95.8508 36.8292C95.8232 36.6359 95.8735 36.4396 95.9906 36.2834L97.9338 33.6851C98.0509 33.529 98.2253 33.4257 98.4186 33.3981C98.6118 33.3705 98.8081 33.4208 98.9643 33.5379C99.1205 33.655 99.2237 33.8294 99.2513 34.0227C99.2789 34.2159 99.2286 34.4122 99.1115 34.5684L97.1683 37.1667C97.0997 37.2581 97.0108 37.3323 96.9086 37.3834C96.8064 37.4345 96.6937 37.4611 96.5795 37.4611Z" fill="#324950"/>
</svg>
