<svg width="61" height="104" viewBox="0 0 61 104" fill="none" xmlns="http://www.w3.org/2000/svg">
<path d="M11.7188 87.1465H10.3613L10 85.1348C9.6875 84.8288 9.30339 84.5781 8.84766 84.3828C8.39193 84.1875 7.84831 84.0898 7.2168 84.0898C5.73893 84.0898 4.60286 84.627 3.80859 85.7012C3.01432 86.7689 2.61719 88.1263 2.61719 89.7734V89.998C2.61719 91.6452 3.00456 93.0091 3.7793 94.0898C4.56055 95.1641 5.64128 95.7012 7.02148 95.7012C7.66602 95.7012 8.25195 95.6003 8.7793 95.3984C9.30664 95.1966 9.71354 94.9492 10 94.6562L10.3613 92.6445H11.7188V95.1738C11.3086 95.7012 10.6934 96.1732 9.87305 96.5898C9.05273 97 8.10221 97.2051 7.02148 97.2051C5.17253 97.2051 3.6556 96.5215 2.4707 95.1543C1.28581 93.7871 0.693359 92.0684 0.693359 89.998V89.793C0.693359 87.7096 1.27604 85.9876 2.44141 84.627C3.60677 83.2598 5.13346 82.5762 7.02148 82.5762C8.10221 82.5762 9.05273 82.7878 9.87305 83.2109C10.6934 83.6276 11.3086 84.0964 11.7188 84.6172V87.1465ZM13.5156 83.0059V81.7656H17.0312V95.4961L18.623 95.7695V97H13.5156V95.7695L15.1074 95.4961V83.2793L13.5156 83.0059ZM19.9023 91.6191C19.9023 90.0566 20.3255 88.7708 21.1719 87.7617C22.0182 86.7461 23.1673 86.2383 24.6191 86.2383C26.0775 86.2383 27.2298 86.7428 28.0762 87.752C28.929 88.7611 29.3555 90.0501 29.3555 91.6191V91.834C29.3555 93.4095 28.9323 94.6986 28.0859 95.7012C27.2396 96.7038 26.0905 97.2051 24.6387 97.2051C23.1738 97.2051 22.0182 96.7038 21.1719 95.7012C20.3255 94.6921 19.9023 93.403 19.9023 91.834V91.6191ZM21.8262 91.834C21.8262 92.9538 22.0605 93.8783 22.5293 94.6074C23.0046 95.3366 23.7077 95.7012 24.6387 95.7012C25.5501 95.7012 26.2435 95.3366 26.7188 94.6074C27.194 93.8783 27.4316 92.9538 27.4316 91.834V91.6191C27.4316 90.5124 27.194 89.5911 26.7188 88.8555C26.2435 88.1198 25.5436 87.752 24.6191 87.752C23.6947 87.752 22.998 88.1198 22.5293 88.8555C22.0605 89.5911 21.8262 90.5124 21.8262 91.6191V91.834ZM34.5898 87.6738L33.3203 87.8691L35.498 93.8848L35.6738 94.6465H35.7324L35.918 93.8848L38.0273 87.8691L36.748 87.6738V86.4336H40.8301V87.6738L39.9609 87.8203L36.416 97H34.9609L31.377 87.8203L30.5078 87.6738V86.4336H34.5898V87.6738ZM46.8262 97.2051C45.3548 97.2051 44.1829 96.7168 43.3105 95.7402C42.4447 94.7572 42.0117 93.4844 42.0117 91.9219V91.4922C42.0117 89.9883 42.4577 88.7383 43.3496 87.7422C44.248 86.7396 45.3092 86.2383 46.5332 86.2383C47.9525 86.2383 49.0267 86.668 49.7559 87.5273C50.4915 88.3867 50.8594 89.5326 50.8594 90.9648V92.166H44.0039L43.9746 92.2148C43.9941 93.2305 44.2513 94.0671 44.7461 94.7246C45.2409 95.3757 45.9342 95.7012 46.8262 95.7012C47.4772 95.7012 48.0469 95.61 48.5352 95.4277C49.0299 95.2389 49.4564 94.9818 49.8145 94.6562L50.5664 95.9062C50.1888 96.2708 49.6875 96.5801 49.0625 96.834C48.444 97.0814 47.6986 97.2051 46.8262 97.2051ZM46.5332 87.752C45.8887 87.752 45.3385 88.0254 44.8828 88.5723C44.4271 89.1126 44.1471 89.793 44.043 90.6133L44.0625 90.6621H48.9355V90.4082C48.9355 89.653 48.7337 89.0215 48.3301 88.5137C47.9264 88.0059 47.3275 87.752 46.5332 87.752ZM52.7637 87.6738V86.4336H56.0742L56.2598 87.9668C56.5592 87.4264 56.9271 87.0033 57.3633 86.6973C57.806 86.3913 58.3105 86.2383 58.877 86.2383C59.0267 86.2383 59.1797 86.2513 59.3359 86.2773C59.4987 86.2969 59.6224 86.3197 59.707 86.3457L59.4531 88.1328L58.3594 88.0742C57.8516 88.0742 57.4251 88.1947 57.0801 88.4355C56.735 88.6699 56.4681 89.002 56.2793 89.4316V95.4961L57.8711 95.7695V97H52.7637V95.7695L54.3555 95.4961V87.9473L52.7637 87.6738Z" fill="#324950"/>
<path d="M7.25315 24.6651C7.52497 25.7229 8.02902 26.7112 8.73077 27.5622C9.43253 28.4131 10.3154 29.1068 11.3189 29.5955C10.7196 30.4479 10.3037 31.409 10.0961 32.4212C9.88845 33.4334 9.8934 34.4759 10.1106 35.4862C10.3278 36.4965 10.7529 37.4538 11.3602 38.3007C11.9676 39.1477 12.7448 39.8668 13.6453 40.4151C14.4843 40.9283 15.4224 41.2698 16.4021 41.4187C17.3819 41.5677 18.3825 41.5209 19.343 41.2813C22.9646 40.3821 26.4328 35.8348 28.8895 31.7709C26.6154 39.1312 21.0717 50.4337 8.40889 50.9215L8.49373 53C21.4381 52.5014 27.5688 41.9378 30.3432 34.1168C30.456 38.3008 31.1676 42.7383 33.3998 44.9562C34.0858 45.6381 34.9064 46.1786 35.8124 46.5456C36.7185 46.9126 37.6914 47.0984 38.6731 47.092L38.7312 47.0917C39.7939 47.0777 40.8427 46.8555 41.8149 46.4385C42.7871 46.0214 43.6625 45.4181 44.3888 44.6646C45.1151 43.9111 45.6772 43.0229 46.0416 42.0534C46.4059 41.0838 46.565 40.0528 46.5092 39.0222C47.569 39.1 48.634 38.9692 49.6405 38.6377C50.647 38.3062 51.5742 37.7807 52.3666 37.0929C53.1589 36.405 53.8002 35.5689 54.2518 34.6346C54.7034 33.7004 54.9562 32.6872 54.9949 31.6557C55.032 30.6936 54.8671 29.7341 54.5101 28.8358C54.1531 27.9376 53.6116 27.1193 52.9184 26.4308C49.9414 23.4734 42.8411 23.0492 37.7018 23.1742C42.2235 20.8777 47.9662 17.2833 49.0862 13.4032C49.5954 11.5106 49.3111 9.49919 48.2956 7.80984C47.2801 6.12048 45.6163 4.89106 43.6689 4.39107C42.5896 4.09116 41.4564 4.02115 40.3467 4.18584C39.237 4.35052 38.177 4.74601 37.2392 5.34525C36.7787 4.41506 36.1296 3.58472 35.3307 2.90402C34.5318 2.22331 33.5996 1.70623 32.5899 1.38379C31.5803 1.06134 30.514 0.940162 29.455 1.02751C28.396 1.11485 27.3661 1.40892 26.4269 1.8921C25.5503 2.34194 24.7772 2.96035 24.1546 3.70967C23.532 4.45899 23.0731 5.32353 22.8056 6.25064C21.665 10.2028 24.7806 16.322 27.4488 20.5782C23.1222 17.8627 16.7469 14.5701 12.5816 15.6033C11.621 15.8418 10.7205 16.2676 9.9348 16.8548C9.14912 17.4421 8.49472 18.1785 8.01146 19.0192C7.01246 20.7339 6.74056 22.759 7.25344 24.6651L7.25315 24.6651ZM51.3867 27.8849C51.8775 28.3739 52.2607 28.9548 52.513 29.5922C52.7652 30.2296 52.8812 30.9102 52.8539 31.5925C52.8053 33.0236 52.1848 34.3801 51.1238 35.3744C50.4038 36.0734 49.5009 36.5682 48.5125 36.8053C47.5242 37.0424 46.4879 37.0127 45.5155 36.7196L43.5896 36.1209L44.1616 38.0045C44.441 38.9553 44.4477 39.9621 44.181 40.9163C43.9142 41.8705 43.3841 42.7358 42.6479 43.4188C41.6001 44.426 40.1895 44.9973 38.7152 45.0115C38.0117 45.0251 37.3128 44.8981 36.6619 44.6384C36.011 44.3788 35.4221 43.9919 34.9316 43.502C31.751 40.342 32.3417 30.1291 32.9416 25.5412C37.6791 25.0641 48.2068 24.7247 51.3867 27.8849ZM24.8684 6.81213C25.059 6.15484 25.3854 5.54211 25.8277 5.01126C26.27 4.48041 26.819 4.04255 27.4412 3.72435C28.2588 3.29758 29.1728 3.07479 30.101 3.07601C30.6344 3.0765 31.1652 3.14799 31.6786 3.28847C32.662 3.54432 33.5548 4.05622 34.2604 4.76886C34.966 5.48151 35.4578 6.36783 35.6825 7.33209L36.1117 9.25122L37.5054 7.82838C38.2136 7.11802 39.1081 6.60899 40.0924 6.35625C41.0768 6.10351 42.1135 6.11665 43.0907 6.39427C44.4913 6.74487 45.6918 7.62036 46.4289 8.82889C47.1661 10.0374 47.3799 11.4805 47.0234 12.8418C45.7953 17.0967 36.3923 21.7066 32.0009 23.4963C29.2065 19.7508 23.6404 11.0671 24.8684 6.81213L24.8684 6.81213ZM9.87439 20.0459C10.2163 19.4492 10.6796 18.9263 11.2363 18.509C11.7929 18.0917 12.4311 17.7888 13.1121 17.6187C13.5199 17.5219 13.9385 17.4749 14.3582 17.479C19.0179 17.479 26.6637 22.3708 30.1248 24.9256C28.182 29.1481 23.2211 38.1712 18.8125 39.2659C18.131 39.4343 17.4213 39.4661 16.7267 39.3595C16.0321 39.253 15.3672 39.0102 14.7723 38.6461C13.5203 37.8898 12.6209 36.6898 12.2646 35.3004C12.0013 34.3454 12.0115 33.3386 12.2943 32.3888C12.5771 31.439 13.1217 30.5822 13.8693 29.911L15.3661 28.5905L13.4001 28.1298C12.4125 27.8895 11.5113 27.3917 10.7938 26.6903C10.0763 25.9889 9.56972 25.1105 9.32875 24.15H9.32844C8.95415 22.765 9.14998 21.293 9.87439 20.0459Z" fill="#324950" stroke="#FFFAFA" stroke-width="0.7"/>
</svg>
