<svg width="206" height="105" viewBox="0 0 206 105" fill="none" xmlns="http://www.w3.org/2000/svg">
<path d="M11.7188 88.1465H10.3613L10 86.1348C9.6875 85.8288 9.30339 85.5781 8.84766 85.3828C8.39193 85.1875 7.84831 85.0898 7.2168 85.0898C5.73893 85.0898 4.60286 85.627 3.80859 86.7012C3.01432 87.7689 2.61719 89.1263 2.61719 90.7734V90.998C2.61719 92.6452 3.00456 94.0091 3.7793 95.0898C4.56055 96.1641 5.64128 96.7012 7.02148 96.7012C7.66602 96.7012 8.25195 96.6003 8.7793 96.3984C9.30664 96.1966 9.71354 95.9492 10 95.6562L10.3613 93.6445H11.7188V96.1738C11.3086 96.7012 10.6934 97.1732 9.87305 97.5898C9.05273 98 8.10221 98.2051 7.02148 98.2051C5.17253 98.2051 3.6556 97.5215 2.4707 96.1543C1.28581 94.7871 0.693359 93.0684 0.693359 90.998V90.793C0.693359 88.7096 1.27604 86.9876 2.44141 85.627C3.60677 84.2598 5.13346 83.5762 7.02148 83.5762C8.10221 83.5762 9.05273 83.7878 9.87305 84.2109C10.6934 84.6276 11.3086 85.0964 11.7188 85.6172V88.1465ZM13.7891 92.6191C13.7891 91.0566 14.2122 89.7708 15.0586 88.7617C15.9049 87.7461 17.054 87.2383 18.5059 87.2383C19.9642 87.2383 21.1165 87.7428 21.9629 88.752C22.8158 89.7611 23.2422 91.0501 23.2422 92.6191V92.834C23.2422 94.4095 22.819 95.6986 21.9727 96.7012C21.1263 97.7038 19.9772 98.2051 18.5254 98.2051C17.0605 98.2051 15.9049 97.7038 15.0586 96.7012C14.2122 95.6921 13.7891 94.403 13.7891 92.834V92.6191ZM15.7129 92.834C15.7129 93.9538 15.9473 94.8783 16.416 95.6074C16.8913 96.3366 17.5944 96.7012 18.5254 96.7012C19.4368 96.7012 20.1302 96.3366 20.6055 95.6074C21.0807 94.8783 21.3184 93.9538 21.3184 92.834V92.6191C21.3184 91.5124 21.0807 90.5911 20.6055 89.8555C20.1302 89.1198 19.4303 88.752 18.5059 88.752C17.5814 88.752 16.8848 89.1198 16.416 89.8555C15.9473 90.5911 15.7129 91.5124 15.7129 92.6191V92.834ZM24.7266 96.7695L26.3184 96.4961V88.9473L24.7266 88.6738V87.4336H28.0371L28.1738 89.0059C28.5254 88.446 28.9648 88.013 29.4922 87.707C30.026 87.3945 30.6315 87.2383 31.3086 87.2383C32.4479 87.2383 33.3301 87.5736 33.9551 88.2441C34.5801 88.9082 34.8926 89.9368 34.8926 91.3301V96.4961L36.4844 96.7695V98H31.377V96.7695L32.9688 96.4961V91.3691C32.9688 90.4382 32.7832 89.7773 32.4121 89.3867C32.0475 88.9961 31.4876 88.8008 30.7324 88.8008C30.179 88.8008 29.6875 88.9342 29.2578 89.2012C28.8346 89.4681 28.4961 89.8327 28.2422 90.2949V96.4961L29.834 96.7695V98H24.7266V96.7695ZM37.6953 88.8594V87.4336H39.3457V86.0957C39.3457 84.9694 39.6387 84.1003 40.2246 83.4883C40.8171 82.8698 41.6406 82.5605 42.6953 82.5605C42.9167 82.5605 43.138 82.5801 43.3594 82.6191C43.5872 82.6517 43.8379 82.7005 44.1113 82.7656L43.877 84.2305C43.7598 84.2044 43.6165 84.1816 43.4473 84.1621C43.2845 84.1426 43.1152 84.1328 42.9395 84.1328C42.373 84.1328 41.9531 84.3021 41.6797 84.6406C41.4062 84.9727 41.2695 85.4577 41.2695 86.0957V87.4336H43.4766V88.8594H41.2695V96.4961L42.8613 96.7695V98H37.7539V96.7695L39.3457 96.4961V88.8594H37.6953ZM49.5801 98.2051C48.1087 98.2051 46.9368 97.7168 46.0645 96.7402C45.1986 95.7572 44.7656 94.4844 44.7656 92.9219V92.4922C44.7656 90.9883 45.2116 89.7383 46.1035 88.7422C47.002 87.7396 48.0632 87.2383 49.2871 87.2383C50.7064 87.2383 51.7806 87.668 52.5098 88.5273C53.2454 89.3867 53.6133 90.5326 53.6133 91.9648V93.166H46.7578L46.7285 93.2148C46.748 94.2305 47.0052 95.0671 47.5 95.7246C47.9948 96.3757 48.6882 96.7012 49.5801 96.7012C50.2311 96.7012 50.8008 96.61 51.2891 96.4277C51.7839 96.2389 52.2103 95.9818 52.5684 95.6562L53.3203 96.9062C52.9427 97.2708 52.4414 97.5801 51.8164 97.834C51.1979 98.0814 50.4525 98.2051 49.5801 98.2051ZM49.2871 88.752C48.6426 88.752 48.0924 89.0254 47.6367 89.5723C47.181 90.1126 46.901 90.793 46.7969 91.6133L46.8164 91.6621H51.6895V91.4082C51.6895 90.653 51.4876 90.0215 51.084 89.5137C50.6803 89.0059 50.0814 88.752 49.2871 88.752ZM60.2637 96.7012C60.9017 96.7012 61.4616 96.5059 61.9434 96.1152C62.4316 95.7181 62.6758 95.2331 62.6758 94.6602H64.4043L64.4238 94.7188C64.4564 95.6302 64.0495 96.4408 63.2031 97.1504C62.3633 97.8535 61.3835 98.2051 60.2637 98.2051C58.7272 98.2051 57.5521 97.7038 56.7383 96.7012C55.931 95.6986 55.5273 94.4388 55.5273 92.9219V92.5117C55.5273 91.0078 55.9342 89.7546 56.748 88.752C57.5618 87.7428 58.7337 87.2383 60.2637 87.2383C61.11 87.2383 61.8685 87.3783 62.5391 87.6582C63.2161 87.9382 63.776 88.3223 64.2188 88.8105L64.3066 91.1543H62.7734L62.3535 89.4941C62.1257 89.2728 61.8327 89.0938 61.4746 88.957C61.1165 88.8203 60.7129 88.752 60.2637 88.752C59.2546 88.752 58.5319 89.1165 58.0957 89.8457C57.666 90.5684 57.4512 91.457 57.4512 92.5117V92.9219C57.4512 94.0026 57.666 94.9043 58.0957 95.627C58.5254 96.3431 59.248 96.7012 60.2637 96.7012ZM69.6582 84.8848V87.4336H71.6602V88.8594H69.6582V95.2754C69.6582 95.7702 69.7591 96.1185 69.9609 96.3203C70.1693 96.5221 70.4427 96.623 70.7812 96.623C70.9505 96.623 71.1393 96.61 71.3477 96.584C71.5625 96.5514 71.7415 96.5189 71.8848 96.4863L72.1484 97.8047C71.9661 97.9219 71.6992 98.0163 71.3477 98.0879C70.9961 98.166 70.6445 98.2051 70.293 98.2051C69.5117 98.2051 68.89 97.9707 68.4277 97.502C67.9655 97.0267 67.7344 96.2845 67.7344 95.2754V88.8594H66.0645V87.4336H67.7344V84.8848H69.6582ZM73.623 96.7695L75.2148 96.4961V88.9473L73.623 88.6738V87.4336H77.1387V96.4961L78.7305 96.7695V98H73.623V96.7695ZM77.1387 84.7285H75.2148V82.7656H77.1387V84.7285ZM80.2148 92.6191C80.2148 91.0566 80.638 89.7708 81.4844 88.7617C82.3307 87.7461 83.4798 87.2383 84.9316 87.2383C86.39 87.2383 87.5423 87.7428 88.3887 88.752C89.2415 89.7611 89.668 91.0501 89.668 92.6191V92.834C89.668 94.4095 89.2448 95.6986 88.3984 96.7012C87.5521 97.7038 86.403 98.2051 84.9512 98.2051C83.4863 98.2051 82.3307 97.7038 81.4844 96.7012C80.638 95.6921 80.2148 94.403 80.2148 92.834V92.6191ZM82.1387 92.834C82.1387 93.9538 82.373 94.8783 82.8418 95.6074C83.3171 96.3366 84.0202 96.7012 84.9512 96.7012C85.8626 96.7012 86.556 96.3366 87.0312 95.6074C87.5065 94.8783 87.7441 93.9538 87.7441 92.834V92.6191C87.7441 91.5124 87.5065 90.5911 87.0312 89.8555C86.556 89.1198 85.8561 88.752 84.9316 88.752C84.0072 88.752 83.3105 89.1198 82.8418 89.8555C82.373 90.5911 82.1387 91.5124 82.1387 92.6191V92.834ZM91.1523 96.7695L92.7441 96.4961V88.9473L91.1523 88.6738V87.4336H94.4629L94.5996 89.0059C94.9512 88.446 95.3906 88.013 95.918 87.707C96.4518 87.3945 97.0573 87.2383 97.7344 87.2383C98.8737 87.2383 99.7559 87.5736 100.381 88.2441C101.006 88.9082 101.318 89.9368 101.318 91.3301V96.4961L102.91 96.7695V98H97.8027V96.7695L99.3945 96.4961V91.3691C99.3945 90.4382 99.209 89.7773 98.8379 89.3867C98.4733 88.9961 97.9134 88.8008 97.1582 88.8008C96.6048 88.8008 96.1133 88.9342 95.6836 89.2012C95.2604 89.4681 94.9219 89.8327 94.668 90.2949V96.4961L96.2598 96.7695V98H91.1523V96.7695ZM119.404 87.9805H117.949L117.588 85.9492C117.295 85.7018 116.904 85.4967 116.416 85.334C115.928 85.1712 115.361 85.0898 114.717 85.0898C113.695 85.0898 112.91 85.3079 112.363 85.7441C111.816 86.1738 111.543 86.737 111.543 87.4336C111.543 88.0521 111.82 88.5697 112.373 88.9863C112.933 89.3965 113.835 89.7578 115.078 90.0703C116.576 90.4414 117.712 90.9883 118.486 91.7109C119.268 92.4336 119.658 93.3288 119.658 94.3965C119.658 95.5423 119.189 96.4635 118.252 97.1602C117.321 97.8568 116.1 98.2051 114.59 98.2051C113.496 98.2051 112.523 98.026 111.67 97.668C110.824 97.3099 110.133 96.8411 109.6 96.2617V93.6152H111.045L111.416 95.6562C111.787 95.9622 112.23 96.2129 112.744 96.4082C113.258 96.6035 113.874 96.7012 114.59 96.7012C115.56 96.7012 116.325 96.4961 116.885 96.0859C117.451 95.6758 117.734 95.1191 117.734 94.416C117.734 93.765 117.49 93.2214 117.002 92.7852C116.514 92.3424 115.651 91.9714 114.414 91.6719C112.91 91.3138 111.735 90.7865 110.889 90.0898C110.042 89.3932 109.619 88.5176 109.619 87.4629C109.619 86.3496 110.091 85.4251 111.035 84.6895C111.979 83.9473 113.206 83.5762 114.717 83.5762C115.713 83.5762 116.618 83.7487 117.432 84.0938C118.252 84.4323 118.91 84.8457 119.404 85.334V87.9805ZM129.033 96.4375C128.701 97.0039 128.271 97.4401 127.744 97.7461C127.223 98.0521 126.621 98.2051 125.938 98.2051C124.792 98.2051 123.896 97.8372 123.252 97.1016C122.607 96.3659 122.285 95.2201 122.285 93.6641V88.9473L121.074 88.6738V87.4336H122.285H124.209V93.6836C124.209 94.8099 124.375 95.5846 124.707 96.0078C125.039 96.431 125.557 96.6426 126.26 96.6426C126.943 96.6426 127.507 96.5059 127.949 96.2324C128.398 95.9525 128.737 95.5586 128.965 95.0508V88.9473L127.549 88.6738V87.4336H128.965H130.889V96.4961L132.1 96.7695V98H129.16L129.033 96.4375ZM133.34 96.7695L134.932 96.4961V88.9473L133.34 88.6738V87.4336H136.65L136.787 89.0059C137.139 88.446 137.578 88.013 138.105 87.707C138.639 87.3945 139.245 87.2383 139.922 87.2383C141.061 87.2383 141.943 87.5736 142.568 88.2441C143.193 88.9082 143.506 89.9368 143.506 91.3301V96.4961L145.098 96.7695V98H139.99V96.7695L141.582 96.4961V91.3691C141.582 90.4382 141.396 89.7773 141.025 89.3867C140.661 88.9961 140.101 88.8008 139.346 88.8008C138.792 88.8008 138.301 88.9342 137.871 89.2012C137.448 89.4681 137.109 89.8327 136.855 90.2949V96.4961L138.447 96.7695V98H133.34V96.7695ZM152.959 96.7695L154.551 96.4961V84.5234C154.173 84.4323 153.786 84.3607 153.389 84.3086C152.992 84.25 152.591 84.2207 152.188 84.2207C151.289 84.2207 150.638 84.4225 150.234 84.8262C149.837 85.2298 149.639 85.8451 149.639 86.6719V87.4336H152.09V88.8594H149.639V96.4961L151.23 96.7695V98H146.123V96.7695L147.715 96.4961V88.8594H146.309V87.4336H147.715V86.6719C147.715 85.3633 148.096 84.3509 148.857 83.6348C149.626 82.9186 150.687 82.5605 152.041 82.5605C152.601 82.5605 153.154 82.6126 153.701 82.7168C154.248 82.821 154.883 82.9707 155.605 83.166H156.475V96.4961L158.066 96.7695V98H152.959V96.7695ZM159.688 92.6191C159.688 91.0566 160.111 89.7708 160.957 88.7617C161.803 87.7461 162.952 87.2383 164.404 87.2383C165.863 87.2383 167.015 87.7428 167.861 88.752C168.714 89.7611 169.141 91.0501 169.141 92.6191V92.834C169.141 94.4095 168.717 95.6986 167.871 96.7012C167.025 97.7038 165.876 98.2051 164.424 98.2051C162.959 98.2051 161.803 97.7038 160.957 96.7012C160.111 95.6921 159.688 94.403 159.688 92.834V92.6191ZM161.611 92.834C161.611 93.9538 161.846 94.8783 162.314 95.6074C162.79 96.3366 163.493 96.7012 164.424 96.7012C165.335 96.7012 166.029 96.3366 166.504 95.6074C166.979 94.8783 167.217 93.9538 167.217 92.834V92.6191C167.217 91.5124 166.979 90.5911 166.504 89.8555C166.029 89.1198 165.329 88.752 164.404 88.752C163.48 88.752 162.783 89.1198 162.314 89.8555C161.846 90.5911 161.611 91.5124 161.611 92.6191V92.834ZM174.658 88.6738L173.447 88.8887L174.824 94.1523L175.049 95.4316H175.107L175.381 94.1523L177.49 87.4336H179.033L181.152 94.1523L181.455 95.5781H181.514L181.797 94.1523L183.096 88.8887L181.865 88.6738V87.4336H185.889V88.6738L184.971 88.8105L182.305 98H180.752L178.701 91.5645L178.262 89.7871L178.203 89.7969L177.793 91.5645L175.781 98H174.229L171.562 88.8105L170.635 88.6738V87.4336H174.658V88.6738ZM192.275 98.2051C190.804 98.2051 189.632 97.7168 188.76 96.7402C187.894 95.7572 187.461 94.4844 187.461 92.9219V92.4922C187.461 90.9883 187.907 89.7383 188.799 88.7422C189.697 87.7396 190.758 87.2383 191.982 87.2383C193.402 87.2383 194.476 87.668 195.205 88.5273C195.941 89.3867 196.309 90.5326 196.309 91.9648V93.166H189.453L189.424 93.2148C189.443 94.2305 189.701 95.0671 190.195 95.7246C190.69 96.3757 191.383 96.7012 192.275 96.7012C192.926 96.7012 193.496 96.61 193.984 96.4277C194.479 96.2389 194.906 95.9818 195.264 95.6562L196.016 96.9062C195.638 97.2708 195.137 97.5801 194.512 97.834C193.893 98.0814 193.148 98.2051 192.275 98.2051ZM191.982 88.752C191.338 88.752 190.788 89.0254 190.332 89.5723C189.876 90.1126 189.596 90.793 189.492 91.6133L189.512 91.6621H194.385V91.4082C194.385 90.653 194.183 90.0215 193.779 89.5137C193.376 89.0059 192.777 88.752 191.982 88.752ZM198.213 88.6738V87.4336H201.523L201.709 88.9668C202.008 88.4264 202.376 88.0033 202.812 87.6973C203.255 87.3913 203.76 87.2383 204.326 87.2383C204.476 87.2383 204.629 87.2513 204.785 87.2773C204.948 87.2969 205.072 87.3197 205.156 87.3457L204.902 89.1328L203.809 89.0742C203.301 89.0742 202.874 89.1947 202.529 89.4355C202.184 89.6699 201.917 90.002 201.729 90.4316V96.4961L203.32 96.7695V98H198.213V96.7695L199.805 96.4961V88.9473L198.213 88.6738Z" fill="#324950"/>
<mask id="path-2-inside-1_1_573" fill="white">
<path d="M112.13 43.0935C110.517 43.0951 108.927 43.4842 107.496 44.2279C106.066 44.9715 104.837 46.0478 103.913 47.3652V39.8342L106.395 37.3676L110.831 39.1962L112.628 34.88L112.665 34.9172H117.609V30.0875L122.087 28.2415L120.195 23.6971L120.146 23.6771L123.465 20.3716L120.074 16.9914L121.912 12.5761L117.576 10.7875L117.609 10.7502V5.82954H112.761L110.906 1.37149L106.341 3.25469L106.321 3.30377L103 0L99.6053 3.37557L95.1688 1.55054L93.372 5.8668L93.3345 5.82954H88.3913V10.6557L83.9128 12.5016L85.8047 17.046L85.854 17.066L82.535 20.3716L85.9261 23.7517L84.0881 28.1679L88.4242 29.9566L88.3913 29.9929V34.9136H93.2387L95.094 39.3716L99.6592 37.4884L99.6793 37.4394L102.087 39.8342V47.3652C101.163 46.0478 99.9342 44.9715 98.5036 44.2279C97.0731 43.4842 95.4834 43.0951 93.8696 43.0935H82V44.0024C82.0029 46.653 83.062 49.1943 84.9449 51.0686C86.8278 52.9429 89.3807 53.9971 92.0435 54H113.957C116.619 53.9971 119.172 52.9429 121.055 51.0686C122.938 49.1943 123.997 46.653 124 44.0024V43.0935H112.13ZM92.0435 52.1822C90.0228 52.1798 88.0737 51.4374 86.5675 50.0965C85.0613 48.7556 84.1034 46.9099 83.8763 44.9112H93.8696C95.8902 44.9137 97.8394 45.6561 99.3455 46.997C100.852 48.3379 101.81 50.1835 102.037 52.1822H92.0435ZM104.397 30.2601C104.166 30.2929 103.958 30.3129 103.753 30.331C103.549 30.3492 103.316 30.3619 103.094 30.3647C103.058 30.3647 103.019 30.3647 102.983 30.3647C102.703 30.3647 102.428 30.3456 102.154 30.3229C101.933 30.301 101.705 30.2729 101.456 30.232L100.959 30.1547L100.488 30.0338C99.5607 29.7955 98.6726 29.4251 97.8513 28.9341C97.7007 28.8432 97.5464 28.7596 97.4012 28.6614L97.2944 28.5833C97.2095 28.5251 97.13 28.4606 97.0479 28.4015C95.9816 27.6149 95.0818 26.6265 94.4 25.4931C93.7111 24.352 93.2593 23.0848 93.0716 21.7667V21.7585C93.0396 21.5304 93.0186 21.3259 93.0013 21.1223C92.9757 20.8796 92.9565 20.6279 92.9565 20.3716C92.9565 20.1153 92.9757 19.8399 92.9967 19.5772C93.0186 19.3427 93.0469 19.0991 93.088 18.8328L93.1638 18.3457C93.1976 18.1812 93.2469 18.0221 93.2889 17.8612C93.5291 16.9398 93.9015 16.0576 94.3946 15.2419C94.4859 15.091 94.5717 14.9365 94.6685 14.7874L94.7013 14.7429C94.7735 14.6384 94.8547 14.5402 94.9305 14.4384C95.7186 13.3777 96.7089 12.4821 97.845 11.8027C98.6672 11.3099 99.557 10.9386 100.486 10.7002L100.979 10.5739C101.161 10.5366 101.344 10.5166 101.526 10.4903L101.597 10.4803C101.823 10.4484 102.027 10.4275 102.228 10.4094C102.471 10.3912 102.715 10.373 102.963 10.3721H102.998C103.284 10.3721 103.566 10.3912 103.845 10.4148C104.065 10.4366 104.29 10.4648 104.536 10.5057L105.032 10.583L105.504 10.7038C106.433 10.9422 107.323 11.3136 108.145 11.8063C108.294 11.8972 108.447 11.9799 108.591 12.079L108.697 12.1571C108.782 12.2153 108.862 12.2798 108.944 12.3389C110.01 13.1255 110.91 14.1139 111.592 15.2473C112.281 16.3884 112.732 17.6556 112.92 18.9737V18.9819C112.952 19.21 112.973 19.4145 112.991 19.6181C113.01 19.8699 113.029 20.1216 113.029 20.3779C113.029 20.6342 113.01 20.9096 112.989 21.1723C112.967 21.4068 112.938 21.6504 112.897 21.9167L112.822 22.4038C112.788 22.5683 112.739 22.7274 112.697 22.8882C112.456 23.8097 112.084 24.6919 111.591 25.5076C111.5 25.6585 111.414 25.813 111.317 25.9621L111.284 26.0066C111.212 26.1111 111.131 26.2093 111.055 26.3111C110.265 27.3725 109.272 28.2682 108.133 28.9468C107.312 29.4378 106.424 29.8082 105.496 30.0466L105.004 30.1729C104.822 30.2102 104.639 30.2301 104.456 30.2565L104.397 30.2601ZM110.831 34.441L109.848 36.8177L107.462 35.8343L106.652 33.8984V31.6089C107.305 31.3985 107.938 31.1318 108.544 30.8118L109.87 32.1315L110.831 34.441ZM115.783 33.0958H113.421L111.417 31.1018L110.687 29.3549C110.702 29.3422 110.715 29.3276 110.73 29.3149C111.236 28.8846 111.704 28.4131 112.131 27.9052L113.484 28.4633L115.783 30.7455V33.0958ZM117.517 28.157L114.521 26.9218L113.484 25.8903C113.807 25.287 114.076 24.6569 114.289 24.0071H116.18L118.796 25.0868L119.7 27.2581L117.517 28.157ZM119.057 22.1893H116.543L114.814 21.4768C114.848 21.1132 114.87 20.7451 114.87 20.3716C114.87 20.0707 114.856 19.7626 114.826 19.4309L116.952 18.5538H119.057L120.883 20.3716L119.057 22.1893ZM117.139 12.5752L119.522 13.555L118.534 15.929L116.589 16.7361H114.289C114.077 16.0863 113.809 15.4562 113.487 14.8529L114.813 13.5332L117.139 12.5752ZM115.783 7.64729V9.99764L113.778 11.9917L112.025 12.7188C112.005 12.697 111.984 12.677 111.965 12.6552C111.538 12.1598 111.07 11.7001 110.567 11.281L111.128 9.93402L113.421 7.64729H115.783ZM109.918 3.74639L110.821 5.92042L109.58 8.90336L108.544 9.93493C107.938 9.61375 107.305 9.34583 106.652 9.13421V7.25193L107.736 4.64799L109.918 3.74639ZM101.174 4.38806L103 2.5703L104.826 4.38806V6.89019L104.109 8.61252C103.744 8.57889 103.379 8.55616 103 8.55616C102.696 8.55616 102.386 8.57071 102.055 8.6007L101.174 6.48302V4.38806ZM95.1679 6.2967L96.1522 3.92544L98.538 4.90884L99.3478 6.84475V9.13421C98.6951 9.34495 98.0621 9.61196 97.456 9.9322L96.1303 8.61252L95.1679 6.2967ZM90.2174 7.64729H92.5785L94.5827 9.64136L95.3131 11.3882C95.2985 11.4009 95.2848 11.4155 95.2702 11.4282C94.7645 11.8585 94.2957 12.3301 93.8687 12.8379L92.511 12.2826L90.2174 9.99764V7.64729ZM88.4826 12.5861L91.4792 13.8213L92.5155 14.8529C92.1928 15.4561 91.9237 16.0862 91.7111 16.7361H89.8202L87.2043 15.6563L86.3004 13.485L88.4826 12.5861ZM86.9432 18.5538H89.4568L91.1861 19.2664C91.1523 19.6299 91.1295 19.998 91.1295 20.3716C91.1295 20.6724 91.1441 20.9805 91.1743 21.3122L89.0478 22.1893H86.9432L85.1171 20.3716L86.9432 18.5538ZM88.8606 28.1679L86.4785 27.1881L87.4664 24.8132L89.4112 24.0071H91.7111C91.9228 24.6568 92.191 25.2869 92.5128 25.8903L91.187 27.2099L88.8606 28.1679ZM90.2174 33.0958V30.7455L92.2215 28.7514L93.9755 28.0243C93.9947 28.0461 94.0157 28.0661 94.0348 28.0879C94.4622 28.5834 94.9297 29.043 95.4327 29.4621L94.8739 30.8127L92.5785 33.0958H90.2174ZM96.0819 36.9967L95.1789 34.8227L96.4197 31.8398L97.456 30.8082C98.062 31.1294 98.695 31.3973 99.3478 31.6089V33.4912L98.2631 36.0951L96.0819 36.9967ZM101.174 33.8529L101.891 32.1306C102.039 32.1442 102.189 32.1452 102.338 32.1533C102.549 32.167 102.764 32.1842 102.97 32.1851L103 32.187C103.147 32.187 103.29 32.1706 103.436 32.1651C103.605 32.1579 103.767 32.1588 103.945 32.1424L104.826 34.2601V36.3505L103 38.1683L101.174 36.3505V33.8529ZM113.957 52.1822H103.963C104.19 50.1835 105.148 48.3379 106.654 46.997C108.161 45.6561 110.11 44.9137 112.13 44.9112H122.124C121.897 46.9099 120.939 48.7556 119.433 50.0965C117.926 51.4374 115.977 52.1798 113.957 52.1822Z"/>
</mask>
<path d="M112.13 43.0935C110.517 43.0951 108.927 43.4842 107.496 44.2279C106.066 44.9715 104.837 46.0478 103.913 47.3652V39.8342L106.395 37.3676L110.831 39.1962L112.628 34.88L112.665 34.9172H117.609V30.0875L122.087 28.2415L120.195 23.6971L120.146 23.6771L123.465 20.3716L120.074 16.9914L121.912 12.5761L117.576 10.7875L117.609 10.7502V5.82954H112.761L110.906 1.37149L106.341 3.25469L106.321 3.30377L103 0L99.6053 3.37557L95.1688 1.55054L93.372 5.8668L93.3345 5.82954H88.3913V10.6557L83.9128 12.5016L85.8047 17.046L85.854 17.066L82.535 20.3716L85.9261 23.7517L84.0881 28.1679L88.4242 29.9566L88.3913 29.9929V34.9136H93.2387L95.094 39.3716L99.6592 37.4884L99.6793 37.4394L102.087 39.8342V47.3652C101.163 46.0478 99.9342 44.9715 98.5036 44.2279C97.0731 43.4842 95.4834 43.0951 93.8696 43.0935H82V44.0024C82.0029 46.653 83.062 49.1943 84.9449 51.0686C86.8278 52.9429 89.3807 53.9971 92.0435 54H113.957C116.619 53.9971 119.172 52.9429 121.055 51.0686C122.938 49.1943 123.997 46.653 124 44.0024V43.0935H112.13ZM92.0435 52.1822C90.0228 52.1798 88.0737 51.4374 86.5675 50.0965C85.0613 48.7556 84.1034 46.9099 83.8763 44.9112H93.8696C95.8902 44.9137 97.8394 45.6561 99.3455 46.997C100.852 48.3379 101.81 50.1835 102.037 52.1822H92.0435ZM104.397 30.2601C104.166 30.2929 103.958 30.3129 103.753 30.331C103.549 30.3492 103.316 30.3619 103.094 30.3647C103.058 30.3647 103.019 30.3647 102.983 30.3647C102.703 30.3647 102.428 30.3456 102.154 30.3229C101.933 30.301 101.705 30.2729 101.456 30.232L100.959 30.1547L100.488 30.0338C99.5607 29.7955 98.6726 29.4251 97.8513 28.9341C97.7007 28.8432 97.5464 28.7596 97.4012 28.6614L97.2944 28.5833C97.2095 28.5251 97.13 28.4606 97.0479 28.4015C95.9816 27.6149 95.0818 26.6265 94.4 25.4931C93.7111 24.352 93.2593 23.0848 93.0716 21.7667V21.7585C93.0396 21.5304 93.0186 21.3259 93.0013 21.1223C92.9757 20.8796 92.9565 20.6279 92.9565 20.3716C92.9565 20.1153 92.9757 19.8399 92.9967 19.5772C93.0186 19.3427 93.0469 19.0991 93.088 18.8328L93.1638 18.3457C93.1976 18.1812 93.2469 18.0221 93.2889 17.8612C93.5291 16.9398 93.9015 16.0576 94.3946 15.2419C94.4859 15.091 94.5717 14.9365 94.6685 14.7874L94.7013 14.7429C94.7735 14.6384 94.8547 14.5402 94.9305 14.4384C95.7186 13.3777 96.7089 12.4821 97.845 11.8027C98.6672 11.3099 99.557 10.9386 100.486 10.7002L100.979 10.5739C101.161 10.5366 101.344 10.5166 101.526 10.4903L101.597 10.4803C101.823 10.4484 102.027 10.4275 102.228 10.4094C102.471 10.3912 102.715 10.373 102.963 10.3721H102.998C103.284 10.3721 103.566 10.3912 103.845 10.4148C104.065 10.4366 104.29 10.4648 104.536 10.5057L105.032 10.583L105.504 10.7038C106.433 10.9422 107.323 11.3136 108.145 11.8063C108.294 11.8972 108.447 11.9799 108.591 12.079L108.697 12.1571C108.782 12.2153 108.862 12.2798 108.944 12.3389C110.01 13.1255 110.91 14.1139 111.592 15.2473C112.281 16.3884 112.732 17.6556 112.92 18.9737V18.9819C112.952 19.21 112.973 19.4145 112.991 19.6181C113.01 19.8699 113.029 20.1216 113.029 20.3779C113.029 20.6342 113.01 20.9096 112.989 21.1723C112.967 21.4068 112.938 21.6504 112.897 21.9167L112.822 22.4038C112.788 22.5683 112.739 22.7274 112.697 22.8882C112.456 23.8097 112.084 24.6919 111.591 25.5076C111.5 25.6585 111.414 25.813 111.317 25.9621L111.284 26.0066C111.212 26.1111 111.131 26.2093 111.055 26.3111C110.265 27.3725 109.272 28.2682 108.133 28.9468C107.312 29.4378 106.424 29.8082 105.496 30.0466L105.004 30.1729C104.822 30.2102 104.639 30.2301 104.456 30.2565L104.397 30.2601ZM110.831 34.441L109.848 36.8177L107.462 35.8343L106.652 33.8984V31.6089C107.305 31.3985 107.938 31.1318 108.544 30.8118L109.87 32.1315L110.831 34.441ZM115.783 33.0958H113.421L111.417 31.1018L110.687 29.3549C110.702 29.3422 110.715 29.3276 110.73 29.3149C111.236 28.8846 111.704 28.4131 112.131 27.9052L113.484 28.4633L115.783 30.7455V33.0958ZM117.517 28.157L114.521 26.9218L113.484 25.8903C113.807 25.287 114.076 24.6569 114.289 24.0071H116.18L118.796 25.0868L119.7 27.2581L117.517 28.157ZM119.057 22.1893H116.543L114.814 21.4768C114.848 21.1132 114.87 20.7451 114.87 20.3716C114.87 20.0707 114.856 19.7626 114.826 19.4309L116.952 18.5538H119.057L120.883 20.3716L119.057 22.1893ZM117.139 12.5752L119.522 13.555L118.534 15.929L116.589 16.7361H114.289C114.077 16.0863 113.809 15.4562 113.487 14.8529L114.813 13.5332L117.139 12.5752ZM115.783 7.64729V9.99764L113.778 11.9917L112.025 12.7188C112.005 12.697 111.984 12.677 111.965 12.6552C111.538 12.1598 111.07 11.7001 110.567 11.281L111.128 9.93402L113.421 7.64729H115.783ZM109.918 3.74639L110.821 5.92042L109.58 8.90336L108.544 9.93493C107.938 9.61375 107.305 9.34583 106.652 9.13421V7.25193L107.736 4.64799L109.918 3.74639ZM101.174 4.38806L103 2.5703L104.826 4.38806V6.89019L104.109 8.61252C103.744 8.57889 103.379 8.55616 103 8.55616C102.696 8.55616 102.386 8.57071 102.055 8.6007L101.174 6.48302V4.38806ZM95.1679 6.2967L96.1522 3.92544L98.538 4.90884L99.3478 6.84475V9.13421C98.6951 9.34495 98.0621 9.61196 97.456 9.9322L96.1303 8.61252L95.1679 6.2967ZM90.2174 7.64729H92.5785L94.5827 9.64136L95.3131 11.3882C95.2985 11.4009 95.2848 11.4155 95.2702 11.4282C94.7645 11.8585 94.2957 12.3301 93.8687 12.8379L92.511 12.2826L90.2174 9.99764V7.64729ZM88.4826 12.5861L91.4792 13.8213L92.5155 14.8529C92.1928 15.4561 91.9237 16.0862 91.7111 16.7361H89.8202L87.2043 15.6563L86.3004 13.485L88.4826 12.5861ZM86.9432 18.5538H89.4568L91.1861 19.2664C91.1523 19.6299 91.1295 19.998 91.1295 20.3716C91.1295 20.6724 91.1441 20.9805 91.1743 21.3122L89.0478 22.1893H86.9432L85.1171 20.3716L86.9432 18.5538ZM88.8606 28.1679L86.4785 27.1881L87.4664 24.8132L89.4112 24.0071H91.7111C91.9228 24.6568 92.191 25.2869 92.5128 25.8903L91.187 27.2099L88.8606 28.1679ZM90.2174 33.0958V30.7455L92.2215 28.7514L93.9755 28.0243C93.9947 28.0461 94.0157 28.0661 94.0348 28.0879C94.4622 28.5834 94.9297 29.043 95.4327 29.4621L94.8739 30.8127L92.5785 33.0958H90.2174ZM96.0819 36.9967L95.1789 34.8227L96.4197 31.8398L97.456 30.8082C98.062 31.1294 98.695 31.3973 99.3478 31.6089V33.4912L98.2631 36.0951L96.0819 36.9967ZM101.174 33.8529L101.891 32.1306C102.039 32.1442 102.189 32.1452 102.338 32.1533C102.549 32.167 102.764 32.1842 102.97 32.1851L103 32.187C103.147 32.187 103.29 32.1706 103.436 32.1651C103.605 32.1579 103.767 32.1588 103.945 32.1424L104.826 34.2601V36.3505L103 38.1683L101.174 36.3505V33.8529ZM113.957 52.1822H103.963C104.19 50.1835 105.148 48.3379 106.654 46.997C108.161 45.6561 110.11 44.9137 112.13 44.9112H122.124C121.897 46.9099 120.939 48.7556 119.433 50.0965C117.926 51.4374 115.977 52.1798 113.957 52.1822Z" fill="#324950" stroke="#EFEDEB" stroke-width="0.6" mask="url(#path-2-inside-1_1_573)"/>
</svg>
