<svg width="72" height="103" viewBox="0 0 72 103" fill="none" xmlns="http://www.w3.org/2000/svg">
<path d="M4.33984 96V94.7695L5.93164 94.4961V83.2363H2.70898L2.42578 85.209H0.980469V81.7812H12.7969V85.209H11.3711L11.0781 83.2363H7.85547V94.4961L9.44727 94.7695V96H4.33984ZM18.1973 96.2051C17.2207 96.2051 16.3776 95.9772 15.668 95.5215C14.9648 95.0592 14.4212 94.4245 14.0371 93.6172C13.653 92.8034 13.4609 91.8757 13.4609 90.834V90.6191C13.4609 89.5775 13.653 88.653 14.0371 87.8457C14.4212 87.0319 14.9648 86.3939 15.668 85.9316C16.3776 85.4694 17.2142 85.2383 18.1777 85.2383C19.1543 85.2383 19.9941 85.4694 20.6973 85.9316C21.4069 86.3939 21.9538 87.0286 22.3379 87.8359C22.722 88.6432 22.9141 89.571 22.9141 90.6191V90.834C22.9141 91.8822 22.722 92.8132 22.3379 93.627C21.9538 94.4342 21.4102 95.0658 20.707 95.5215C20.0039 95.9772 19.1673 96.2051 18.1973 96.2051ZM18.1973 94.7012C19.1087 94.7012 19.8021 94.3366 20.2773 93.6074C20.7526 92.8783 20.9902 91.9538 20.9902 90.834V90.6191C20.9902 89.877 20.8828 89.2161 20.668 88.6367C20.4596 88.0508 20.1471 87.5918 19.7305 87.2598C19.3138 86.9212 18.7962 86.752 18.1777 86.752C17.5658 86.752 17.0514 86.9212 16.6348 87.2598C16.2181 87.5918 15.9056 88.0508 15.6973 88.6367C15.4889 89.2161 15.3848 89.877 15.3848 90.6191V90.834C15.3848 91.9538 15.6191 92.8783 16.0879 93.6074C16.5632 94.3366 17.2663 94.7012 18.1973 94.7012ZM24.3984 96V94.7695L25.9902 94.4961V86.9473L24.3984 86.6738V85.4336H27.7188L27.8457 86.8105C28.1842 86.3092 28.6204 85.9219 29.1543 85.6484C29.6882 85.375 30.3066 85.2383 31.0098 85.2383C31.7129 85.2383 32.3151 85.401 32.8164 85.7266C33.3242 86.0521 33.7051 86.5404 33.959 87.1914C34.291 86.5924 34.7305 86.1172 35.2773 85.7656C35.8242 85.4141 36.4622 85.2383 37.1914 85.2383C38.2721 85.2383 39.125 85.6094 39.75 86.3516C40.375 87.0872 40.6875 88.1973 40.6875 89.6816V94.4961L42.2793 94.7695V96H37.1621V94.7695L38.7539 94.4961V89.6621C38.7539 88.6204 38.5749 87.8848 38.2168 87.4551C37.8587 87.0189 37.3281 86.8008 36.625 86.8008C35.9544 86.8008 35.4141 87.0384 35.0039 87.5137C34.6003 87.9824 34.3659 88.5749 34.3008 89.291V94.4961L35.8926 94.7695V96H30.7852V94.7695L32.377 94.4961V89.6621C32.377 88.6725 32.1914 87.9499 31.8203 87.4941C31.4557 87.0319 30.9251 86.8008 30.2285 86.8008C29.6426 86.8008 29.1608 86.9212 28.7832 87.1621C28.4056 87.403 28.1159 87.7415 27.9141 88.1777V94.4961L29.5059 94.7695V96H24.3984ZM47.1328 96.2051C46.0326 96.2051 45.196 95.9382 44.623 95.4043C44.0501 94.8639 43.7637 94.1055 43.7637 93.1289C43.7637 92.1263 44.1738 91.3223 44.9941 90.7168C45.8145 90.1048 46.9538 89.7988 48.4121 89.7988H50.2969V88.7637C50.2969 88.1257 50.1016 87.6309 49.7109 87.2793C49.3268 86.9277 48.7832 86.752 48.0801 86.752C47.6374 86.752 47.2533 86.8073 46.9277 86.918C46.6022 87.0221 46.306 87.1686 46.0391 87.3574L45.834 88.832H44.3496V86.4102C45.3066 85.6289 46.5599 85.2383 48.1094 85.2383C49.3919 85.2383 50.3978 85.5443 51.127 86.1562C51.8561 86.7682 52.2207 87.6439 52.2207 88.7832V93.8711C52.2207 94.0078 52.2207 94.1413 52.2207 94.2715C52.2272 94.4017 52.237 94.5319 52.25 94.6621L53.2754 94.7695V96H50.5117C50.401 95.4661 50.3327 94.9811 50.3066 94.5449C49.9355 95.0202 49.4701 95.4173 48.9102 95.7363C48.3568 96.0488 47.7643 96.2051 47.1328 96.2051ZM47.416 94.5938C48.054 94.5938 48.6367 94.4408 49.1641 94.1348C49.6914 93.8288 50.069 93.4609 50.2969 93.0312V91.1172H48.3438C47.4583 91.1172 46.7943 91.3288 46.3516 91.752C45.9089 92.1751 45.6875 92.6471 45.6875 93.168C45.6875 94.1185 46.2637 94.5938 47.416 94.5938ZM58.5 96.166C57.7188 96.166 57.097 95.9382 56.6348 95.4824C56.179 95.0202 55.9512 94.2845 55.9512 93.2754V86.8594H54.2812V85.4336H55.9512V82.8848H57.875V85.4336H60.1699V86.8594H57.875V93.2754C57.875 93.7832 57.9759 94.1576 58.1777 94.3984C58.3796 94.6393 58.6497 94.7598 58.9883 94.7598C59.2161 94.7598 59.4701 94.7402 59.75 94.7012C60.0299 94.6556 60.248 94.6165 60.4043 94.584L60.668 95.8438C60.388 95.9284 60.043 96.0033 59.6328 96.0684C59.2292 96.1335 58.8516 96.166 58.5 96.166ZM66.4785 96.2051C65.502 96.2051 64.6589 95.9772 63.9492 95.5215C63.2461 95.0592 62.7025 94.4245 62.3184 93.6172C61.9342 92.8034 61.7422 91.8757 61.7422 90.834V90.6191C61.7422 89.5775 61.9342 88.653 62.3184 87.8457C62.7025 87.0319 63.2461 86.3939 63.9492 85.9316C64.6589 85.4694 65.4954 85.2383 66.459 85.2383C67.4355 85.2383 68.2754 85.4694 68.9785 85.9316C69.6882 86.3939 70.235 87.0286 70.6191 87.8359C71.0033 88.6432 71.1953 89.571 71.1953 90.6191V90.834C71.1953 91.8822 71.0033 92.8132 70.6191 93.627C70.235 94.4342 69.6914 95.0658 68.9883 95.5215C68.2852 95.9772 67.4486 96.2051 66.4785 96.2051ZM66.4785 94.7012C67.39 94.7012 68.0833 94.3366 68.5586 93.6074C69.0339 92.8783 69.2715 91.9538 69.2715 90.834V90.6191C69.2715 89.877 69.1641 89.2161 68.9492 88.6367C68.7409 88.0508 68.4284 87.5918 68.0117 87.2598C67.5951 86.9212 67.0775 86.752 66.459 86.752C65.847 86.752 65.3327 86.9212 64.916 87.2598C64.4993 87.5918 64.1868 88.0508 63.9785 88.6367C63.7702 89.2161 63.666 89.877 63.666 90.6191V90.834C63.666 91.9538 63.9004 92.8783 64.3691 93.6074C64.8444 94.3366 65.5475 94.7012 66.4785 94.7012Z" fill="#324950"/>
<path d="M51.1408 37.8473C51.921 38.3242 52.699 39.0923 53.06 40.3371C53.0968 40.4655 53.1715 40.5718 53.2677 40.6488C53.4221 40.7723 53.6336 40.8202 53.8386 40.7584C54.1721 40.6574 54.3638 40.3054 54.2676 39.9722C53.4972 37.3138 51.3164 36.3549 50.0496 36.0152C50.4342 35.2252 50.859 33.9019 50.681 32.0954C50.2697 27.9256 46.9818 23.4203 40.91 18.7246C26.9258 7.88886 26.9973 2.80284 27.6758 1.11633C27.8061 0.792135 27.6499 0.424953 27.3293 0.298947C27.0074 0.17192 26.6408 0.331771 26.51 0.655626C25.7262 2.60098 25.8808 6.65645 33.2665 13.8355C31.1206 13.3762 28.2247 13.4807 25.6357 16.0068C25.2759 15.2401 24.4461 14.2872 22.6127 13.3529C22.3044 13.1958 21.9247 13.3205 21.7649 13.631C21.605 13.9415 21.7225 14.3221 22.0326 14.4778C23.0707 15.0065 23.6931 15.5088 24.069 15.9354C20.7784 14.3692 16.6953 15.223 14.2964 18.2203C11.5035 21.7099 12.0382 26.7946 15.4877 29.5555C17.4507 31.1265 19.9397 31.6071 22.2367 31.0903C22.2353 33.4443 23.2508 35.7686 25.2142 37.34C28.6634 40.1006 33.7416 39.5082 36.5345 36.0186C38.6638 33.3582 38.8539 29.7735 37.2995 26.9953C37.6988 27.3072 38.0933 27.6914 38.4367 28.1717C38.6355 28.4508 39.0304 28.5155 39.3135 28.31C39.5966 28.1052 39.6624 27.711 39.4614 27.4294C38.3783 25.9123 36.9148 25.1681 35.9805 24.8235C36.7004 23.9284 38.1587 22.429 40.0568 22.1019C41.4996 21.8538 42.9791 22.327 44.4424 23.5207C48.0976 27.2531 49.2136 30.1937 49.4237 32.1763C49.5708 33.5627 49.3047 34.5902 49.0316 35.24C48.1547 33.9607 46.391 31.872 44.3129 32.091C43.9672 32.1278 43.7131 32.4384 43.7455 32.7841C43.7785 33.1318 44.0857 33.3819 44.4305 33.3451C45.2705 33.2563 46.146 33.8574 46.8821 34.6083C43.8015 33.6366 40.2812 34.5955 38.1237 37.2912C35.3308 40.7808 35.8654 45.8655 39.315 48.6263C42.7657 51.3867 47.844 50.7943 50.6369 47.3047C52.8791 44.5032 52.973 40.6769 51.1408 37.8473ZM16.2796 28.5669C13.369 26.2373 12.9181 21.9469 15.2747 19.0025C16.8866 16.9885 19.4009 16.119 21.7604 16.5156C20.9831 16.8092 20.2347 17.3808 19.6399 18.3873C19.4782 18.6617 19.5444 19.007 19.7835 19.1983C19.8069 19.2171 19.8316 19.2341 19.8589 19.2488C20.157 19.4239 20.5425 19.3215 20.7209 19.0202C20.8687 18.7693 22.2124 16.6692 24.7148 17.8523C24.9313 18.5374 25.4628 20.7348 23.9871 22.2909C23.7461 22.5449 23.7541 22.9439 24.0047 23.1818C24.0173 23.1948 24.0314 23.206 24.0454 23.2172C24.2964 23.4181 24.6652 23.3949 24.8936 23.1541C26.0006 21.9871 26.2691 20.5993 26.2435 19.4507C27.0387 20.6709 27.4054 22.1117 27.3234 23.5463C26.0727 24.054 24.9273 24.8748 24.0232 26.0044C23.1191 27.1341 22.5693 28.4314 22.3486 29.7621C20.3108 30.3438 18.044 29.979 16.2796 28.5669ZM35.5583 35.2365C33.2017 38.1809 28.9168 38.681 26.0061 36.3514C23.0954 34.0219 22.6446 29.7315 25.0011 26.7871C26.4966 24.9185 28.7679 24.038 30.9724 24.2358C30.4271 24.4157 29.9162 24.7255 29.5094 25.2337C29.2907 25.507 29.3331 25.9031 29.6027 26.1189C29.8724 26.3347 30.2685 26.2889 30.4869 26.016C31.4361 24.83 33.5992 25.3907 34.3991 25.6511C34.5206 26.3965 34.7127 28.3032 33.8155 29.7031C33.6398 29.9776 33.7015 30.3355 33.9482 30.533C33.9652 30.5466 33.9834 30.5597 34.0026 30.5723C34.2937 30.7587 34.6834 30.6702 34.8722 30.3759C35.5782 29.2741 35.759 27.9792 35.7599 26.9372C37.5292 29.3501 37.536 32.7655 35.5583 35.2365ZM39.8501 20.8605C37.668 21.2399 36.036 22.7986 35.1536 23.8532C34.7167 22.8427 33.8971 21.4821 32.5434 21.0715C32.2122 20.9709 31.8594 21.1588 31.7554 21.4928C31.6513 21.826 31.8343 22.1772 32.1667 22.278C32.7844 22.4653 33.2762 23.034 33.6384 23.6486C32.0393 22.9307 30.268 22.7697 28.596 23.1464C28.5964 21.3917 28.0322 19.6545 26.9311 18.2324C27.561 18.4436 28.2111 18.8502 28.5637 19.633C28.7067 19.9486 29.0788 20.0862 29.3953 19.9392C29.7123 19.7926 29.8529 19.418 29.711 19.1018C29.0186 17.5684 27.6344 17.0275 26.5744 16.8428C30.6268 12.9774 35.4296 15.9177 35.7582 16.127C37.0486 17.2586 38.4973 18.4548 40.1365 19.725C40.6174 20.098 41.0708 20.4644 41.505 20.826C40.9539 20.7605 40.4023 20.7652 39.8501 20.8605ZM40.1077 47.6377C37.1966 45.3078 36.7458 41.0173 39.1023 38.073C40.8055 35.9449 43.5154 35.1006 45.9862 35.6718C45.3127 35.807 44.6527 36.0885 44.1396 36.6232C43.8974 36.8762 43.903 37.2746 44.1515 37.5152C44.4117 37.7637 44.7993 37.7442 45.0413 37.4924C45.8883 36.6093 47.6632 36.7859 48.5683 36.9907C48.9309 38.0949 49.4299 40.3695 48.5515 41.3763C48.322 41.6396 48.3459 42.0378 48.6063 42.2652C48.6139 42.2714 48.6207 42.2768 48.628 42.2826C48.8878 42.4906 49.2697 42.4573 49.4936 42.2002C50.2782 41.3018 50.3793 39.9941 50.2568 38.8271C51.6195 41.1822 51.4782 44.2517 49.6607 46.5226C47.3034 49.4671 43.0184 49.9672 40.1077 47.6377Z" fill="#324950"/>
</svg>
