<svg width="125" height="103" viewBox="0 0 125 103" fill="none" xmlns="http://www.w3.org/2000/svg">
<path d="M0.693359 96V94.7695L2.28516 94.4961V83.2949L0.693359 83.0215V81.7812H11.6113V85.1992H9.96094L9.80469 83.2949H4.20898V87.8945H9.64844V89.4082H4.20898V94.4961H9.92188L10.0781 92.5918H11.7188V96H0.693359ZM13.4375 90.9121C13.4375 89.2129 13.8086 87.8424 14.5508 86.8008C15.293 85.7591 16.3184 85.2383 17.627 85.2383C18.291 85.2383 18.8737 85.3685 19.375 85.6289C19.8763 85.8893 20.2962 86.2669 20.6348 86.7617L20.8105 85.4336H22.4316V95.8633C22.4316 97.2305 22.0508 98.3047 21.2891 99.0859C20.5273 99.8737 19.4434 100.268 18.0371 100.268C17.5293 100.268 16.9792 100.196 16.3867 100.053C15.7943 99.916 15.2734 99.7272 14.8242 99.4863L15.3223 97.9922C15.6803 98.181 16.1035 98.3372 16.5918 98.4609C17.0801 98.5846 17.5553 98.6465 18.0176 98.6465C18.877 98.6465 19.5052 98.4056 19.9023 97.9238C20.306 97.4421 20.5078 96.7552 20.5078 95.8633V94.8574C20.1628 95.3001 19.7493 95.6354 19.2676 95.8633C18.7858 96.0911 18.2324 96.2051 17.6074 96.2051C16.3118 96.2051 15.293 95.7363 14.5508 94.7988C13.8086 93.8613 13.4375 92.6341 13.4375 91.1172V90.9121ZM15.3613 91.1172C15.3613 92.1784 15.5859 93.0312 16.0352 93.6758C16.4844 94.3203 17.168 94.6426 18.0859 94.6426C18.6654 94.6426 19.1504 94.5124 19.541 94.252C19.9316 93.985 20.2539 93.6107 20.5078 93.1289V88.2656C20.2604 87.8164 19.9382 87.4616 19.541 87.2012C19.1439 86.9342 18.6654 86.8008 18.1055 86.8008C17.1875 86.8008 16.5007 87.1849 16.0449 87.9531C15.5892 88.7214 15.3613 89.7077 15.3613 90.9121V91.1172ZM24.7656 90.9121C24.7656 89.2129 25.1367 87.8424 25.8789 86.8008C26.6211 85.7591 27.6465 85.2383 28.9551 85.2383C29.6191 85.2383 30.2018 85.3685 30.7031 85.6289C31.2044 85.8893 31.6243 86.2669 31.9629 86.7617L32.1387 85.4336H33.7598V95.8633C33.7598 97.2305 33.3789 98.3047 32.6172 99.0859C31.8555 99.8737 30.7715 100.268 29.3652 100.268C28.8574 100.268 28.3073 100.196 27.7148 100.053C27.1224 99.916 26.6016 99.7272 26.1523 99.4863L26.6504 97.9922C27.0085 98.181 27.4316 98.3372 27.9199 98.4609C28.4082 98.5846 28.8835 98.6465 29.3457 98.6465C30.2051 98.6465 30.8333 98.4056 31.2305 97.9238C31.6341 97.4421 31.8359 96.7552 31.8359 95.8633V94.8574C31.4909 95.3001 31.0775 95.6354 30.5957 95.8633C30.1139 96.0911 29.5605 96.2051 28.9355 96.2051C27.64 96.2051 26.6211 95.7363 25.8789 94.7988C25.1367 93.8613 24.7656 92.6341 24.7656 91.1172V90.9121ZM26.6895 91.1172C26.6895 92.1784 26.9141 93.0312 27.3633 93.6758C27.8125 94.3203 28.4961 94.6426 29.4141 94.6426C29.9935 94.6426 30.4785 94.5124 30.8691 94.252C31.2598 93.985 31.582 93.6107 31.8359 93.1289V88.2656C31.5885 87.8164 31.2663 87.4616 30.8691 87.2012C30.472 86.9342 29.9935 86.8008 29.4336 86.8008C28.5156 86.8008 27.8288 87.1849 27.373 87.9531C26.9173 88.7214 26.6895 89.7077 26.6895 90.9121V91.1172ZM35.8496 98.8223L37.4414 98.5488V86.9473L35.8496 86.6738V85.4336H39.0918L39.2676 86.7227C39.6191 86.2409 40.0456 85.873 40.5469 85.6191C41.0547 85.3652 41.6406 85.2383 42.3047 85.2383C43.6133 85.2383 44.6289 85.7591 45.3516 86.8008C46.0807 87.8359 46.4453 89.2064 46.4453 90.9121V91.1172C46.4453 92.6406 46.0807 93.8711 45.3516 94.8086C44.6224 95.7396 43.6165 96.2051 42.334 96.2051C41.6829 96.2051 41.11 96.0977 40.6152 95.8828C40.127 95.6615 39.7103 95.3359 39.3652 94.9062V98.5488L40.957 98.8223V100.062H35.8496V98.8223ZM44.5117 90.9121C44.5117 89.7077 44.2773 88.7214 43.8086 87.9531C43.3398 87.1849 42.6432 86.8008 41.7188 86.8008C41.1719 86.8008 40.7031 86.9245 40.3125 87.1719C39.9219 87.4193 39.6061 87.7578 39.3652 88.1875V93.334C39.6061 93.7702 39.9186 94.1087 40.3027 94.3496C40.6934 94.584 41.1719 94.7012 41.7383 94.7012C42.6497 94.7012 43.3398 94.3691 43.8086 93.7051C44.2773 93.041 44.5117 92.1784 44.5117 91.1172V90.9121ZM47.832 82.0059V80.7656H51.3477V94.4961L52.9395 94.7695V96H47.832V94.7695L49.4238 94.4961V82.2793L47.832 82.0059ZM61.2988 96C61.2402 95.7135 61.1947 95.4564 61.1621 95.2285C61.1296 95.0007 61.1068 94.7728 61.0938 94.5449C60.7227 95.0202 60.2572 95.4173 59.6973 95.7363C59.1439 96.0488 58.5514 96.2051 57.9199 96.2051C56.8197 96.2051 55.9831 95.9382 55.4102 95.4043C54.8372 94.8639 54.5508 94.1055 54.5508 93.1289C54.5508 92.1263 54.9544 91.3548 55.7617 90.8145C56.5755 90.2676 57.6888 89.9941 59.1016 89.9941H61.084V88.7637C61.084 88.1452 60.8887 87.6569 60.498 87.2988C60.1074 86.9342 59.5638 86.752 58.8672 86.752C58.3854 86.752 57.959 86.8138 57.5879 86.9375C57.2233 87.0612 56.9271 87.2305 56.6992 87.4453L56.4941 88.5586H55.0098V86.5078C55.4915 86.1237 56.0742 85.8177 56.7578 85.5898C57.4414 85.3555 58.1836 85.2383 58.9844 85.2383C60.1823 85.2383 61.1523 85.5443 61.8945 86.1562C62.6367 86.7682 63.0078 87.6439 63.0078 88.7832V93.8711C63.0078 94.0078 63.0078 94.1413 63.0078 94.2715C63.0143 94.4017 63.0241 94.5319 63.0371 94.6621L63.8184 94.7695V96H61.2988ZM58.2031 94.5938C58.8411 94.5938 59.4238 94.4408 59.9512 94.1348C60.4785 93.8288 60.8561 93.4609 61.084 93.0312V91.293H59.0332C58.2454 91.293 57.6204 91.4753 57.1582 91.8398C56.7025 92.2044 56.4746 92.6471 56.4746 93.168C56.4746 93.6302 56.6178 93.985 56.9043 94.2324C57.1908 94.4733 57.6237 94.5938 58.2031 94.5938ZM65.1367 94.7695L66.7285 94.4961V86.9473L65.1367 86.6738V85.4336H68.4473L68.584 87.0059C68.9355 86.446 69.375 86.013 69.9023 85.707C70.4362 85.3945 71.0417 85.2383 71.7188 85.2383C72.8581 85.2383 73.7402 85.5736 74.3652 86.2441C74.9902 86.9082 75.3027 87.9368 75.3027 89.3301V94.4961L76.8945 94.7695V96H71.7871V94.7695L73.3789 94.4961V89.3691C73.3789 88.4382 73.1934 87.7773 72.8223 87.3867C72.4577 86.9961 71.8978 86.8008 71.1426 86.8008C70.5892 86.8008 70.0977 86.9342 69.668 87.2012C69.2448 87.4681 68.9062 87.8327 68.6523 88.2949V94.4961L70.2441 94.7695V96H65.1367V94.7695ZM81.6504 82.8848V85.4336H83.6523V86.8594H81.6504V93.2754C81.6504 93.7702 81.7513 94.1185 81.9531 94.3203C82.1615 94.5221 82.4349 94.623 82.7734 94.623C82.9427 94.623 83.1315 94.61 83.3398 94.584C83.5547 94.5514 83.7337 94.5189 83.877 94.4863L84.1406 95.8047C83.9583 95.9219 83.6914 96.0163 83.3398 96.0879C82.9883 96.166 82.6367 96.2051 82.2852 96.2051C81.5039 96.2051 80.8822 95.9707 80.4199 95.502C79.9577 95.0267 79.7266 94.2845 79.7266 93.2754V86.8594H78.0566V85.4336H79.7266V82.8848H81.6504ZM96.9531 81.7812C98.4701 81.7812 99.6484 82.1719 100.488 82.9531C101.335 83.7344 101.758 84.763 101.758 86.0391C101.758 87.3281 101.335 88.36 100.488 89.1348C99.6484 89.9095 98.4701 90.2969 96.9531 90.2969H93.9355V94.4961L95.5273 94.7695V96H90.4199V94.7695L92.0117 94.4961V83.2949L90.4199 83.0215V81.7812H92.0117H96.9531ZM93.9355 88.793H96.9531C97.9167 88.793 98.6361 88.5358 99.1113 88.0215C99.5931 87.5007 99.834 86.8464 99.834 86.0586C99.834 85.2708 99.5931 84.6133 99.1113 84.0859C98.6361 83.5586 97.9167 83.2949 96.9531 83.2949H93.9355V88.793ZM104.072 97.2207H102.441L108.379 81.7812H110L104.072 97.2207ZM123.848 88.998C123.848 91.0684 123.252 92.7871 122.061 94.1543C120.876 95.5215 119.339 96.2051 117.451 96.2051C115.615 96.2051 114.124 95.5215 112.979 94.1543C111.833 92.7871 111.26 91.0684 111.26 88.998V88.793C111.26 86.7292 111.833 85.0104 112.979 83.6367C114.124 82.263 115.615 81.5762 117.451 81.5762C119.339 81.5762 120.876 82.263 122.061 83.6367C123.252 85.0104 123.848 86.7292 123.848 88.793V88.998ZM121.924 88.7734C121.924 87.1198 121.527 85.7721 120.732 84.7305C119.945 83.6823 118.851 83.1582 117.451 83.1582C116.11 83.1582 115.062 83.6823 114.307 84.7305C113.558 85.7786 113.184 87.1263 113.184 88.7734V88.998C113.184 90.6647 113.558 92.0221 114.307 93.0703C115.062 94.112 116.11 94.6328 117.451 94.6328C118.87 94.6328 119.971 94.112 120.752 93.0703C121.533 92.0286 121.924 90.6712 121.924 88.998V88.7734Z" fill="#324950"/>
<path d="M48.8005 46.2752C47.1819 46.2185 45.7011 45.6251 44.4492 44.5026C41.8978 42.2115 41.767 39.73 42.1084 38.0498C42.8235 34.5218 46.3209 31.0487 50.6133 29.6038C56.3647 27.6673 58.7625 20.2925 58.7855 20.2176L60.0493 20.6283C59.9446 20.958 57.4138 28.7309 51.0301 30.8797C47.2283 32.1598 44.0231 35.2885 43.4086 38.3192C43.0168 40.2571 43.6634 41.9988 45.3297 43.4954C47.6904 45.6148 50.4702 45.0137 52.3806 44.1382C58.0753 41.5306 64.2134 32.691 64.2022 22.9568L65.5292 22.9533C65.5408 33.2252 58.997 42.5835 52.9262 45.363C51.4961 46.0189 50.103 46.3209 48.8005 46.2752Z" fill="#324950"/>
<path d="M66.4594 23.8919L65.9252 23.8213C60.5231 23.1131 57.8686 19.9954 57.7591 19.8621L57.5401 19.5993L57.6215 19.2651C57.9357 17.9911 58.9805 17.5581 59.8688 17.576C60.9919 16.8975 62.0102 16.5692 62.8974 16.6003C65.7181 16.6991 66.2329 20.072 66.3204 21.0444C66.9312 21.818 66.8173 22.8502 66.6379 23.3748L66.4594 23.8919ZM59.0419 19.273C59.7566 19.9684 61.8902 21.7552 65.4516 22.3878C65.4408 22.1873 65.383 21.9701 65.22 21.8137L65.0249 21.6255L65.0135 21.3525C65.0122 21.3187 64.8504 18.0144 62.851 17.9444C62.1837 17.921 61.3534 18.219 60.3856 18.8317L60.1761 18.9638L59.9313 18.9258L59.9264 18.9256C59.4175 18.9078 59.1675 19.0885 59.0419 19.273Z" fill="#324950"/>
<path d="M64.2829 17.483L62.9614 17.3792C62.9747 17.159 63.1998 15.1689 66.7098 13.0976L67.3772 14.2603C64.4942 15.9597 64.2852 17.4681 64.2829 17.483Z" fill="#324950"/>
<path d="M70.1434 52.3713L66.5543 52.2455L68.3748 0.27742L71.9638 0.403146L70.1434 52.3713ZM67.928 50.948L68.8651 50.9808L70.5915 1.70014L69.6543 1.66731L67.928 50.948Z" fill="#324950"/>
<path d="M67.8159 16.6175C67.8009 16.5345 67.4421 14.5559 65.2402 13.17C62.4625 11.4193 57.9329 11.4107 52.1418 13.1438L51.7668 11.8544C58.048 9.97524 62.8322 10.0422 65.982 12.0522C68.6811 13.7739 69.108 16.2926 69.1258 16.3989L67.8167 16.6132L68.4713 16.5061L67.8159 16.6175Z" fill="#324950"/>
<path d="M34.9382 23.3612C33.1205 23.2975 31.9421 22.7216 31.4356 21.6476C30.4605 19.5799 32.5574 16.5674 32.9874 15.9847C36.8475 11.263 43.1555 5.72725 51.3885 6.01566C55.8143 6.17069 60.3471 8.00722 64.8617 11.4733L65.2527 11.7753L65.0809 12.2427C64.952 12.5946 63.6269 15.6216 56.1684 15.8725C55.5511 17.593 52.9304 23.1266 44.8368 23.0857C41.8373 23.0701 38.7798 23.1618 35.7495 23.3571C35.4487 23.3684 35.184 23.3698 34.9382 23.3612ZM51.3408 7.36031C43.6469 7.09079 37.6803 12.354 34.0286 16.8172C33.3234 17.7717 32.0942 19.9286 32.6324 21.0667C32.9557 21.7522 33.9584 22.0787 35.6824 22.0153C38.7282 21.8187 41.8172 21.7262 44.845 21.7409C53.3383 21.7846 55.0232 15.1226 55.0385 15.0556L55.1599 14.549L55.6735 14.5401C60.953 14.4499 62.9147 12.9203 63.5609 12.1706C59.4365 9.11779 55.3266 7.49993 51.3408 7.36031Z" fill="#324950"/>
<path d="M67.4629 32.242C66.394 31.1472 65.8978 29.9898 65.9887 28.8024C66.131 26.9595 67.6679 25.7921 67.7344 25.7432C70.3846 23.8762 71.7571 22.084 71.7177 20.5487C71.6797 19.0972 70.3614 18.2513 70.3488 18.2433L71.0398 17.0951C71.1183 17.1435 72.9781 18.311 73.0447 20.4945C73.1052 22.5377 71.5782 24.6722 68.5043 26.8363C68.5043 26.8363 67.4014 27.6931 67.3118 28.915C67.2537 29.6928 67.6229 30.4936 68.4054 31.2952L67.4629 32.242Z" fill="#324950"/>
<path d="M66.9203 47.7317C65.8513 46.638 65.3551 45.4807 65.4461 44.2933C65.5884 42.4504 67.1253 41.2824 67.1918 41.2328C69.842 39.3659 71.2144 37.5743 71.175 36.0396C71.1395 34.5882 69.8188 33.7415 69.8061 33.733L70.4972 32.5847C70.5757 32.6337 72.4354 33.8013 72.5021 35.9848C72.5625 38.0286 71.0356 40.1625 67.9616 42.3266C67.9616 42.3266 66.8563 43.1827 66.7691 44.4059C66.711 45.183 67.0802 45.9839 67.8628 46.7848L66.9203 47.7317Z" fill="#324950"/>
<path d="M71.4883 12.8167L70.2591 12.3152C70.3469 12.097 72.453 6.97367 78.7957 5.4856L79.0946 6.79612C73.415 8.12733 71.5078 12.7698 71.4883 12.8167Z" fill="#324950"/>
<path d="M72.915 21.2579L71.8232 20.4961C71.9351 20.3306 74.6178 16.4456 79.8025 17.1969L79.6139 18.5279C75.2824 17.9021 73.0099 21.1205 72.915 21.2579Z" fill="#324950"/>
<path d="M87.8431 24.172L87.7929 24.0371C87.1521 22.5714 83.8244 21.9402 80.9211 21.8385C80.5607 21.8258 80.341 21.8275 80.333 21.8273C79.8843 21.9028 79.3545 21.9356 78.8517 21.9179C75.3292 21.7945 74.0353 19.3011 73.9817 19.1948L73.7683 18.7702L74.0944 18.4246C76.2511 16.1345 78.4151 15.0103 80.5273 15.0843C85.5618 15.2607 88.4763 22.1219 89.0218 23.5261C89.0479 23.592 89.0739 23.6599 89.0974 23.7288L87.8431 24.172ZM80.9688 20.4945C82.5301 20.5491 84.7991 20.7612 86.5634 21.4665C85.3277 19.2852 83.2307 16.5241 80.4808 16.4278C78.877 16.3716 77.1777 17.2257 75.4264 18.9684C75.8737 19.5281 76.9302 20.5043 78.8994 20.5733C79.3215 20.5881 79.7679 20.5599 80.2318 20.4899C80.3258 20.4826 80.5671 20.4804 80.9688 20.4945Z" fill="#324950"/>
<path d="M49.4195 42.5156L48.8977 41.2798C49.5586 40.9928 50.1944 40.683 50.7919 40.3557L51.4217 41.5396C50.7902 41.8845 50.1143 42.2129 49.4195 42.5156Z" fill="#324950"/>
<path d="M54.1508 39.7967L53.3664 38.7131C60.3356 33.5356 61.342 26.062 61.352 25.9879L62.6694 26.1548C62.6264 26.4841 61.5784 34.2808 54.1508 39.7967Z" fill="#324950"/>
</svg>
