<svg width="216" height="109" viewBox="0 0 216 109" fill="none" xmlns="http://www.w3.org/2000/svg">
<path d="M13.3594 94.998C13.3594 97.0684 12.7637 98.7871 11.5723 100.154C10.3874 101.521 8.85091 102.205 6.96289 102.205C5.12695 102.205 3.63607 101.521 2.49023 100.154C1.3444 98.7871 0.771484 97.0684 0.771484 94.998V94.793C0.771484 92.7292 1.3444 91.0104 2.49023 89.6367C3.63607 88.263 5.12695 87.5762 6.96289 87.5762C8.85091 87.5762 10.3874 88.263 11.5723 89.6367C12.7637 91.0104 13.3594 92.7292 13.3594 94.793V94.998ZM11.4355 94.7734C11.4355 93.1198 11.0384 91.7721 10.2441 90.7305C9.45638 89.6823 8.36263 89.1582 6.96289 89.1582C5.62174 89.1582 4.57357 89.6823 3.81836 90.7305C3.06966 91.7786 2.69531 93.1263 2.69531 94.7734V94.998C2.69531 96.6647 3.06966 98.0221 3.81836 99.0703C4.57357 100.112 5.62174 100.633 6.96289 100.633C8.38216 100.633 9.48242 100.112 10.2637 99.0703C11.0449 98.0286 11.4355 96.6712 11.4355 94.998V94.7734ZM14.9902 92.6738V91.4336H18.3008L18.4863 92.9668C18.7858 92.4264 19.1536 92.0033 19.5898 91.6973C20.0326 91.3913 20.5371 91.2383 21.1035 91.2383C21.2533 91.2383 21.4062 91.2513 21.5625 91.2773C21.7253 91.2969 21.849 91.3197 21.9336 91.3457L21.6797 93.1328L20.5859 93.0742C20.0781 93.0742 19.6517 93.1947 19.3066 93.4355C18.9616 93.6699 18.6947 94.002 18.5059 94.4316V100.496L20.0977 100.77V102H14.9902V100.77L16.582 100.496V92.9473L14.9902 92.6738ZM22.9883 100.77L24.5801 100.496V92.9473L22.9883 92.6738V91.4336H26.2988L26.4355 93.0059C26.7871 92.446 27.2266 92.013 27.7539 91.707C28.2878 91.3945 28.8932 91.2383 29.5703 91.2383C30.7096 91.2383 31.5918 91.5736 32.2168 92.2441C32.8418 92.9082 33.1543 93.9368 33.1543 95.3301V100.496L34.7461 100.77V102H29.6387V100.77L31.2305 100.496V95.3691C31.2305 94.4382 31.0449 93.7773 30.6738 93.3867C30.3092 92.9961 29.7493 92.8008 28.9941 92.8008C28.4408 92.8008 27.9492 92.9342 27.5195 93.2012C27.0964 93.4681 26.7578 93.8327 26.5039 94.2949V100.496L28.0957 100.77V102H22.9883V100.77ZM43.0371 102C42.9785 101.714 42.9329 101.456 42.9004 101.229C42.8678 101.001 42.8451 100.773 42.832 100.545C42.4609 101.02 41.9954 101.417 41.4355 101.736C40.8822 102.049 40.2897 102.205 39.6582 102.205C38.5579 102.205 37.7214 101.938 37.1484 101.404C36.5755 100.864 36.2891 100.105 36.2891 99.1289C36.2891 98.1263 36.6927 97.3548 37.5 96.8145C38.3138 96.2676 39.4271 95.9941 40.8398 95.9941H42.8223V94.7637C42.8223 94.1452 42.627 93.6569 42.2363 93.2988C41.8457 92.9342 41.3021 92.752 40.6055 92.752C40.1237 92.752 39.6973 92.8138 39.3262 92.9375C38.9616 93.0612 38.6654 93.2305 38.4375 93.4453L38.2324 94.5586H36.748V92.5078C37.2298 92.1237 37.8125 91.8177 38.4961 91.5898C39.1797 91.3555 39.9219 91.2383 40.7227 91.2383C41.9206 91.2383 42.8906 91.5443 43.6328 92.1562C44.375 92.7682 44.7461 93.6439 44.7461 94.7832V99.8711C44.7461 100.008 44.7461 100.141 44.7461 100.271C44.7526 100.402 44.7624 100.532 44.7754 100.662L45.5566 100.77V102H43.0371ZM39.9414 100.594C40.5794 100.594 41.1621 100.441 41.6895 100.135C42.2168 99.8288 42.5944 99.4609 42.8223 99.0312V97.293H40.7715C39.9837 97.293 39.3587 97.4753 38.8965 97.8398C38.4408 98.2044 38.2129 98.6471 38.2129 99.168C38.2129 99.6302 38.3561 99.985 38.6426 100.232C38.929 100.473 39.362 100.594 39.9414 100.594ZM46.7773 100.77L48.3691 100.496V92.9473L46.7773 92.6738V91.4336H50.0977L50.2246 92.8105C50.5632 92.3092 50.9993 91.9219 51.5332 91.6484C52.0671 91.375 52.6855 91.2383 53.3887 91.2383C54.0918 91.2383 54.694 91.401 55.1953 91.7266C55.7031 92.0521 56.084 92.5404 56.3379 93.1914C56.6699 92.5924 57.1094 92.1172 57.6562 91.7656C58.2031 91.4141 58.8411 91.2383 59.5703 91.2383C60.651 91.2383 61.5039 91.6094 62.1289 92.3516C62.7539 93.0872 63.0664 94.1973 63.0664 95.6816V100.496L64.6582 100.77V102H59.541V100.77L61.1328 100.496V95.6621C61.1328 94.6204 60.9538 93.8848 60.5957 93.4551C60.2376 93.0189 59.707 92.8008 59.0039 92.8008C58.3333 92.8008 57.793 93.0384 57.3828 93.5137C56.9792 93.9824 56.7448 94.5749 56.6797 95.291V100.496L58.2715 100.77V102H53.1641V100.77L54.7559 100.496V95.6621C54.7559 94.6725 54.5703 93.9499 54.1992 93.4941C53.8346 93.0319 53.304 92.8008 52.6074 92.8008C52.0215 92.8008 51.5397 92.9212 51.1621 93.1621C50.7845 93.403 50.4948 93.7415 50.293 94.1777V100.496L51.8848 100.77V102H46.7773V100.77ZM70.791 102.205C69.3197 102.205 68.1478 101.717 67.2754 100.74C66.4095 99.7572 65.9766 98.4844 65.9766 96.9219V96.4922C65.9766 94.9883 66.4225 93.7383 67.3145 92.7422C68.2129 91.7396 69.2741 91.2383 70.498 91.2383C71.9173 91.2383 72.9915 91.668 73.7207 92.5273C74.4564 93.3867 74.8242 94.5326 74.8242 95.9648V97.166H67.9688L67.9395 97.2148C67.959 98.2305 68.2161 99.0671 68.7109 99.7246C69.2057 100.376 69.8991 100.701 70.791 100.701C71.4421 100.701 72.0117 100.61 72.5 100.428C72.9948 100.239 73.4212 99.9818 73.7793 99.6562L74.5312 100.906C74.1536 101.271 73.6523 101.58 73.0273 101.834C72.4089 102.081 71.6634 102.205 70.791 102.205ZM70.498 92.752C69.8535 92.752 69.3034 93.0254 68.8477 93.5723C68.3919 94.1126 68.112 94.793 68.0078 95.6133L68.0273 95.6621H72.9004V95.4082C72.9004 94.653 72.6986 94.0215 72.2949 93.5137C71.8913 93.0059 71.2923 92.752 70.498 92.752ZM76.4453 100.77L78.0371 100.496V92.9473L76.4453 92.6738V91.4336H79.7559L79.8926 93.0059C80.2441 92.446 80.6836 92.013 81.2109 91.707C81.7448 91.3945 82.3503 91.2383 83.0273 91.2383C84.1667 91.2383 85.0488 91.5736 85.6738 92.2441C86.2988 92.9082 86.6113 93.9368 86.6113 95.3301V100.496L88.2031 100.77V102H83.0957V100.77L84.6875 100.496V95.3691C84.6875 94.4382 84.502 93.7773 84.1309 93.3867C83.7663 92.9961 83.2064 92.8008 82.4512 92.8008C81.8978 92.8008 81.4062 92.9342 80.9766 93.2012C80.5534 93.4681 80.2148 93.8327 79.9609 94.2949V100.496L81.5527 100.77V102H76.4453V100.77ZM92.959 88.8848V91.4336H94.9609V92.8594H92.959V99.2754C92.959 99.7702 93.0599 100.118 93.2617 100.32C93.4701 100.522 93.7435 100.623 94.082 100.623C94.2513 100.623 94.4401 100.61 94.6484 100.584C94.8633 100.551 95.0423 100.519 95.1855 100.486L95.4492 101.805C95.2669 101.922 95 102.016 94.6484 102.088C94.2969 102.166 93.9453 102.205 93.5938 102.205C92.8125 102.205 92.1908 101.971 91.7285 101.502C91.2663 101.027 91.0352 100.285 91.0352 99.2754V92.8594H89.3652V91.4336H91.0352V88.8848H92.959ZM103.818 102C103.76 101.714 103.714 101.456 103.682 101.229C103.649 101.001 103.626 100.773 103.613 100.545C103.242 101.02 102.777 101.417 102.217 101.736C101.663 102.049 101.071 102.205 100.439 102.205C99.3392 102.205 98.5026 101.938 97.9297 101.404C97.3568 100.864 97.0703 100.105 97.0703 99.1289C97.0703 98.1263 97.474 97.3548 98.2812 96.8145C99.0951 96.2676 100.208 95.9941 101.621 95.9941H103.604V94.7637C103.604 94.1452 103.408 93.6569 103.018 93.2988C102.627 92.9342 102.083 92.752 101.387 92.752C100.905 92.752 100.479 92.8138 100.107 92.9375C99.7428 93.0612 99.4466 93.2305 99.2188 93.4453L99.0137 94.5586H97.5293V92.5078C98.0111 92.1237 98.5938 91.8177 99.2773 91.5898C99.9609 91.3555 100.703 91.2383 101.504 91.2383C102.702 91.2383 103.672 91.5443 104.414 92.1562C105.156 92.7682 105.527 93.6439 105.527 94.7832V99.8711C105.527 100.008 105.527 100.141 105.527 100.271C105.534 100.402 105.544 100.532 105.557 100.662L106.338 100.77V102H103.818ZM100.723 100.594C101.361 100.594 101.943 100.441 102.471 100.135C102.998 99.8288 103.376 99.4609 103.604 99.0312V97.293H101.553C100.765 97.293 100.14 97.4753 99.6777 97.8398C99.222 98.2044 98.9941 98.6471 98.9941 99.168C98.9941 99.6302 99.1374 99.985 99.4238 100.232C99.7103 100.473 100.143 100.594 100.723 100.594ZM107.676 88.0059V86.7656H111.191V100.496L112.783 100.77V102H107.676V100.77L109.268 100.496V88.2793L107.676 88.0059ZM129.346 91.9805H127.891L127.529 89.9492C127.236 89.7018 126.846 89.4967 126.357 89.334C125.869 89.1712 125.303 89.0898 124.658 89.0898C123.636 89.0898 122.852 89.3079 122.305 89.7441C121.758 90.1738 121.484 90.737 121.484 91.4336C121.484 92.0521 121.761 92.5697 122.314 92.9863C122.874 93.3965 123.776 93.7578 125.02 94.0703C126.517 94.4414 127.653 94.9883 128.428 95.7109C129.209 96.4336 129.6 97.3288 129.6 98.3965C129.6 99.5423 129.131 100.464 128.193 101.16C127.262 101.857 126.042 102.205 124.531 102.205C123.438 102.205 122.464 102.026 121.611 101.668C120.765 101.31 120.075 100.841 119.541 100.262V97.6152H120.986L121.357 99.6562C121.729 99.9622 122.171 100.213 122.686 100.408C123.2 100.604 123.815 100.701 124.531 100.701C125.501 100.701 126.266 100.496 126.826 100.086C127.393 99.6758 127.676 99.1191 127.676 98.416C127.676 97.765 127.432 97.2214 126.943 96.7852C126.455 96.3424 125.592 95.9714 124.355 95.6719C122.852 95.3138 121.676 94.7865 120.83 94.0898C119.984 93.3932 119.561 92.5176 119.561 91.4629C119.561 90.3496 120.033 89.4251 120.977 88.6895C121.921 87.9473 123.148 87.5762 124.658 87.5762C125.654 87.5762 126.559 87.7487 127.373 88.0938C128.193 88.4323 128.851 88.8457 129.346 89.334V91.9805ZM138.975 100.438C138.643 101.004 138.213 101.44 137.686 101.746C137.165 102.052 136.562 102.205 135.879 102.205C134.733 102.205 133.838 101.837 133.193 101.102C132.549 100.366 132.227 99.2201 132.227 97.6641V92.9473L131.016 92.6738V91.4336H132.227H134.15V97.6836C134.15 98.8099 134.316 99.5846 134.648 100.008C134.98 100.431 135.498 100.643 136.201 100.643C136.885 100.643 137.448 100.506 137.891 100.232C138.34 99.9525 138.678 99.5586 138.906 99.0508V92.9473L137.49 92.6738V91.4336H138.906H140.83V100.496L142.041 100.77V102H139.102L138.975 100.438ZM143.281 100.77L144.873 100.496V92.9473L143.281 92.6738V91.4336H146.592L146.729 93.0059C147.08 92.446 147.52 92.013 148.047 91.707C148.581 91.3945 149.186 91.2383 149.863 91.2383C151.003 91.2383 151.885 91.5736 152.51 92.2441C153.135 92.9082 153.447 93.9368 153.447 95.3301V100.496L155.039 100.77V102H149.932V100.77L151.523 100.496V95.3691C151.523 94.4382 151.338 93.7773 150.967 93.3867C150.602 92.9961 150.042 92.8008 149.287 92.8008C148.734 92.8008 148.242 92.9342 147.812 93.2012C147.389 93.4681 147.051 93.8327 146.797 94.2949V100.496L148.389 100.77V102H143.281V100.77ZM162.9 100.77L164.492 100.496V88.5234C164.115 88.4323 163.727 88.3607 163.33 88.3086C162.933 88.25 162.533 88.2207 162.129 88.2207C161.23 88.2207 160.579 88.4225 160.176 88.8262C159.779 89.2298 159.58 89.8451 159.58 90.6719V91.4336H162.031V92.8594H159.58V100.496L161.172 100.77V102H156.064V100.77L157.656 100.496V92.8594H156.25V91.4336H157.656V90.6719C157.656 89.3633 158.037 88.3509 158.799 87.6348C159.567 86.9186 160.628 86.5605 161.982 86.5605C162.542 86.5605 163.096 86.6126 163.643 86.7168C164.189 86.821 164.824 86.9707 165.547 87.166H166.416V100.496L168.008 100.77V102H162.9V100.77ZM169.629 96.6191C169.629 95.0566 170.052 93.7708 170.898 92.7617C171.745 91.7461 172.894 91.2383 174.346 91.2383C175.804 91.2383 176.956 91.7428 177.803 92.752C178.656 93.7611 179.082 95.0501 179.082 96.6191V96.834C179.082 98.4095 178.659 99.6986 177.812 100.701C176.966 101.704 175.817 102.205 174.365 102.205C172.9 102.205 171.745 101.704 170.898 100.701C170.052 99.6921 169.629 98.403 169.629 96.834V96.6191ZM171.553 96.834C171.553 97.9538 171.787 98.8783 172.256 99.6074C172.731 100.337 173.434 100.701 174.365 100.701C175.277 100.701 175.97 100.337 176.445 99.6074C176.921 98.8783 177.158 97.9538 177.158 96.834V96.6191C177.158 95.5124 176.921 94.5911 176.445 93.8555C175.97 93.1198 175.27 92.752 174.346 92.752C173.421 92.752 172.725 93.1198 172.256 93.8555C171.787 94.5911 171.553 95.5124 171.553 96.6191V96.834ZM184.6 92.6738L183.389 92.8887L184.766 98.1523L184.99 99.4316H185.049L185.322 98.1523L187.432 91.4336H188.975L191.094 98.1523L191.396 99.5781H191.455L191.738 98.1523L193.037 92.8887L191.807 92.6738V91.4336H195.83V92.6738L194.912 92.8105L192.246 102H190.693L188.643 95.5645L188.203 93.7871L188.145 93.7969L187.734 95.5645L185.723 102H184.17L181.504 92.8105L180.576 92.6738V91.4336H184.6V92.6738ZM202.217 102.205C200.745 102.205 199.574 101.717 198.701 100.74C197.835 99.7572 197.402 98.4844 197.402 96.9219V96.4922C197.402 94.9883 197.848 93.7383 198.74 92.7422C199.639 91.7396 200.7 91.2383 201.924 91.2383C203.343 91.2383 204.417 91.668 205.146 92.5273C205.882 93.3867 206.25 94.5326 206.25 95.9648V97.166H199.395L199.365 97.2148C199.385 98.2305 199.642 99.0671 200.137 99.7246C200.632 100.376 201.325 100.701 202.217 100.701C202.868 100.701 203.438 100.61 203.926 100.428C204.421 100.239 204.847 99.9818 205.205 99.6562L205.957 100.906C205.579 101.271 205.078 101.58 204.453 101.834C203.835 102.081 203.089 102.205 202.217 102.205ZM201.924 92.752C201.279 92.752 200.729 93.0254 200.273 93.5723C199.818 94.1126 199.538 94.793 199.434 95.6133L199.453 95.6621H204.326V95.4082C204.326 94.653 204.124 94.0215 203.721 93.5137C203.317 93.0059 202.718 92.752 201.924 92.752ZM208.154 92.6738V91.4336H211.465L211.65 92.9668C211.95 92.4264 212.318 92.0033 212.754 91.6973C213.197 91.3913 213.701 91.2383 214.268 91.2383C214.417 91.2383 214.57 91.2513 214.727 91.2773C214.889 91.2969 215.013 91.3197 215.098 91.3457L214.844 93.1328L213.75 93.0742C213.242 93.0742 212.816 93.1947 212.471 93.4355C212.126 93.6699 211.859 94.002 211.67 94.4316V100.496L213.262 100.77V102H208.154V100.77L209.746 100.496V92.9473L208.154 92.6738Z" fill="#324950"/>
<mask id="path-2-inside-1_3595_88" fill="white">
<path d="M105.556 0.209978C105.883 -0.0780946 106.346 0.00202753 106.741 0.0387246C107.907 0.18796 109.059 0.479702 110.142 0.945143C111.118 1.38123 112.013 1.99346 112.787 2.73719C113.513 3.42709 114.178 4.20324 114.621 5.11455C115.148 4.49865 115.59 3.81669 116.002 3.11761C116.143 2.89988 116.3 2.68336 116.51 2.52862C116.86 2.31517 117.334 2.20936 117.699 2.44911C117.944 2.58979 118.038 2.87969 118.243 3.06379C118.789 3.59345 119.358 4.09804 119.955 4.56776C120.354 4.91271 120.746 5.26745 121.119 5.64176C121.66 6.15797 122.112 6.75858 122.574 7.34451C122.935 7.8864 123.307 8.42707 123.544 9.0393C124.202 8.49619 124.882 7.97937 125.498 7.38549C125.707 7.16347 126.02 7.10965 126.31 7.11515C126.547 7.09864 126.784 7.19344 126.957 7.35613C127.394 7.76041 127.696 8.28212 128.04 8.76408C128.535 9.57753 129.018 10.4112 129.297 11.3304C129.551 12.0161 129.656 12.7433 129.746 13.4662C129.836 14.6797 129.807 15.931 129.416 17.0925C129.768 17.0478 130.121 17.0093 130.473 16.9634C131.173 16.8619 131.849 16.5402 132.567 16.6069C132.938 16.7096 133.32 16.9451 133.44 17.339C133.543 17.6319 133.408 17.931 133.412 18.2277C133.405 19.1322 133.539 20.0283 133.601 20.9286C133.698 22.2931 133.645 23.6741 133.367 25.0154C133.27 25.4454 133.176 25.8784 132.992 26.2808C133.856 26.3591 134.717 26.4821 135.585 26.5071C135.863 26.5041 136.097 26.6839 136.285 26.8735C136.447 27.0276 136.562 27.2399 136.575 27.468C136.597 27.9616 136.529 28.4545 136.43 28.9365C136.336 29.5848 136.141 30.2111 135.964 30.8392C135.773 31.3952 135.524 31.9285 135.252 32.4478C134.899 33.12 134.418 33.7102 133.932 34.2851C133.233 35.0276 132.463 35.7291 131.544 36.175C132.15 36.7144 132.825 37.164 133.52 37.5756C133.795 37.7762 134.102 37.9952 134.209 38.3401C134.336 38.6472 134.356 39.0221 134.168 39.3095C134.029 39.5517 133.755 39.6551 133.57 39.8539C133.161 40.2808 132.78 40.734 132.414 41.1994C131.523 42.3426 130.507 43.3915 129.35 44.2581C128.82 44.6245 128.287 44.9958 127.69 45.2435C128.121 45.7927 128.543 46.3487 129.002 46.874C129.202 47.1168 129.477 47.3285 129.542 47.6557C129.588 47.959 129.623 48.3022 129.443 48.5707C129.165 48.9829 128.729 49.2398 128.342 49.534C127.863 49.9009 127.333 50.1908 126.81 50.4881C125.527 51.1786 124.082 51.5468 122.631 51.5768C121.666 51.6061 120.68 51.5266 119.762 51.2043C119.813 51.6544 119.838 52.1089 119.936 52.5523C120.04 53.1584 120.287 53.7486 120.235 54.3743C120.137 54.8661 119.739 55.3731 119.198 55.3291C118.279 55.1664 117.35 55.3523 116.431 55.4177C115.395 55.5095 114.348 55.5388 113.312 55.4294C112.43 55.3339 111.54 55.1896 110.718 54.8385C110.619 55.7242 110.512 56.6104 110.481 57.5015C110.472 57.7737 110.298 57.9994 110.118 58.1847C109.961 58.3529 109.743 58.4709 109.511 58.4764C109.041 58.493 108.573 58.4312 108.115 58.3321C106.531 58.0575 104.971 57.4862 103.677 56.5003C102.578 55.6563 101.586 54.6208 100.958 53.3651C100.65 53.781 100.304 54.1682 100.043 54.6183C99.7441 55.0813 99.52 55.6238 99.0654 55.9572C98.7275 56.1602 98.2782 56.2679 97.9187 56.0569C97.694 55.9413 97.579 55.7058 97.4255 55.5168C96.9051 54.959 96.3077 54.4844 95.7181 54.0055C94.9286 53.3236 94.1589 52.608 93.5115 51.7823C92.9303 51.0673 92.3955 50.3009 92.0312 49.4471C91.332 50.008 90.6454 50.5835 89.9799 51.1847C89.7439 51.37 89.4295 51.3725 89.1452 51.3658C88.7845 51.3395 88.5135 51.0551 88.2979 50.7866C87.268 49.4392 86.3984 47.9236 86.025 46.2465C85.7715 44.9627 85.6974 43.63 85.9274 42.337C85.9708 42.0135 86.0563 41.6973 86.1768 41.3958C85.6004 41.4624 85.0193 41.5169 84.4556 41.6618C83.9828 41.7719 83.5034 41.9358 83.0126 41.8734C82.6555 41.767 82.2869 41.5444 82.1628 41.1664C82.0605 40.8881 82.1592 40.5958 82.1773 40.3126C82.1863 39.0227 81.9195 37.7493 81.9382 36.4588C81.9135 35.5151 82.0159 34.5725 82.1755 33.6435C82.2797 33.1579 82.3851 32.6686 82.5862 32.2129C81.7226 32.1193 80.8596 32.005 79.9906 31.975C79.7749 31.9732 79.5834 31.8545 79.4226 31.7193C79.2155 31.5628 79.0414 31.3389 79.0101 31.071C78.9595 30.4539 79.1107 29.8472 79.2034 29.2423C79.522 27.6564 80.1182 26.098 81.1288 24.8313C81.9328 23.8185 82.8831 22.8864 84.0412 22.3047C83.7335 22.0735 83.442 21.8209 83.1337 21.5916C82.7103 21.3016 82.2634 21.0484 81.8424 20.7549C81.507 20.5133 81.2902 20.1188 81.2733 19.7004C81.2571 19.4001 81.4022 19.0968 81.6443 18.9237C81.784 18.8246 81.9262 18.7267 82.0412 18.5983C82.3333 18.2827 82.6296 17.9702 82.9018 17.6362C83.489 16.8564 84.1364 16.1243 84.8199 15.4307C85.0458 15.2038 85.2873 14.9952 85.5384 14.7989C86.249 14.1781 87.0296 13.6277 87.8883 13.2417C87.4325 12.6583 86.9892 12.0631 86.4948 11.5127C86.3273 11.3078 86.1021 11.1304 86.0437 10.857C85.9823 10.5188 85.9539 10.1237 86.1864 9.84175C86.5965 9.34878 87.1572 9.02524 87.6691 8.65521C88.2684 8.2913 88.8562 7.8968 89.5138 7.64787C90.5003 7.2069 91.5693 6.98916 92.6412 6.91821C93.712 6.86745 94.8141 6.91638 95.8313 7.28824C95.7596 6.81729 95.7398 6.3384 95.6326 5.87295C95.5242 5.28764 95.2923 4.71088 95.3471 4.10599C95.4423 3.73412 95.6651 3.35064 96.0403 3.21853C96.289 3.12189 96.5546 3.19223 96.8082 3.22342C97.7711 3.26012 98.7245 3.08153 99.6839 3.02465C100.469 2.99345 101.258 2.94942 102.042 3.03504C103.001 3.13474 103.98 3.26012 104.873 3.64911C104.953 2.78122 105.069 1.91639 105.096 1.04423C105.095 0.706001 105.327 0.430161 105.556 0.209978ZM106.899 1.98489C106.831 2.89865 106.734 3.81119 106.599 4.717C107.552 5.49192 108.278 6.54635 108.675 7.71821C108.968 8.74083 108.982 9.8338 108.824 10.8809C110.066 10.9506 111.302 11.1396 112.504 11.465C112.478 10.9708 112.475 10.4736 112.51 9.97936C112.561 9.26255 112.818 8.58793 113.012 7.90414C113.1 7.62096 113.302 7.35797 113.252 7.04604C113.176 6.16714 112.693 5.38672 112.123 4.74574C111.42 3.95492 110.596 3.25645 109.642 2.80141C109.008 2.46502 108.309 2.29499 107.624 2.10722C107.385 2.04973 107.141 2.01731 106.899 1.98489ZM117.224 4.6907C116.81 5.43381 116.249 6.07601 115.719 6.73411C115.451 7.05705 115.276 7.44237 115.08 7.80995C114.823 8.30292 114.684 8.84298 114.518 9.37019C114.417 9.72676 114.35 10.0956 114.341 10.4668C114.329 11.0301 114.335 11.6087 114.526 12.1451C115.837 12.6521 117.083 13.3378 118.231 14.1549C118.303 14.0026 118.376 13.843 118.509 13.7347C118.951 13.3995 119.2 12.8668 119.379 12.35C119.527 11.9708 119.36 11.5463 119.543 11.1763C119.709 10.6998 120.317 10.4827 120.746 10.7298C121.113 10.9494 121.328 11.3812 121.325 11.8099C121.328 12.7482 120.947 13.6448 120.429 14.4056C120.235 14.7488 119.931 15.0063 119.626 15.2442C119.754 15.3579 119.881 15.4717 120.007 15.5885C120.51 15.3225 120.897 14.8852 121.28 14.4705C122.27 13.2919 122.404 11.5653 121.943 10.1323C121.785 9.5078 121.412 8.97692 121.06 8.45154C120.652 7.9335 120.253 7.402 119.771 6.95002C118.978 6.13167 118.04 5.48335 117.224 4.6907ZM97.3634 5.09559C97.5917 5.91149 97.6326 6.76347 97.7205 7.60261C97.7699 8.17815 97.9813 8.72065 98.1632 9.26255C98.4306 9.83196 98.695 10.4106 99.0641 10.9206C99.5351 11.4803 100.047 12.0313 100.705 12.3641C100.917 12.265 101.142 12.1653 101.382 12.1983C101.85 12.235 102.239 12.679 102.22 13.1549C102.22 13.5347 101.969 13.8913 101.621 14.0252C100.823 14.3604 100.055 14.7671 99.3189 15.2252C99.0051 15.4295 98.5739 15.4393 98.2674 15.2167C97.8795 14.9592 97.7476 14.3904 97.9789 13.983C98.1445 13.6564 98.5089 13.5335 98.7925 13.3402C98.3421 12.9384 97.9277 12.495 97.5465 12.0246C97.0731 11.3506 96.7148 10.602 96.3824 9.84848C96.2926 9.68456 96.1342 9.57447 95.9921 9.46071C95.2369 8.95368 94.3143 8.8075 93.4254 8.78181C92.3443 8.78242 91.2501 8.94756 90.2521 9.38487C89.509 9.68334 88.8411 10.1414 88.1804 10.591C88.7586 11.3035 89.3319 12.0222 89.8776 12.761C91.4578 12.5953 93.1357 12.9904 94.3727 14.0326C94.8942 14.4888 95.3694 15.0008 95.7801 15.5622C95.9704 15.3677 96.2113 15.1989 96.492 15.1965C96.9647 15.1579 97.4182 15.5469 97.4628 16.0258C97.5086 16.3573 97.3544 16.6845 97.1093 16.8974C95.7813 18.0949 94.6383 19.5059 93.7566 21.0723C93.1399 22.1634 92.678 23.3396 92.2877 24.531C91.8523 26.1004 91.5795 27.7298 91.621 29.3646C91.6409 30.3866 91.6933 31.4154 91.9107 32.4166C92.1426 33.6869 92.5593 34.9144 93.0562 36.1016C93.2838 36.5903 93.5494 37.06 93.8096 37.5316C94.9129 39.5456 96.4847 41.2832 98.3264 42.6251C99.0593 43.1903 99.8561 43.6636 100.681 44.0783C101.149 44.3175 101.626 44.5499 102.134 44.6899C103.625 45.3334 105.243 45.6428 106.857 45.7089C107.237 45.7419 107.617 45.7915 107.998 45.7823C108.562 45.7505 109.126 45.7071 109.689 45.6575C111.206 45.5395 112.686 45.1138 114.093 44.5383C114.302 44.463 114.436 44.26 114.647 44.1903C114.832 44.1291 115.034 44.123 115.205 44.0208C117.141 43.0233 118.899 41.6471 120.285 39.9462C121.389 38.6686 122.241 37.1854 122.9 35.627C123.007 35.4099 122.929 35.1554 123.02 34.9334C123.088 34.7248 123.29 34.5964 123.35 34.3842C123.544 33.7597 123.706 33.1248 123.846 32.4863C123.957 31.8466 124.034 31.2013 124.093 30.5554C124.124 30.1787 124.174 29.8019 124.152 29.4233C124.108 28.2386 124.066 27.0441 123.801 25.8851C123.599 24.8515 123.268 23.8496 122.885 22.8723C122.814 22.6717 122.632 22.5438 122.541 22.3561C122.45 22.1805 122.473 21.9695 122.375 21.7977C120.609 18.2026 117.483 15.317 113.788 13.8809C113.399 13.8185 113.075 13.5787 112.695 13.4864C110.637 12.8442 108.452 12.6136 106.309 12.8258C105.674 12.8839 105.168 12.18 105.377 11.5769C105.058 11.5133 104.759 11.3096 104.634 10.9965C104.516 10.7549 104.595 10.4839 104.591 10.2289C104.551 9.76285 104.392 9.31392 104.186 8.89924C104.053 8.61606 103.756 8.47172 103.607 8.20078C103.361 7.8546 103.406 7.32616 103.728 7.04482C104.015 6.76592 104.463 6.78304 104.814 6.9072C105.299 7.15368 105.617 7.62952 105.881 8.09374C106.282 8.96775 106.588 9.95306 106.389 10.9231C106.565 10.906 106.743 10.8931 106.92 10.8827C107.113 10.0668 107.122 9.20138 106.922 8.38548C106.743 7.75919 106.386 7.20567 105.977 6.71026C105.411 6.08763 104.696 5.6228 103.928 5.30048C103.121 5.04177 102.275 4.94696 101.434 4.87785C100.971 4.85033 100.51 4.8803 100.048 4.89681C99.1497 4.92128 98.2638 5.11455 97.3634 5.09559ZM124.037 11.0448C124.003 11.1323 124.034 11.2313 124.034 11.3231C124.109 11.939 124.017 12.5592 123.914 13.1653C123.835 13.6307 123.648 14.0662 123.474 14.5011C122.998 15.4937 122.214 16.2962 121.365 16.9677C122.194 17.898 122.914 18.9249 123.551 19.9995C124.181 19.2711 124.922 18.6197 125.79 18.2007C126.162 17.9983 126.543 17.8148 126.926 17.6344C127.388 17.2552 127.611 16.6613 127.766 16.0962C128.133 14.3494 127.895 12.4742 127.1 10.8803C126.81 10.3482 126.505 9.82462 126.163 9.32615C125.459 9.90474 124.756 10.4858 124.037 11.0448ZM88.3135 15.1286C87.8721 15.3781 87.4457 15.6589 87.0506 15.9793C86.708 16.2827 86.3328 16.5494 86.019 16.8858C85.6625 17.2778 85.2891 17.6533 84.9524 18.0637C84.5188 18.6075 84.0984 19.164 83.61 19.6595C84.3941 20.1151 85.0644 20.7359 85.7703 21.3016C86.3773 21.7304 87.0518 22.0594 87.7595 22.2772C88.8206 22.6374 89.9992 22.7414 91.0748 22.3824C91.5915 21.0705 92.2546 19.8203 93.0568 18.6662C92.9249 18.6203 92.7876 18.5818 92.6738 18.498C92.4871 18.3647 92.3859 18.142 92.1944 18.0136C91.8668 17.7861 91.5132 17.591 91.1356 17.4631C90.7677 17.3286 90.3599 17.4882 90.0022 17.3059C89.5168 17.1341 89.3096 16.4821 89.5825 16.0466C89.795 15.7322 90.1552 15.5023 90.5394 15.5145C91.3169 15.4503 92.0643 15.7475 92.7328 16.1212C93.2507 16.4307 93.771 16.7903 94.0674 17.3384C94.1884 17.2032 94.3119 17.0692 94.4329 16.9341C94.2932 16.7573 94.1986 16.5488 94.0475 16.3806C93.6578 15.9225 93.2393 15.4754 92.7243 15.1604C92.092 14.8093 91.3753 14.6289 90.6563 14.6081C89.8492 14.6044 89.0471 14.7904 88.3135 15.1286ZM128.69 19.0741C128.204 19.2062 127.714 19.3494 127.256 19.564C126.815 19.805 126.348 20.0013 125.942 20.3023C125.383 20.753 124.848 21.2601 124.497 21.8992C125.061 23.2252 125.478 24.6154 125.733 26.0368C125.898 25.9836 126.07 25.9493 126.244 25.9775C126.643 26.0331 127.041 25.912 127.41 25.7677C127.681 25.6625 127.963 25.5408 128.155 25.3096C128.398 25.0013 128.8 24.7946 129.193 24.8631C129.577 24.931 129.887 25.3004 129.88 25.6992C129.874 25.9359 129.828 26.1824 129.695 26.3811C129.435 26.7683 129.049 27.0472 128.655 27.2802C127.817 27.6906 126.882 27.9903 125.942 27.8478C125.952 28.0221 125.963 28.1976 125.974 28.3726C126.753 28.5701 127.585 28.5493 128.362 28.3506C129.804 27.8827 130.908 26.6301 131.404 25.2019C131.611 24.4454 131.717 23.6649 131.774 22.8833C131.87 21.4698 131.609 20.0698 131.561 18.6607C130.625 18.9292 129.644 18.9218 128.69 19.0741ZM83.9702 24.5885C83.3396 25.0918 82.7904 25.6998 82.3291 26.3646C82.0225 26.7677 81.8214 27.2399 81.6003 27.6937C81.295 28.4814 81.0511 29.3035 80.9547 30.1469C81.8527 30.2197 82.75 30.3187 83.6413 30.4527C83.7311 30.3542 83.819 30.2539 83.9021 30.1499C84.2659 29.7004 84.7404 29.3646 85.203 29.0294C85.639 28.7206 86.1406 28.5298 86.6321 28.3347C87.6523 28.0386 88.7321 28.0545 89.7764 28.1946C89.8456 26.934 90.0642 25.6851 90.3726 24.4631C89.8432 24.509 89.3108 24.4821 88.7821 24.4441C88.051 24.3659 87.3421 24.1463 86.6538 23.8912C86.405 23.8099 86.1659 23.6417 85.8925 23.698C85.1807 23.7805 84.517 24.1285 83.9702 24.5885ZM128.999 30.1334C128.027 30.4374 126.986 30.4392 125.984 30.3151C125.883 31.5622 125.742 32.8135 125.394 34.0184C126.019 34.0105 126.65 33.983 127.267 34.1053C127.762 34.1891 128.229 34.3811 128.711 34.5144C128.959 34.5854 129.181 34.7303 129.431 34.7933C130.077 34.8025 130.703 34.5414 131.233 34.1811C131.988 33.6563 132.632 32.9805 133.175 32.2362C133.6 31.6668 133.898 31.0117 134.158 30.3512C134.365 29.6931 134.529 29.0221 134.651 28.3432C133.744 28.2637 132.837 28.1726 131.936 28.0313C131.184 29.0001 130.145 29.7304 128.999 30.1334ZM86.2978 30.5622C85.9142 30.8429 85.5047 31.1071 85.2222 31.5016C84.8958 31.8374 84.6591 32.2453 84.4495 32.6631C84.199 33.0747 84.1021 33.5542 84.0033 34.0209C83.8419 34.9469 83.7509 35.8888 83.7997 36.83C83.8226 37.8306 84.0189 38.819 84.0189 39.8208C84.891 39.5915 85.795 39.5548 86.6857 39.4478C87.4246 39.2979 88.1491 39.052 88.8116 38.6832C89.2428 38.4447 89.6842 38.205 90.0365 37.8514C90.4696 37.4398 90.9062 37.0062 91.1579 36.4502C91.1633 36.364 91.1158 36.2863 91.0911 36.2074C90.587 34.9713 90.2311 33.6759 90.001 32.3585C89.7993 32.471 89.571 32.5487 89.3385 32.5065C89.0031 32.4459 88.6767 32.567 88.3569 32.6496C88.0052 32.7732 87.6288 32.9132 87.3873 33.2166C87.1904 33.4374 86.926 33.6331 86.623 33.6472C86.2105 33.6894 85.8046 33.3726 85.7299 32.9609C85.6914 32.6417 85.7245 32.2882 85.9341 32.0319C86.3888 31.4294 87.0886 31.0857 87.7811 30.8478C88.4334 30.6509 89.1404 30.4912 89.8125 30.6894C89.7987 30.5065 89.7884 30.323 89.7782 30.1401C88.6219 29.8704 87.3271 29.9004 86.2978 30.5622ZM124.747 36.0404C124.21 37.3884 123.529 38.6771 122.715 39.8734C122.977 39.9805 123.126 40.2276 123.321 40.4166C123.673 40.6918 124.073 40.9083 124.5 41.0355C124.834 41.1438 125.197 41.0062 125.522 41.1566C125.99 41.29 126.248 41.863 126.058 42.3144C125.866 42.7487 125.386 43 124.927 42.9878C124.469 42.9744 124.003 42.9034 123.582 42.7138C122.826 42.4135 122.092 41.9689 121.6 41.2985C121.492 41.4257 121.382 41.5517 121.271 41.6759C121.389 41.9854 121.627 42.2184 121.841 42.46C122.273 42.9144 122.756 43.3529 123.357 43.5578C123.791 43.764 124.273 43.8123 124.743 43.8734C125.833 43.9046 126.966 43.6477 127.862 42.9909C129.025 42.2276 130.007 41.2123 130.876 40.1242C131.227 39.6783 131.583 39.2349 131.968 38.819C131.164 38.3744 130.499 37.7236 129.779 37.1585C129.186 36.7664 128.549 36.4337 127.867 36.2349C127.38 36.0728 126.884 35.9163 126.367 35.8979C125.825 35.882 125.271 35.879 124.747 36.0404ZM90.4033 39.9358C89.9101 40.2471 89.3964 40.5279 88.858 40.7505C88.752 40.7982 88.6381 40.8404 88.5574 40.9285C88.2069 41.2845 88.0112 41.7609 87.8582 42.2312C87.5378 43.4471 87.6101 44.734 87.8715 45.9542C88.1521 47.1297 88.752 48.1908 89.4313 49.1725C89.7198 48.8893 90.0432 48.6471 90.3539 48.3909C90.7526 48.0722 91.1374 47.7334 91.5632 47.4514C91.4669 46.3872 91.565 45.2832 91.9866 44.2961C92.4196 43.1266 93.323 42.208 94.2902 41.4716C93.4772 40.515 92.7322 39.4949 92.1438 38.3787C91.6102 38.9462 91.0772 39.5364 90.4033 39.9358ZM94.3269 43.9811C94.0342 44.3199 93.8054 44.7107 93.6602 45.1376C93.2706 46.1951 93.3115 47.3866 93.6723 48.4459C93.8451 49.0569 94.2077 49.5866 94.5708 50.0954C95.0617 50.7529 95.5995 51.3749 96.2077 51.9236C96.8895 52.5866 97.6778 53.1236 98.3535 53.7927C98.7088 53.1798 99.1509 52.6275 99.5935 52.0789C100.458 51.104 100.935 49.8398 101.187 48.5688C101.279 47.8239 101.303 47.0404 101.055 46.3224C100.773 46.2068 100.49 46.0948 100.218 45.9572C99.2256 45.4673 98.2487 44.9303 97.367 44.2526C97.308 44.4068 97.252 44.5701 97.1328 44.6887C96.9906 44.8312 96.8172 44.9444 96.7082 45.1187C96.4769 45.4899 96.2451 45.874 96.1559 46.3101C96.0879 46.6092 96.1921 46.9272 96.0698 47.2172C95.9753 47.5658 95.6537 47.8441 95.2935 47.852C94.7346 47.8997 94.2842 47.3352 94.2757 46.8019C94.2155 46.1389 94.407 45.4887 94.6816 44.8948C95.0129 44.2514 95.3995 43.5994 96.0174 43.2007C95.8939 43.0844 95.7693 42.9688 95.6452 42.8545C95.1327 43.1328 94.7184 43.5523 94.3269 43.9811ZM116.9 45.2459C117.495 45.7994 118.056 46.4074 118.456 47.1248C118.698 47.5805 118.962 48.0275 119.137 48.5162C119.19 48.6881 119.325 48.8098 119.458 48.9199C120.133 49.4697 121.017 49.6251 121.857 49.6893C123.219 49.759 124.606 49.5003 125.828 48.8746C126.371 48.5762 126.913 48.2704 127.404 47.8881C126.817 47.1847 126.255 46.4575 125.701 45.7297C125.422 45.7224 125.146 45.7823 124.868 45.7676C123.884 45.7358 122.898 45.5034 122.03 45.0245C121.187 44.5395 120.496 43.8251 119.898 43.06C118.974 43.8881 117.967 44.6196 116.9 45.2459ZM110.921 47.4141C111.055 47.6789 110.999 47.9737 110.988 48.2569C111.072 48.7982 111.214 49.3566 111.541 49.8031C111.82 50.0563 112.115 50.3633 112.129 50.7682C112.165 51.2067 111.816 51.6281 111.387 51.671C111.089 51.6869 110.771 51.6294 110.534 51.4349C110.054 51.0624 109.734 50.5199 109.515 49.956C109.231 49.2116 109.025 48.3951 109.182 47.5964C109.008 47.6104 108.833 47.6239 108.658 47.6379C108.467 48.4594 108.465 49.3358 108.679 50.1535C109.145 51.6159 110.384 52.7395 111.797 53.2281C112.951 53.5492 114.156 53.6599 115.349 53.6018C116.308 53.5682 117.257 53.4018 118.217 53.3878C117.968 52.5132 117.949 51.5976 117.843 50.6997C117.682 49.8355 117.375 49.0006 116.934 48.2434C116.622 47.6135 116.138 47.093 115.625 46.6288C115.422 46.4808 115.228 46.285 114.985 46.2233C113.673 46.7487 112.32 47.1976 110.921 47.4141ZM103.09 47.0288C103.103 47.378 103.117 47.7279 103.094 48.0777C103.077 49.1407 102.731 50.1609 102.359 51.1431C102.275 51.4434 102.366 51.7615 102.451 52.0526C102.72 52.9425 103.345 53.6563 103.983 54.2985C104.526 54.7988 105.103 55.2765 105.773 55.5927C106.67 56.0911 107.678 56.3321 108.678 56.5131C108.755 55.5951 108.849 54.6777 108.981 53.7664C108.401 53.3101 107.936 52.7248 107.532 52.1083C107.025 51.2869 106.705 50.3401 106.678 49.3664C106.637 48.7853 106.678 48.2019 106.751 47.6251C105.518 47.523 104.283 47.3737 103.09 47.0288Z"/>
</mask>
<path d="M105.556 0.209978C105.883 -0.0780946 106.346 0.00202753 106.741 0.0387246C107.907 0.18796 109.059 0.479702 110.142 0.945143C111.118 1.38123 112.013 1.99346 112.787 2.73719C113.513 3.42709 114.178 4.20324 114.621 5.11455C115.148 4.49865 115.59 3.81669 116.002 3.11761C116.143 2.89988 116.3 2.68336 116.51 2.52862C116.86 2.31517 117.334 2.20936 117.699 2.44911C117.944 2.58979 118.038 2.87969 118.243 3.06379C118.789 3.59345 119.358 4.09804 119.955 4.56776C120.354 4.91271 120.746 5.26745 121.119 5.64176C121.66 6.15797 122.112 6.75858 122.574 7.34451C122.935 7.8864 123.307 8.42707 123.544 9.0393C124.202 8.49619 124.882 7.97937 125.498 7.38549C125.707 7.16347 126.02 7.10965 126.31 7.11515C126.547 7.09864 126.784 7.19344 126.957 7.35613C127.394 7.76041 127.696 8.28212 128.04 8.76408C128.535 9.57753 129.018 10.4112 129.297 11.3304C129.551 12.0161 129.656 12.7433 129.746 13.4662C129.836 14.6797 129.807 15.931 129.416 17.0925C129.768 17.0478 130.121 17.0093 130.473 16.9634C131.173 16.8619 131.849 16.5402 132.567 16.6069C132.938 16.7096 133.32 16.9451 133.44 17.339C133.543 17.6319 133.408 17.931 133.412 18.2277C133.405 19.1322 133.539 20.0283 133.601 20.9286C133.698 22.2931 133.645 23.6741 133.367 25.0154C133.27 25.4454 133.176 25.8784 132.992 26.2808C133.856 26.3591 134.717 26.4821 135.585 26.5071C135.863 26.5041 136.097 26.6839 136.285 26.8735C136.447 27.0276 136.562 27.2399 136.575 27.468C136.597 27.9616 136.529 28.4545 136.43 28.9365C136.336 29.5848 136.141 30.2111 135.964 30.8392C135.773 31.3952 135.524 31.9285 135.252 32.4478C134.899 33.12 134.418 33.7102 133.932 34.2851C133.233 35.0276 132.463 35.7291 131.544 36.175C132.15 36.7144 132.825 37.164 133.52 37.5756C133.795 37.7762 134.102 37.9952 134.209 38.3401C134.336 38.6472 134.356 39.0221 134.168 39.3095C134.029 39.5517 133.755 39.6551 133.57 39.8539C133.161 40.2808 132.78 40.734 132.414 41.1994C131.523 42.3426 130.507 43.3915 129.35 44.2581C128.82 44.6245 128.287 44.9958 127.69 45.2435C128.121 45.7927 128.543 46.3487 129.002 46.874C129.202 47.1168 129.477 47.3285 129.542 47.6557C129.588 47.959 129.623 48.3022 129.443 48.5707C129.165 48.9829 128.729 49.2398 128.342 49.534C127.863 49.9009 127.333 50.1908 126.81 50.4881C125.527 51.1786 124.082 51.5468 122.631 51.5768C121.666 51.6061 120.68 51.5266 119.762 51.2043C119.813 51.6544 119.838 52.1089 119.936 52.5523C120.04 53.1584 120.287 53.7486 120.235 54.3743C120.137 54.8661 119.739 55.3731 119.198 55.3291C118.279 55.1664 117.35 55.3523 116.431 55.4177C115.395 55.5095 114.348 55.5388 113.312 55.4294C112.43 55.3339 111.54 55.1896 110.718 54.8385C110.619 55.7242 110.512 56.6104 110.481 57.5015C110.472 57.7737 110.298 57.9994 110.118 58.1847C109.961 58.3529 109.743 58.4709 109.511 58.4764C109.041 58.493 108.573 58.4312 108.115 58.3321C106.531 58.0575 104.971 57.4862 103.677 56.5003C102.578 55.6563 101.586 54.6208 100.958 53.3651C100.65 53.781 100.304 54.1682 100.043 54.6183C99.7441 55.0813 99.52 55.6238 99.0654 55.9572C98.7275 56.1602 98.2782 56.2679 97.9187 56.0569C97.694 55.9413 97.579 55.7058 97.4255 55.5168C96.9051 54.959 96.3077 54.4844 95.7181 54.0055C94.9286 53.3236 94.1589 52.608 93.5115 51.7823C92.9303 51.0673 92.3955 50.3009 92.0312 49.4471C91.332 50.008 90.6454 50.5835 89.9799 51.1847C89.7439 51.37 89.4295 51.3725 89.1452 51.3658C88.7845 51.3395 88.5135 51.0551 88.2979 50.7866C87.268 49.4392 86.3984 47.9236 86.025 46.2465C85.7715 44.9627 85.6974 43.63 85.9274 42.337C85.9708 42.0135 86.0563 41.6973 86.1768 41.3958C85.6004 41.4624 85.0193 41.5169 84.4556 41.6618C83.9828 41.7719 83.5034 41.9358 83.0126 41.8734C82.6555 41.767 82.2869 41.5444 82.1628 41.1664C82.0605 40.8881 82.1592 40.5958 82.1773 40.3126C82.1863 39.0227 81.9195 37.7493 81.9382 36.4588C81.9135 35.5151 82.0159 34.5725 82.1755 33.6435C82.2797 33.1579 82.3851 32.6686 82.5862 32.2129C81.7226 32.1193 80.8596 32.005 79.9906 31.975C79.7749 31.9732 79.5834 31.8545 79.4226 31.7193C79.2155 31.5628 79.0414 31.3389 79.0101 31.071C78.9595 30.4539 79.1107 29.8472 79.2034 29.2423C79.522 27.6564 80.1182 26.098 81.1288 24.8313C81.9328 23.8185 82.8831 22.8864 84.0412 22.3047C83.7335 22.0735 83.442 21.8209 83.1337 21.5916C82.7103 21.3016 82.2634 21.0484 81.8424 20.7549C81.507 20.5133 81.2902 20.1188 81.2733 19.7004C81.2571 19.4001 81.4022 19.0968 81.6443 18.9237C81.784 18.8246 81.9262 18.7267 82.0412 18.5983C82.3333 18.2827 82.6296 17.9702 82.9018 17.6362C83.489 16.8564 84.1364 16.1243 84.8199 15.4307C85.0458 15.2038 85.2873 14.9952 85.5384 14.7989C86.249 14.1781 87.0296 13.6277 87.8883 13.2417C87.4325 12.6583 86.9892 12.0631 86.4948 11.5127C86.3273 11.3078 86.1021 11.1304 86.0437 10.857C85.9823 10.5188 85.9539 10.1237 86.1864 9.84175C86.5965 9.34878 87.1572 9.02524 87.6691 8.65521C88.2684 8.2913 88.8562 7.8968 89.5138 7.64787C90.5003 7.2069 91.5693 6.98916 92.6412 6.91821C93.712 6.86745 94.8141 6.91638 95.8313 7.28824C95.7596 6.81729 95.7398 6.3384 95.6326 5.87295C95.5242 5.28764 95.2923 4.71088 95.3471 4.10599C95.4423 3.73412 95.6651 3.35064 96.0403 3.21853C96.289 3.12189 96.5546 3.19223 96.8082 3.22342C97.7711 3.26012 98.7245 3.08153 99.6839 3.02465C100.469 2.99345 101.258 2.94942 102.042 3.03504C103.001 3.13474 103.98 3.26012 104.873 3.64911C104.953 2.78122 105.069 1.91639 105.096 1.04423C105.095 0.706001 105.327 0.430161 105.556 0.209978ZM106.899 1.98489C106.831 2.89865 106.734 3.81119 106.599 4.717C107.552 5.49192 108.278 6.54635 108.675 7.71821C108.968 8.74083 108.982 9.8338 108.824 10.8809C110.066 10.9506 111.302 11.1396 112.504 11.465C112.478 10.9708 112.475 10.4736 112.51 9.97936C112.561 9.26255 112.818 8.58793 113.012 7.90414C113.1 7.62096 113.302 7.35797 113.252 7.04604C113.176 6.16714 112.693 5.38672 112.123 4.74574C111.42 3.95492 110.596 3.25645 109.642 2.80141C109.008 2.46502 108.309 2.29499 107.624 2.10722C107.385 2.04973 107.141 2.01731 106.899 1.98489ZM117.224 4.6907C116.81 5.43381 116.249 6.07601 115.719 6.73411C115.451 7.05705 115.276 7.44237 115.08 7.80995C114.823 8.30292 114.684 8.84298 114.518 9.37019C114.417 9.72676 114.35 10.0956 114.341 10.4668C114.329 11.0301 114.335 11.6087 114.526 12.1451C115.837 12.6521 117.083 13.3378 118.231 14.1549C118.303 14.0026 118.376 13.843 118.509 13.7347C118.951 13.3995 119.2 12.8668 119.379 12.35C119.527 11.9708 119.36 11.5463 119.543 11.1763C119.709 10.6998 120.317 10.4827 120.746 10.7298C121.113 10.9494 121.328 11.3812 121.325 11.8099C121.328 12.7482 120.947 13.6448 120.429 14.4056C120.235 14.7488 119.931 15.0063 119.626 15.2442C119.754 15.3579 119.881 15.4717 120.007 15.5885C120.51 15.3225 120.897 14.8852 121.28 14.4705C122.27 13.2919 122.404 11.5653 121.943 10.1323C121.785 9.5078 121.412 8.97692 121.06 8.45154C120.652 7.9335 120.253 7.402 119.771 6.95002C118.978 6.13167 118.04 5.48335 117.224 4.6907ZM97.3634 5.09559C97.5917 5.91149 97.6326 6.76347 97.7205 7.60261C97.7699 8.17815 97.9813 8.72065 98.1632 9.26255C98.4306 9.83196 98.695 10.4106 99.0641 10.9206C99.5351 11.4803 100.047 12.0313 100.705 12.3641C100.917 12.265 101.142 12.1653 101.382 12.1983C101.85 12.235 102.239 12.679 102.22 13.1549C102.22 13.5347 101.969 13.8913 101.621 14.0252C100.823 14.3604 100.055 14.7671 99.3189 15.2252C99.0051 15.4295 98.5739 15.4393 98.2674 15.2167C97.8795 14.9592 97.7476 14.3904 97.9789 13.983C98.1445 13.6564 98.5089 13.5335 98.7925 13.3402C98.3421 12.9384 97.9277 12.495 97.5465 12.0246C97.0731 11.3506 96.7148 10.602 96.3824 9.84848C96.2926 9.68456 96.1342 9.57447 95.9921 9.46071C95.2369 8.95368 94.3143 8.8075 93.4254 8.78181C92.3443 8.78242 91.2501 8.94756 90.2521 9.38487C89.509 9.68334 88.8411 10.1414 88.1804 10.591C88.7586 11.3035 89.3319 12.0222 89.8776 12.761C91.4578 12.5953 93.1357 12.9904 94.3727 14.0326C94.8942 14.4888 95.3694 15.0008 95.7801 15.5622C95.9704 15.3677 96.2113 15.1989 96.492 15.1965C96.9647 15.1579 97.4182 15.5469 97.4628 16.0258C97.5086 16.3573 97.3544 16.6845 97.1093 16.8974C95.7813 18.0949 94.6383 19.5059 93.7566 21.0723C93.1399 22.1634 92.678 23.3396 92.2877 24.531C91.8523 26.1004 91.5795 27.7298 91.621 29.3646C91.6409 30.3866 91.6933 31.4154 91.9107 32.4166C92.1426 33.6869 92.5593 34.9144 93.0562 36.1016C93.2838 36.5903 93.5494 37.06 93.8096 37.5316C94.9129 39.5456 96.4847 41.2832 98.3264 42.6251C99.0593 43.1903 99.8561 43.6636 100.681 44.0783C101.149 44.3175 101.626 44.5499 102.134 44.6899C103.625 45.3334 105.243 45.6428 106.857 45.7089C107.237 45.7419 107.617 45.7915 107.998 45.7823C108.562 45.7505 109.126 45.7071 109.689 45.6575C111.206 45.5395 112.686 45.1138 114.093 44.5383C114.302 44.463 114.436 44.26 114.647 44.1903C114.832 44.1291 115.034 44.123 115.205 44.0208C117.141 43.0233 118.899 41.6471 120.285 39.9462C121.389 38.6686 122.241 37.1854 122.9 35.627C123.007 35.4099 122.929 35.1554 123.02 34.9334C123.088 34.7248 123.29 34.5964 123.35 34.3842C123.544 33.7597 123.706 33.1248 123.846 32.4863C123.957 31.8466 124.034 31.2013 124.093 30.5554C124.124 30.1787 124.174 29.8019 124.152 29.4233C124.108 28.2386 124.066 27.0441 123.801 25.8851C123.599 24.8515 123.268 23.8496 122.885 22.8723C122.814 22.6717 122.632 22.5438 122.541 22.3561C122.45 22.1805 122.473 21.9695 122.375 21.7977C120.609 18.2026 117.483 15.317 113.788 13.8809C113.399 13.8185 113.075 13.5787 112.695 13.4864C110.637 12.8442 108.452 12.6136 106.309 12.8258C105.674 12.8839 105.168 12.18 105.377 11.5769C105.058 11.5133 104.759 11.3096 104.634 10.9965C104.516 10.7549 104.595 10.4839 104.591 10.2289C104.551 9.76285 104.392 9.31392 104.186 8.89924C104.053 8.61606 103.756 8.47172 103.607 8.20078C103.361 7.8546 103.406 7.32616 103.728 7.04482C104.015 6.76592 104.463 6.78304 104.814 6.9072C105.299 7.15368 105.617 7.62952 105.881 8.09374C106.282 8.96775 106.588 9.95306 106.389 10.9231C106.565 10.906 106.743 10.8931 106.92 10.8827C107.113 10.0668 107.122 9.20138 106.922 8.38548C106.743 7.75919 106.386 7.20567 105.977 6.71026C105.411 6.08763 104.696 5.6228 103.928 5.30048C103.121 5.04177 102.275 4.94696 101.434 4.87785C100.971 4.85033 100.51 4.8803 100.048 4.89681C99.1497 4.92128 98.2638 5.11455 97.3634 5.09559ZM124.037 11.0448C124.003 11.1323 124.034 11.2313 124.034 11.3231C124.109 11.939 124.017 12.5592 123.914 13.1653C123.835 13.6307 123.648 14.0662 123.474 14.5011C122.998 15.4937 122.214 16.2962 121.365 16.9677C122.194 17.898 122.914 18.9249 123.551 19.9995C124.181 19.2711 124.922 18.6197 125.79 18.2007C126.162 17.9983 126.543 17.8148 126.926 17.6344C127.388 17.2552 127.611 16.6613 127.766 16.0962C128.133 14.3494 127.895 12.4742 127.1 10.8803C126.81 10.3482 126.505 9.82462 126.163 9.32615C125.459 9.90474 124.756 10.4858 124.037 11.0448ZM88.3135 15.1286C87.8721 15.3781 87.4457 15.6589 87.0506 15.9793C86.708 16.2827 86.3328 16.5494 86.019 16.8858C85.6625 17.2778 85.2891 17.6533 84.9524 18.0637C84.5188 18.6075 84.0984 19.164 83.61 19.6595C84.3941 20.1151 85.0644 20.7359 85.7703 21.3016C86.3773 21.7304 87.0518 22.0594 87.7595 22.2772C88.8206 22.6374 89.9992 22.7414 91.0748 22.3824C91.5915 21.0705 92.2546 19.8203 93.0568 18.6662C92.9249 18.6203 92.7876 18.5818 92.6738 18.498C92.4871 18.3647 92.3859 18.142 92.1944 18.0136C91.8668 17.7861 91.5132 17.591 91.1356 17.4631C90.7677 17.3286 90.3599 17.4882 90.0022 17.3059C89.5168 17.1341 89.3096 16.4821 89.5825 16.0466C89.795 15.7322 90.1552 15.5023 90.5394 15.5145C91.3169 15.4503 92.0643 15.7475 92.7328 16.1212C93.2507 16.4307 93.771 16.7903 94.0674 17.3384C94.1884 17.2032 94.3119 17.0692 94.4329 16.9341C94.2932 16.7573 94.1986 16.5488 94.0475 16.3806C93.6578 15.9225 93.2393 15.4754 92.7243 15.1604C92.092 14.8093 91.3753 14.6289 90.6563 14.6081C89.8492 14.6044 89.0471 14.7904 88.3135 15.1286ZM128.69 19.0741C128.204 19.2062 127.714 19.3494 127.256 19.564C126.815 19.805 126.348 20.0013 125.942 20.3023C125.383 20.753 124.848 21.2601 124.497 21.8992C125.061 23.2252 125.478 24.6154 125.733 26.0368C125.898 25.9836 126.07 25.9493 126.244 25.9775C126.643 26.0331 127.041 25.912 127.41 25.7677C127.681 25.6625 127.963 25.5408 128.155 25.3096C128.398 25.0013 128.8 24.7946 129.193 24.8631C129.577 24.931 129.887 25.3004 129.88 25.6992C129.874 25.9359 129.828 26.1824 129.695 26.3811C129.435 26.7683 129.049 27.0472 128.655 27.2802C127.817 27.6906 126.882 27.9903 125.942 27.8478C125.952 28.0221 125.963 28.1976 125.974 28.3726C126.753 28.5701 127.585 28.5493 128.362 28.3506C129.804 27.8827 130.908 26.6301 131.404 25.2019C131.611 24.4454 131.717 23.6649 131.774 22.8833C131.87 21.4698 131.609 20.0698 131.561 18.6607C130.625 18.9292 129.644 18.9218 128.69 19.0741ZM83.9702 24.5885C83.3396 25.0918 82.7904 25.6998 82.3291 26.3646C82.0225 26.7677 81.8214 27.2399 81.6003 27.6937C81.295 28.4814 81.0511 29.3035 80.9547 30.1469C81.8527 30.2197 82.75 30.3187 83.6413 30.4527C83.7311 30.3542 83.819 30.2539 83.9021 30.1499C84.2659 29.7004 84.7404 29.3646 85.203 29.0294C85.639 28.7206 86.1406 28.5298 86.6321 28.3347C87.6523 28.0386 88.7321 28.0545 89.7764 28.1946C89.8456 26.934 90.0642 25.6851 90.3726 24.4631C89.8432 24.509 89.3108 24.4821 88.7821 24.4441C88.051 24.3659 87.3421 24.1463 86.6538 23.8912C86.405 23.8099 86.1659 23.6417 85.8925 23.698C85.1807 23.7805 84.517 24.1285 83.9702 24.5885ZM128.999 30.1334C128.027 30.4374 126.986 30.4392 125.984 30.3151C125.883 31.5622 125.742 32.8135 125.394 34.0184C126.019 34.0105 126.65 33.983 127.267 34.1053C127.762 34.1891 128.229 34.3811 128.711 34.5144C128.959 34.5854 129.181 34.7303 129.431 34.7933C130.077 34.8025 130.703 34.5414 131.233 34.1811C131.988 33.6563 132.632 32.9805 133.175 32.2362C133.6 31.6668 133.898 31.0117 134.158 30.3512C134.365 29.6931 134.529 29.0221 134.651 28.3432C133.744 28.2637 132.837 28.1726 131.936 28.0313C131.184 29.0001 130.145 29.7304 128.999 30.1334ZM86.2978 30.5622C85.9142 30.8429 85.5047 31.1071 85.2222 31.5016C84.8958 31.8374 84.6591 32.2453 84.4495 32.6631C84.199 33.0747 84.1021 33.5542 84.0033 34.0209C83.8419 34.9469 83.7509 35.8888 83.7997 36.83C83.8226 37.8306 84.0189 38.819 84.0189 39.8208C84.891 39.5915 85.795 39.5548 86.6857 39.4478C87.4246 39.2979 88.1491 39.052 88.8116 38.6832C89.2428 38.4447 89.6842 38.205 90.0365 37.8514C90.4696 37.4398 90.9062 37.0062 91.1579 36.4502C91.1633 36.364 91.1158 36.2863 91.0911 36.2074C90.587 34.9713 90.2311 33.6759 90.001 32.3585C89.7993 32.471 89.571 32.5487 89.3385 32.5065C89.0031 32.4459 88.6767 32.567 88.3569 32.6496C88.0052 32.7732 87.6288 32.9132 87.3873 33.2166C87.1904 33.4374 86.926 33.6331 86.623 33.6472C86.2105 33.6894 85.8046 33.3726 85.7299 32.9609C85.6914 32.6417 85.7245 32.2882 85.9341 32.0319C86.3888 31.4294 87.0886 31.0857 87.7811 30.8478C88.4334 30.6509 89.1404 30.4912 89.8125 30.6894C89.7987 30.5065 89.7884 30.323 89.7782 30.1401C88.6219 29.8704 87.3271 29.9004 86.2978 30.5622ZM124.747 36.0404C124.21 37.3884 123.529 38.6771 122.715 39.8734C122.977 39.9805 123.126 40.2276 123.321 40.4166C123.673 40.6918 124.073 40.9083 124.5 41.0355C124.834 41.1438 125.197 41.0062 125.522 41.1566C125.99 41.29 126.248 41.863 126.058 42.3144C125.866 42.7487 125.386 43 124.927 42.9878C124.469 42.9744 124.003 42.9034 123.582 42.7138C122.826 42.4135 122.092 41.9689 121.6 41.2985C121.492 41.4257 121.382 41.5517 121.271 41.6759C121.389 41.9854 121.627 42.2184 121.841 42.46C122.273 42.9144 122.756 43.3529 123.357 43.5578C123.791 43.764 124.273 43.8123 124.743 43.8734C125.833 43.9046 126.966 43.6477 127.862 42.9909C129.025 42.2276 130.007 41.2123 130.876 40.1242C131.227 39.6783 131.583 39.2349 131.968 38.819C131.164 38.3744 130.499 37.7236 129.779 37.1585C129.186 36.7664 128.549 36.4337 127.867 36.2349C127.38 36.0728 126.884 35.9163 126.367 35.8979C125.825 35.882 125.271 35.879 124.747 36.0404ZM90.4033 39.9358C89.9101 40.2471 89.3964 40.5279 88.858 40.7505C88.752 40.7982 88.6381 40.8404 88.5574 40.9285C88.2069 41.2845 88.0112 41.7609 87.8582 42.2312C87.5378 43.4471 87.6101 44.734 87.8715 45.9542C88.1521 47.1297 88.752 48.1908 89.4313 49.1725C89.7198 48.8893 90.0432 48.6471 90.3539 48.3909C90.7526 48.0722 91.1374 47.7334 91.5632 47.4514C91.4669 46.3872 91.565 45.2832 91.9866 44.2961C92.4196 43.1266 93.323 42.208 94.2902 41.4716C93.4772 40.515 92.7322 39.4949 92.1438 38.3787C91.6102 38.9462 91.0772 39.5364 90.4033 39.9358ZM94.3269 43.9811C94.0342 44.3199 93.8054 44.7107 93.6602 45.1376C93.2706 46.1951 93.3115 47.3866 93.6723 48.4459C93.8451 49.0569 94.2077 49.5866 94.5708 50.0954C95.0617 50.7529 95.5995 51.3749 96.2077 51.9236C96.8895 52.5866 97.6778 53.1236 98.3535 53.7927C98.7088 53.1798 99.1509 52.6275 99.5935 52.0789C100.458 51.104 100.935 49.8398 101.187 48.5688C101.279 47.8239 101.303 47.0404 101.055 46.3224C100.773 46.2068 100.49 46.0948 100.218 45.9572C99.2256 45.4673 98.2487 44.9303 97.367 44.2526C97.308 44.4068 97.252 44.5701 97.1328 44.6887C96.9906 44.8312 96.8172 44.9444 96.7082 45.1187C96.4769 45.4899 96.2451 45.874 96.1559 46.3101C96.0879 46.6092 96.1921 46.9272 96.0698 47.2172C95.9753 47.5658 95.6537 47.8441 95.2935 47.852C94.7346 47.8997 94.2842 47.3352 94.2757 46.8019C94.2155 46.1389 94.407 45.4887 94.6816 44.8948C95.0129 44.2514 95.3995 43.5994 96.0174 43.2007C95.8939 43.0844 95.7693 42.9688 95.6452 42.8545C95.1327 43.1328 94.7184 43.5523 94.3269 43.9811ZM116.9 45.2459C117.495 45.7994 118.056 46.4074 118.456 47.1248C118.698 47.5805 118.962 48.0275 119.137 48.5162C119.19 48.6881 119.325 48.8098 119.458 48.9199C120.133 49.4697 121.017 49.6251 121.857 49.6893C123.219 49.759 124.606 49.5003 125.828 48.8746C126.371 48.5762 126.913 48.2704 127.404 47.8881C126.817 47.1847 126.255 46.4575 125.701 45.7297C125.422 45.7224 125.146 45.7823 124.868 45.7676C123.884 45.7358 122.898 45.5034 122.03 45.0245C121.187 44.5395 120.496 43.8251 119.898 43.06C118.974 43.8881 117.967 44.6196 116.9 45.2459ZM110.921 47.4141C111.055 47.6789 110.999 47.9737 110.988 48.2569C111.072 48.7982 111.214 49.3566 111.541 49.8031C111.82 50.0563 112.115 50.3633 112.129 50.7682C112.165 51.2067 111.816 51.6281 111.387 51.671C111.089 51.6869 110.771 51.6294 110.534 51.4349C110.054 51.0624 109.734 50.5199 109.515 49.956C109.231 49.2116 109.025 48.3951 109.182 47.5964C109.008 47.6104 108.833 47.6239 108.658 47.6379C108.467 48.4594 108.465 49.3358 108.679 50.1535C109.145 51.6159 110.384 52.7395 111.797 53.2281C112.951 53.5492 114.156 53.6599 115.349 53.6018C116.308 53.5682 117.257 53.4018 118.217 53.3878C117.968 52.5132 117.949 51.5976 117.843 50.6997C117.682 49.8355 117.375 49.0006 116.934 48.2434C116.622 47.6135 116.138 47.093 115.625 46.6288C115.422 46.4808 115.228 46.285 114.985 46.2233C113.673 46.7487 112.32 47.1976 110.921 47.4141ZM103.09 47.0288C103.103 47.378 103.117 47.7279 103.094 48.0777C103.077 49.1407 102.731 50.1609 102.359 51.1431C102.275 51.4434 102.366 51.7615 102.451 52.0526C102.72 52.9425 103.345 53.6563 103.983 54.2985C104.526 54.7988 105.103 55.2765 105.773 55.5927C106.67 56.0911 107.678 56.3321 108.678 56.5131C108.755 55.5951 108.849 54.6777 108.981 53.7664C108.401 53.3101 107.936 52.7248 107.532 52.1083C107.025 51.2869 106.705 50.3401 106.678 49.3664C106.637 48.7853 106.678 48.2019 106.751 47.6251C105.518 47.523 104.283 47.3737 103.09 47.0288Z" fill="#324950" stroke="#EFEDEB" stroke-width="0.6" mask="url(#path-2-inside-1_3595_88)"/>
<path d="M109.378 2.90175L109.378 2.9019L109.384 2.8986C109.571 2.80096 109.787 2.84888 109.98 3.03993C110.173 3.23156 110.321 3.55373 110.332 3.93661L110.332 3.93661L110.333 3.94531C110.363 4.2948 110.273 4.63908 110.121 4.88731C109.965 5.14095 109.767 5.26117 109.592 5.24688L109.582 5.24609L109.572 5.24657C109.413 5.25434 109.234 5.15145 109.086 4.9358C108.94 4.72382 108.842 4.42599 108.842 4.10793L108.842 4.10793L108.842 4.10029C108.827 3.82825 108.884 3.561 108.986 3.34371C109.09 3.12409 109.232 2.96966 109.378 2.90175Z" fill="#324950" stroke="#EFEDEB" stroke-width="0.3"/>
<path d="M111.593 5.60427L111.593 5.60463L111.603 5.60801C111.736 5.65237 111.852 5.73142 111.97 5.83111C112.026 5.87783 112.079 5.92728 112.136 5.97919C112.14 5.98286 112.144 5.98653 112.148 5.99022C112.206 6.04367 112.267 6.09949 112.33 6.15221C112.387 6.2084 112.445 6.26312 112.502 6.31605C112.507 6.32056 112.512 6.32507 112.516 6.32956C112.58 6.38904 112.641 6.4466 112.699 6.50579C112.813 6.62234 112.906 6.73899 112.968 6.87094C113.069 7.17334 113.075 7.4941 112.887 7.70047L112.887 7.70029L112.882 7.70731C112.658 7.98567 112.18 8.02993 111.903 7.79682L111.903 7.79646L111.894 7.78957C111.839 7.75056 111.796 7.69713 111.756 7.62833C111.728 7.58024 111.705 7.53361 111.68 7.48171C111.666 7.45355 111.652 7.42384 111.636 7.3915L111.629 7.37764L111.619 7.36551C111.531 7.25511 111.426 7.15814 111.324 7.06907C111.282 7.03228 111.241 6.99803 111.201 6.96458C111.141 6.91332 111.082 6.86397 111.023 6.81039C110.834 6.63842 110.697 6.47104 110.659 6.25104L110.659 6.25095L110.656 6.23882C110.586 5.97418 110.731 5.67665 110.993 5.59126C111.196 5.53341 111.413 5.52976 111.593 5.60427Z" fill="#324950" stroke="#EFEDEB" stroke-width="0.3"/>
<path d="M102.232 5.56742L102.232 5.56755L102.238 5.56611C102.449 5.51511 102.675 5.57537 102.851 5.71109C103.027 5.8467 103.14 6.04748 103.139 6.26265L103.138 6.26265L103.139 6.27612C103.172 6.66859 102.815 7.05156 102.42 7.0454L102.42 7.0448L102.407 7.04578C102.013 7.07473 101.635 6.71635 101.643 6.32458L101.644 6.32459L101.643 6.31196C101.621 5.9708 101.891 5.63546 102.232 5.56742Z" fill="#324950" stroke="#EFEDEB" stroke-width="0.3"/>
<path d="M120.173 8.28008L120.173 8.2802L120.179 8.27832C120.395 8.2085 120.634 8.25978 120.823 8.39487C121.012 8.52983 121.134 8.7375 121.132 8.96299L121.132 8.96298L121.133 8.97651C121.166 9.37524 120.799 9.75941 120.397 9.74564L120.397 9.74512L120.385 9.74573C119.996 9.76474 119.63 9.4113 119.637 9.0256L119.638 9.02561L119.637 9.01345C119.616 8.68923 119.855 8.369 120.173 8.28008Z" fill="#324950" stroke="#EFEDEB" stroke-width="0.3"/>
<path d="M94.929 10.0522L94.93 10.0522C95.2206 10.0598 95.4942 10.1928 95.7228 10.3743C95.994 10.6039 96.0177 11.0196 95.7829 11.275L95.7829 11.2749L95.7796 11.2787C95.5983 11.4895 95.2632 11.5936 94.9624 11.5248C94.6619 11.3971 94.3478 11.4119 94.0656 11.4332C94.0386 11.4352 94.012 11.4373 93.9856 11.4394C93.7207 11.4601 93.485 11.4785 93.2596 11.4199L93.2593 11.4198C93.0966 11.3778 92.9364 11.2973 92.8205 11.1916C92.7053 11.0866 92.643 10.9662 92.6453 10.838L92.6455 10.838L92.6453 10.8317C92.6412 10.6557 92.728 10.4884 92.8813 10.3527C93.0343 10.2173 93.2441 10.1228 93.4584 10.095C93.9476 10.0548 94.44 10.0362 94.929 10.0522Z" fill="#324950" stroke="#EFEDEB" stroke-width="0.3"/>
<path d="M90.766 10.0873L90.766 10.0874L90.7695 10.0865C91.1286 10.0036 91.5244 10.0549 91.8319 10.191C92.1477 10.3308 92.3241 10.5359 92.3363 10.7303L92.3369 10.7398L92.3386 10.7491C92.3716 10.9222 92.2762 11.1207 92.0465 11.2865C91.8207 11.4495 91.4915 11.5571 91.1393 11.5449L91.1393 11.5446L91.1306 11.5448C90.8122 11.5523 90.5087 11.4612 90.2882 11.3193C90.0635 11.1747 89.9502 10.9963 89.9496 10.8365L89.9496 10.828L89.9486 10.8197C89.9326 10.6823 89.9949 10.5311 90.1416 10.3923C90.2877 10.2542 90.5068 10.1406 90.766 10.0873Z" fill="#324950" stroke="#EFEDEB" stroke-width="0.3"/>
<path d="M103.783 10.989L103.783 10.9891L103.785 10.9881C104.132 10.864 104.549 11.021 104.769 11.4047L104.769 11.4048L104.771 11.4085C104.901 11.6209 104.957 11.895 104.936 12.1662C104.915 12.4377 104.818 12.6919 104.66 12.8681L104.66 12.8681L104.656 12.8723C104.539 13.0118 104.392 13.0915 104.222 13.1515C104.136 13.1817 104.046 13.2061 103.951 13.2313C103.944 13.2331 103.937 13.235 103.93 13.2369C103.844 13.2598 103.753 13.2839 103.665 13.3131C103.326 13.4185 102.925 13.2591 102.713 12.8876L102.713 12.8876L102.711 12.8836C102.58 12.6713 102.525 12.3977 102.546 12.127C102.568 11.856 102.665 11.6021 102.824 11.4257L102.824 11.4257L102.828 11.4213C102.94 11.2867 103.081 11.2088 103.244 11.1497C103.327 11.1199 103.413 11.0956 103.505 11.0705C103.512 11.0685 103.52 11.0664 103.528 11.0643C103.61 11.0416 103.698 11.0177 103.783 10.989Z" fill="#324950" stroke="#EFEDEB" stroke-width="0.3"/>
<path d="M126.514 10.9809L126.514 10.9811L126.522 10.978C126.708 10.9007 126.923 10.9657 127.111 11.1752C127.297 11.3837 127.432 11.7162 127.43 12.0958L127.43 12.0958L127.43 12.1048C127.449 12.4444 127.355 12.7713 127.203 13.0052C127.049 13.2438 126.858 13.3567 126.688 13.3442L126.678 13.3435L126.669 13.344C126.507 13.3524 126.324 13.2466 126.174 13.0257C126.027 12.8086 125.93 12.5041 125.935 12.1806L125.935 12.1806L125.935 12.1724C125.923 11.8908 125.988 11.6168 126.1 11.3995C126.213 11.1794 126.364 11.0339 126.514 10.9809Z" fill="#324950" stroke="#EFEDEB" stroke-width="0.3"/>
<path d="M126.666 16.9414L126.666 16.9411L126.657 16.9418C126.473 16.9561 126.29 16.8962 126.154 16.7936C126.017 16.6901 125.94 16.5548 125.937 16.4244L125.937 16.4147L125.936 16.4051C125.929 16.3607 125.937 16.3124 125.96 16.248C125.972 16.2167 125.985 16.1851 126 16.1489L126.002 16.1449C126.018 16.1086 126.035 16.0673 126.05 16.0246L126.056 16.0062L126.058 15.9869C126.069 15.8353 126.057 15.6792 126.046 15.5371C126.043 15.4957 126.04 15.4556 126.037 15.4171C126.026 15.2413 126.028 15.0852 126.075 14.9369C126.149 14.7836 126.285 14.6444 126.465 14.5783C126.687 14.5046 126.909 14.5587 127.086 14.6842C127.265 14.811 127.381 14.9991 127.4 15.1682C127.403 15.2764 127.409 15.3816 127.415 15.4848C127.432 15.7699 127.447 16.0391 127.409 16.3117C127.336 16.6211 127.053 16.9339 126.666 16.9414Z" fill="#324950" stroke="#EFEDEB" stroke-width="0.3"/>
<path d="M87.5017 16.3588L87.5018 16.3591L87.5101 16.3544C87.5332 16.3416 87.5519 16.341 87.5764 16.3518C87.6068 16.3652 87.6487 16.399 87.6924 16.4643C87.7794 16.5944 87.8469 16.8108 87.8456 17.0634L87.8455 17.0634L87.8457 17.0702C87.8546 17.2942 87.8075 17.5074 87.735 17.6565C87.6986 17.7313 87.6593 17.7829 87.6242 17.813C87.5899 17.8423 87.5685 17.8443 87.5586 17.8434L87.5463 17.8422L87.5339 17.843C87.5241 17.8437 87.5033 17.8412 87.4707 17.8139C87.4374 17.7861 87.3998 17.7386 87.3646 17.6695C87.2941 17.5317 87.2457 17.3334 87.2478 17.1197L87.2479 17.1197L87.2478 17.1136C87.2421 16.9273 87.2743 16.7472 87.3284 16.6061C87.3853 16.4579 87.4547 16.3812 87.5017 16.3588Z" fill="#324950" stroke="#EFEDEB" stroke-width="0.3"/>
<path d="M130.036 23.5614L130.036 23.5615L130.039 23.561C130.276 23.5201 130.538 23.5468 130.738 23.6146C130.838 23.6485 130.916 23.6901 130.966 23.7319C131.017 23.7746 131.026 23.8049 131.027 23.8178L131.027 23.8303L131.03 23.8425C131.033 23.8534 131.033 23.8719 131.011 23.9031C130.987 23.9365 130.941 23.9764 130.871 24.0147C130.731 24.0911 130.521 24.1447 130.292 24.1408L130.292 24.1407L130.286 24.1409C130.065 24.1465 129.857 24.0986 129.713 24.0267C129.64 23.9907 129.59 23.9521 129.561 23.9179C129.533 23.8845 129.531 23.8638 129.532 23.8544L129.533 23.8426L129.533 23.8308C129.532 23.8151 129.543 23.7652 129.64 23.7001C129.731 23.6392 129.87 23.5866 130.036 23.5614Z" fill="#324950" stroke="#EFEDEB" stroke-width="0.3"/>
<path d="M85.4632 24.4623L85.4632 24.4627L85.4746 24.461C85.8392 24.4055 86.2203 24.4716 86.5058 24.608C86.8016 24.7493 86.9445 24.9376 86.9428 25.1006L86.9427 25.1117L86.9442 25.1227C86.961 25.2443 86.9021 25.3803 86.7484 25.5112C86.5958 25.6411 86.3667 25.7487 86.1003 25.8041L86.0866 25.807L86.0737 25.8123C85.7628 25.9403 85.5142 26.1144 85.2802 26.2783C85.2616 26.2913 85.243 26.3043 85.2246 26.3172C84.9725 26.4931 84.7288 26.6552 84.4137 26.7633C84.1511 26.837 83.828 26.8605 83.5351 26.8221C83.2354 26.7828 82.9981 26.683 82.8764 26.5399C82.7317 26.3693 82.7177 26.1854 82.7954 26.0025C82.8767 25.8108 83.0622 25.6168 83.3218 25.4688L83.3219 25.4688L83.3249 25.467C83.485 25.3705 83.6357 25.2683 83.7846 25.1673C84.2747 24.8348 84.7447 24.516 85.4632 24.4623Z" fill="#324950" stroke="#EFEDEB" stroke-width="0.3"/>
<path d="M82.7004 27.1952L82.7004 27.1953L82.7061 27.1934C83.0468 27.0802 83.4229 27.1548 83.721 27.3564C84.019 27.5579 84.2246 27.8765 84.239 28.2341L84.2384 28.2341L84.2401 28.247C84.3244 28.9096 83.7293 29.5634 83.0621 29.5382L83.0621 29.5376L83.0492 29.5382C82.4311 29.5681 81.8507 29.0139 81.8522 28.3965L81.8527 28.3965L81.8518 28.385C81.8129 27.859 82.1909 27.3421 82.7004 27.1952Z" fill="#324950" stroke="#EFEDEB" stroke-width="0.3"/>
<path d="M132.232 29.8658L132.232 29.8659L132.236 29.8651C132.599 29.7989 132.984 29.8652 133.274 30.01C133.572 30.1585 133.727 30.364 133.726 30.5536L133.726 30.5636L133.727 30.5735C133.749 30.7417 133.647 30.9333 133.417 31.0918C133.191 31.2475 132.869 31.3489 132.527 31.3379L132.527 31.3377L132.519 31.3379C132.196 31.3454 131.888 31.2522 131.666 31.1077C131.44 30.9604 131.329 30.7798 131.334 30.6188L131.334 30.6097L131.333 30.6007C131.319 30.4588 131.391 30.3011 131.555 30.1594C131.717 30.0189 131.956 29.908 132.232 29.8658Z" fill="#324950" stroke="#EFEDEB" stroke-width="0.3"/>
<path d="M131.952 33.2037C131.57 33.466 131.2 33.7196 130.736 33.9089C130.427 34.0114 130.042 34.0583 129.685 34.0293C129.321 33.9998 129.01 33.8942 128.826 33.7169L128.826 33.7166L128.818 33.7101C128.709 33.6186 128.656 33.5216 128.639 33.4309C128.622 33.3398 128.638 33.2418 128.692 33.1441C128.801 32.9457 129.064 32.7533 129.456 32.683L129.472 32.6802L129.486 32.6741C129.788 32.5508 130.032 32.3771 130.26 32.2147C130.307 32.1812 130.353 32.1482 130.399 32.1162C130.672 31.927 130.948 31.7614 131.33 31.6833C131.702 31.6177 132.114 31.6138 132.412 31.7451C132.684 31.8674 132.806 32.0679 132.826 32.2458L132.825 32.2458L132.827 32.2533C132.844 32.3656 132.804 32.4863 132.702 32.617C132.599 32.7478 132.446 32.8736 132.273 32.9864L132.273 32.9864L132.272 32.987C132.163 33.0591 132.057 33.1318 131.952 33.2037Z" fill="#324950" stroke="#EFEDEB" stroke-width="0.3"/>
<path d="M85.0154 33.4942L85.0155 33.4943L85.0202 33.4922C85.2299 33.4005 85.4748 33.4295 85.6765 33.548C85.878 33.6664 86.0203 33.8646 86.0386 34.0919L86.0382 34.092L86.0399 34.103C86.1033 34.51 85.755 34.9269 85.3448 34.934L85.3448 34.9335L85.3331 34.9347C84.9458 34.9717 84.5639 34.6357 84.5521 34.2482L84.5524 34.2481L84.5514 34.2375C84.5197 33.9277 84.7216 33.6108 85.0154 33.4942Z" fill="#324950" stroke="#EFEDEB" stroke-width="0.3"/>
<path d="M127.977 40.6563L127.977 40.6566L127.985 40.6511C128.012 40.6331 128.031 40.6328 128.052 40.6398C128.079 40.6489 128.119 40.6759 128.163 40.7349C128.251 40.8528 128.324 41.0596 128.329 41.3117L128.329 41.3117L128.329 41.318C128.344 41.5471 128.3 41.7714 128.228 41.9308C128.191 42.0108 128.151 42.0671 128.114 42.1003C128.078 42.1331 128.056 42.1355 128.046 42.1346L128.033 42.1336L128.02 42.1347C128.011 42.1356 127.991 42.1336 127.959 42.1077C127.926 42.0811 127.889 42.0351 127.854 41.9673C127.783 41.832 127.733 41.636 127.734 41.4235L127.734 41.4235L127.734 41.4177C127.727 41.236 127.756 41.0585 127.807 40.9168C127.86 40.7689 127.927 40.6851 127.977 40.6563Z" fill="#324950" stroke="#EFEDEB" stroke-width="0.3"/>
<path d="M88.6957 41.5764L88.6958 41.5764L88.6999 41.575C88.8584 41.5212 89.0404 41.5232 89.2037 41.5734C89.3678 41.6238 89.4994 41.7182 89.5703 41.8344L89.5701 41.8345L89.5749 41.8415C89.6822 41.9969 89.6625 42.2011 89.5532 42.3974L89.5397 42.4217L89.5357 42.4492C89.5109 42.6235 89.5278 42.803 89.5426 42.9611C89.5458 42.9955 89.549 43.0289 89.5516 43.061C89.5668 43.2493 89.5664 43.4098 89.5044 43.5602C89.4211 43.7314 89.2567 43.8835 89.0446 43.9259C88.891 43.9495 88.7272 43.9221 88.5866 43.8567C88.4444 43.7905 88.3374 43.691 88.2854 43.5821L88.2858 43.582L88.2803 43.5724C88.2182 43.4638 88.1913 43.3439 88.1785 43.2083C88.172 43.1403 88.1693 43.0707 88.1667 42.997C88.1665 42.9917 88.1663 42.9864 88.1661 42.9811C88.1638 42.915 88.1614 42.8452 88.1559 42.776C88.155 42.7221 88.1531 42.6716 88.1513 42.6228C88.148 42.5368 88.145 42.4558 88.1479 42.3702C88.1521 42.2434 88.1698 42.1287 88.216 42.0229C88.3287 41.8208 88.475 41.6443 88.6957 41.5764Z" fill="#324950" stroke="#EFEDEB" stroke-width="0.3"/>
<path d="M88.6786 46.0674L88.6786 46.0675L88.6838 46.0658C88.8921 45.9975 89.124 46.0414 89.3107 46.1655C89.4973 46.2896 89.6251 46.4846 89.6386 46.7022L89.6381 46.7023L89.6398 46.7143C89.6993 47.1292 89.3264 47.5468 88.9079 47.5321L88.9079 47.5316L88.8953 47.5322C88.5081 47.5512 88.1422 47.1989 88.1483 46.8126L88.1488 46.8126L88.148 46.8006C88.1273 46.4776 88.3631 46.1583 88.6786 46.0674Z" fill="#324950" stroke="#EFEDEB" stroke-width="0.3"/>
<path d="M124.129 46.9605L124.129 46.9606L124.133 46.9598C124.497 46.8923 124.884 46.9583 125.176 47.1034C125.475 47.2523 125.631 47.4584 125.629 47.6483L125.629 47.6584L125.63 47.6684C125.652 47.8366 125.549 48.0281 125.319 48.1864C125.092 48.3419 124.77 48.443 124.429 48.4318L124.429 48.4316L124.42 48.4318C124.097 48.4389 123.789 48.3454 123.567 48.2005C123.341 48.0529 123.231 47.8722 123.236 47.7113L123.237 47.7021L123.236 47.6929C123.223 47.5516 123.294 47.3949 123.457 47.254C123.618 47.1141 123.855 47.0035 124.129 46.9605Z" fill="#324950" stroke="#EFEDEB" stroke-width="0.3"/>
<path d="M120.219 46.9539L120.219 46.9539L120.222 46.9534C120.313 46.9324 120.412 46.9301 120.521 46.9363L120.521 46.9363L120.525 46.9364C120.592 46.9387 120.655 46.9613 120.747 46.9939L120.75 46.9948C120.835 47.0251 120.947 47.0644 121.074 47.061C121.22 47.0609 121.371 47.0526 121.516 47.0446C121.591 47.0405 121.664 47.0364 121.734 47.0336C121.948 47.0251 122.153 47.0264 122.352 47.0617C122.53 47.1053 122.695 47.21 122.803 47.3435C122.912 47.4773 122.957 47.6294 122.923 47.7758L122.922 47.7768C122.849 48.0944 122.5 48.3408 122.099 48.3968C122.018 48.4002 121.936 48.4039 121.855 48.4076C121.43 48.4271 121.014 48.4461 120.599 48.4197C120.181 48.3754 119.784 48.1388 119.667 47.8143C119.546 47.4732 119.791 47.0452 120.219 46.9539Z" fill="#324950" stroke="#EFEDEB" stroke-width="0.3"/>
<path d="M94.9661 48.7699L94.9662 48.7699L94.9713 48.7682C95.1818 48.6953 95.4185 48.7383 95.6087 48.8642C95.7988 48.99 95.9278 49.1886 95.9378 49.4097L95.9372 49.4097L95.9388 49.4221C95.9902 49.8209 95.6437 50.2227 95.2416 50.2284L95.2415 50.2279L95.2292 50.2291C94.8339 50.2675 94.4469 49.9165 94.4469 49.5218H94.4473L94.4464 49.5102C94.4214 49.188 94.6518 48.866 94.9661 48.7699Z" fill="#324950" stroke="#EFEDEB" stroke-width="0.3"/>
<path d="M103.705 50.7792L103.705 50.7793L103.711 50.786C103.756 50.8384 103.793 50.9074 103.83 50.9935C103.848 51.0361 103.865 51.0803 103.882 51.1275L103.883 51.128C103.9 51.1745 103.919 51.2239 103.94 51.2723L103.945 51.2838L103.951 51.2942C104.069 51.4799 104.213 51.6439 104.348 51.7973C104.39 51.8445 104.43 51.8907 104.469 51.9363C104.637 52.1345 104.783 52.3331 104.871 52.5876C104.969 52.9059 104.974 53.2812 104.823 53.5289C104.653 53.7898 104.365 53.8752 104.116 53.8097C103.95 53.7491 103.802 53.6282 103.654 53.4689C103.559 53.3666 103.474 53.2598 103.385 53.1492C103.33 53.0809 103.274 53.0111 103.214 52.9401C103.166 52.8778 103.11 52.8119 103.056 52.7497C103.021 52.7083 102.987 52.6685 102.958 52.6324C102.877 52.533 102.806 52.4341 102.752 52.3198L102.753 52.3198L102.749 52.3138C102.61 52.0474 102.534 51.7197 102.542 51.3952C102.554 51.007 102.777 50.6762 103.029 50.5707C103.255 50.4808 103.525 50.5469 103.705 50.7792Z" fill="#324950" stroke="#EFEDEB" stroke-width="0.3"/>
<path d="M113.011 51.4697L113.011 51.4699L113.019 51.4666C113.205 51.3853 113.421 51.4474 113.61 51.6547C113.798 51.8611 113.935 52.1932 113.935 52.5742L113.934 52.5742L113.935 52.5829C113.954 52.9106 113.867 53.2306 113.724 53.4651C113.578 53.7044 113.394 53.8259 113.228 53.8262L113.218 53.8263L113.209 53.8275C113.043 53.8496 112.854 53.7533 112.696 53.5342C112.541 53.3188 112.436 53.0089 112.44 52.676L112.44 52.676L112.44 52.6676C112.427 52.387 112.49 52.113 112.6 51.8947C112.711 51.6736 112.862 51.5256 113.011 51.4697Z" fill="#324950" stroke="#EFEDEB" stroke-width="0.3"/>
<path d="M105.777 54.1641L105.777 54.1642L105.782 54.1624C105.999 54.0919 106.239 54.1431 106.428 54.2784C106.617 54.4136 106.74 54.6218 106.738 54.8481L106.737 54.8481L106.738 54.8617C106.77 55.2603 106.403 55.6435 106.002 55.6293L106.002 55.6288L105.989 55.6294C105.601 55.6479 105.235 55.2936 105.242 54.9075L105.243 54.9075L105.242 54.8958C105.222 54.5725 105.46 54.2541 105.777 54.1641Z" fill="#324950" stroke="#EFEDEB" stroke-width="0.3"/>
</svg>
