<svg width="48" height="7" viewBox="0 0 48 7" fill="none" xmlns="http://www.w3.org/2000/svg">
<path fill-rule="evenodd" clip-rule="evenodd" d="M0.29245 4.53552C-0.098053 4.92603 -0.098053 5.5592 0.29245 5.94971C0.682953 6.34033 1.31613 6.34033 1.7067 5.94971L3.12088 4.53552L4.53506 5.94971C4.92563 6.34033 5.55881 6.34033 5.94931 5.94971C6.33981 5.5592 6.33981 4.92603 5.94931 4.53552L4.53506 3.12134L5.94931 1.70715C6.33981 1.31665 6.33981 0.683472 5.94931 0.292847C5.55881 -0.0976562 4.92563 -0.0976562 4.53506 0.292847L3.12088 1.70715L1.7067 0.292847C1.31613 -0.0976562 0.682953 -0.0976562 0.29245 0.292847C-0.098053 0.683472 -0.098053 1.31665 0.29245 1.70715L1.7067 3.12134L0.29245 4.53552ZM10.2924 4.53552C9.90195 4.92603 9.90195 5.5592 10.2924 5.94971C10.683 6.34033 11.3161 6.34033 11.7067 5.94971L13.1209 4.53552L14.5351 5.94971C14.9256 6.34033 15.5588 6.34033 15.9493 5.94971C16.3398 5.5592 16.3398 4.92603 15.9493 4.53552L14.5351 3.12134L15.9493 1.70715C16.3398 1.31665 16.3398 0.683472 15.9493 0.292847C15.5588 -0.0976562 14.9256 -0.0976562 14.5351 0.292847L13.1209 1.70715L11.7067 0.292847C11.3161 -0.0976562 10.683 -0.0976562 10.2924 0.292847C9.90195 0.683472 9.90195 1.31665 10.2924 1.70715L11.7067 3.12134L10.2924 4.53552ZM20.2924 5.94971C19.9019 5.5592 19.9019 4.92603 20.2924 4.53552L21.7067 3.12134L20.2924 1.70715C19.9019 1.31665 19.9019 0.683472 20.2924 0.292847C20.683 -0.0976562 21.3161 -0.0976562 21.7067 0.292847L23.1209 1.70715L24.5351 0.292847C24.9256 -0.0976562 25.5588 -0.0976562 25.9493 0.292847C26.3398 0.683472 26.3398 1.31665 25.9493 1.70715L24.5351 3.12134L25.9493 4.53552C26.3398 4.92603 26.3398 5.5592 25.9493 5.94971C25.5588 6.34033 24.9256 6.34033 24.5351 5.94971L23.1209 4.53552L21.7067 5.94971C21.3161 6.34033 20.683 6.34033 20.2924 5.94971ZM30.2924 4.53552C29.9019 4.92603 29.9019 5.5592 30.2924 5.94971C30.683 6.34033 31.3161 6.34033 31.7067 5.94971L33.1209 4.53552L34.5351 5.94971C34.9256 6.34033 35.5588 6.34033 35.9493 5.94971C36.3398 5.5592 36.3398 4.92603 35.9493 4.53552L34.5351 3.12134L35.9493 1.70715C36.3398 1.31665 36.3398 0.683472 35.9493 0.292847C35.5588 -0.0976562 34.9256 -0.0976562 34.5351 0.292847L33.1209 1.70715L31.7067 0.292847C31.3161 -0.0976562 30.683 -0.0976562 30.2924 0.292847C29.9019 0.683472 29.9019 1.31665 30.2924 1.70715L31.7067 3.12134L30.2924 4.53552ZM41.2924 5.94971C40.9019 5.5592 40.9019 4.92603 41.2924 4.53552L42.7067 3.12134L41.2924 1.70715C40.9019 1.31665 40.9019 0.683472 41.2924 0.292847C41.683 -0.0976562 42.3161 -0.0976562 42.7067 0.292847L44.1209 1.70715L45.5351 0.292847C45.9256 -0.0976562 46.5588 -0.0976562 46.9493 0.292847C47.3398 0.683472 47.3398 1.31665 46.9493 1.70715L45.5351 3.12134L46.9493 4.53552C47.3398 4.92603 47.3398 5.5592 46.9493 5.94971C46.5588 6.34033 45.9256 6.34033 45.5351 5.94971L44.1209 4.53552L42.7067 5.94971C42.3161 6.34033 41.683 6.34033 41.2924 5.94971Z" fill="#57984C"/>
</svg>
